playfair-display_bold-italic.sfdir
StartChar: exclam
Encoding: 33 33 677
Width: 643
Flags: W
LayerCount: 2
Back
Fore
SplineSet
296 702 m 128,-1,1
 312 847 312 847 323 1044 c 0,2,3
 332 1201 332 1201 341 1282 c 1,4,5
 344 1362 344 1362 366 1434.5 c 128,-1,6
 388 1507 388 1507 434.5 1554.5 c 128,-1,7
 481 1602 481 1602 553 1602 c 0,8,9
 620 1602 620 1602 656 1565 c 128,-1,10
 692 1528 692 1528 692 1461 c 0,11,12
 692 1446 692 1446 691 1438 c 0,13,14
 682 1349 682 1349 639 1242.5 c 128,-1,15
 596 1136 596 1136 511 963 c 0,16,17
 426 789 426 789 371.5 662.5 c 128,-1,18
 317 536 317 536 280 401 c 1,19,-1
 243 408 l 1,20,0
 280 557 280 557 296 702 c 128,-1,1
76 191.5 m 128,-1,22
 102 236 102 236 147 262 c 128,-1,23
 192 288 192 288 247 288 c 0,24,25
 313 288 313 288 349 255 c 128,-1,26
 385 222 385 222 385 163 c 0,27,28
 385 114 385 114 358 70 c 128,-1,29
 331 26 331 26 285 -1.5 c 128,-1,30
 239 -29 239 -29 186 -29 c 0,31,32
 122 -29 122 -29 86 3.5 c 128,-1,33
 50 36 50 36 50 92 c 0,34,21
 50 147 50 147 76 191.5 c 128,-1,22
EndSplineSet
Substitution2: "'smcp' Lowercase to Small Capitals lookup 24 subtable" exclam.smcp
Substitution2: "'c2sc' Capitals to Small Capitals lookup 23 subtable" exclam.smcp
Substitution2: "'aalt' Access All Alternates lookup 0 subtable" exclam.smcp
EndChar
StartChar: numbersign
Encoding: 35 35 679
Width: 1280
Flags: W
LayerCount: 2
Back
Fore
SplineSet
812 547 m 1,0,-1
 1106 547 l 1,1,-1
 1085 506 l 1,2,-1
 793 506 l 1,3,-1
 655 207 l 1,4,-1
 606 207 l 1,5,-1
 744 506 l 1,6,-1
 410 506 l 1,7,-1
 272 207 l 1,8,-1
 223 207 l 1,9,-1
 361 506 l 1,10,-1
 61 506 l 1,11,-1
 80 547 l 1,12,-1
 380 547 l 1,13,-1
 539 889 l 1,14,-1
 239 889 l 1,15,-1
 256 930 l 1,16,-1
 558 930 l 1,17,-1
 698 1233 l 1,18,-1
 747 1233 l 1,19,-1
 607 930 l 1,20,-1
 941 930 l 1,21,-1
 1081 1233 l 1,22,-1
 1130 1233 l 1,23,-1
 990 930 l 1,24,-1
 1282 930 l 1,25,-1
 1265 889 l 1,26,-1
 971 889 l 1,27,-1
 812 547 l 1,0,-1
588 889 m 1,28,-1
 429 547 l 1,29,-1
 763 547 l 1,30,-1
 922 889 l 1,31,-1
 588 889 l 1,28,-1
EndSplineSet
EndChar
StartChar: dollar
Encoding: 36 36 719
Width: 1249
Flags: W
LayerCount: 2
Back
Fore
SplineSet
1232.5 1273 m 128,-1,1
 1269 1211 1269 1211 1269 1135 c 0,2,3
 1269 1077 1269 1077 1250 1028.5 c 128,-1,4
 1231 980 1231 980 1195.5 952 c 128,-1,5
 1160 924 1160 924 1112 924 c 0,6,7
 1044 924 1044 924 1005 972.5 c 128,-1,8
 966 1021 966 1021 966 1098 c 0,9,10
 966 1169 966 1169 993 1230.5 c 128,-1,11
 1020 1292 1020 1292 1062 1358 c 1,12,13
 1018 1392 1018 1392 950 1412 c 1,14,-1
 796 857 l 1,15,16
 897 767 897 767 957.5 704.5 c 128,-1,17
 1018 642 1018 642 1060.5 565 c 128,-1,18
 1103 488 1103 488 1103 405 c 0,19,20
 1103 256 1103 256 1019.5 160.5 c 128,-1,21
 936 65 936 65 810.5 21 c 128,-1,22
 685 -23 685 -23 550 -28 c 1,23,-1
 483 -270 l 1,24,-1
 438 -270 l 1,25,-1
 505 -29 l 1,26,27
 435 -29 435 -29 365 -17 c 1,28,-1
 295 -270 l 1,29,-1
 249 -270 l 1,30,-1
 322 -7 l 1,31,32
 231 17 231 17 142 75 c 0,33,34
 78 116 78 116 42.5 177.5 c 128,-1,35
 7 239 7 239 7 315 c 0,36,37
 7 373 7 373 26 421.5 c 128,-1,38
 45 470 45 470 81 498 c 128,-1,39
 117 526 117 526 164 526 c 0,40,41
 232 526 232 526 271 477.5 c 128,-1,42
 310 429 310 429 310 352 c 0,43,44
 310 281 310 281 283.5 220.5 c 128,-1,45
 257 160 257 160 215 92 c 1,46,47
 263 55 263 55 334 35 c 1,48,-1
 500 634 l 1,49,50
 426 705 426 705 375 765 c 128,-1,51
 324 825 324 825 291.5 896 c 128,-1,52
 259 967 259 967 259 1045 c 0,53,54
 259 1189 259 1189 328.5 1285 c 128,-1,55
 398 1381 398 1381 506 1427 c 128,-1,56
 614 1473 614 1473 735 1478 c 1,57,-1
 802 1720 l 1,58,-1
 847 1720 l 1,59,-1
 780 1479 l 1,60,61
 856 1478 856 1478 920 1465 c 1,62,-1
 991 1720 l 1,63,-1
 1036 1720 l 1,64,-1
 962 1455 l 1,65,66
 1043 1433 1043 1433 1135 1375 c 0,67,0
 1196 1335 1196 1335 1232.5 1273 c 128,-1,1
783 1435 m 2,69,-1
 768 1435 l 1,70,-1
 647 998 l 1,71,72
 684 957 684 957 760 889 c 1,73,-1
 908 1423 l 1,74,68
 851 1435 851 1435 783 1435 c 2,69,-1
612 1038 m 1,76,-1
 721 1430 l 1,77,78
 638 1415 638 1415 587 1361 c 128,-1,79
 536 1307 536 1307 536 1219 c 0,80,75
 536 1134 536 1134 612 1038 c 1,76,-1
518 16 m 1,81,-1
 649 491 l 1,82,83
 616 526 616 526 536 600 c 1,84,-1
 377 26 l 1,85,86
 428 16 428 16 493 16 c 2,87,-1
 518 16 l 1,81,-1
684 453 m 1,89,-1
 563 20 l 1,90,91
 782 44 782 44 782 239 c 0,92,88
 782 340 782 340 684 453 c 1,89,-1
EndSplineSet
Substitution2: "'smcp' Lowercase to Small Capitals lookup 24 subtable" dollar.smcp
Substitution2: "'c2sc' Capitals to Small Capitals lookup 23 subtable" dollar.smcp
Substitution2: "'aalt' Access All Alternates lookup 0 subtable" dollar.smcp
EndChar
StartChar: percent
Encoding: 37 37 739
Width: 1630
Flags: W
LayerCount: 2
Back
Fore
SplineSet
40 -113 m 1,0,-1
 9 -86 l 1,1,-1
 1715 1688 l 1,2,-1
 1746 1661 l 1,3,-1
 40 -113 l 1,0,-1
290 1330.5 m 128,-1,5
 351 1431 351 1431 456.5 1495 c 128,-1,6
 562 1559 562 1559 690 1559 c 0,7,8
 815 1559 815 1559 884.5 1496 c 128,-1,9
 954 1433 954 1433 954 1321 c 0,10,11
 954 1219 954 1219 893.5 1118.5 c 128,-1,12
 833 1018 833 1018 728 954 c 128,-1,13
 623 890 623 890 496 890 c 0,14,15
 371 890 371 890 300 952.5 c 128,-1,16
 229 1015 229 1015 229 1128 c 0,17,4
 229 1230 229 1230 290 1330.5 c 128,-1,5
550 1447.5 m 128,-1,19
 497 1367 497 1367 468.5 1254 c 128,-1,20
 440 1141 440 1141 440 1052 c 0,21,22
 440 989 440 989 458 955 c 128,-1,23
 476 921 476 921 510 921 c 0,24,25
 581 921 581 921 634 1001.5 c 128,-1,26
 687 1082 687 1082 715 1195.5 c 128,-1,27
 743 1309 743 1309 743 1399 c 0,28,29
 743 1461 743 1461 725 1494.5 c 128,-1,30
 707 1528 707 1528 674 1528 c 0,31,18
 603 1528 603 1528 550 1447.5 c 128,-1,19
824 411 m 128,-1,33
 885 511 885 511 990.5 575 c 128,-1,34
 1096 639 1096 639 1223 639 c 0,35,36
 1348 639 1348 639 1418 576.5 c 128,-1,37
 1488 514 1488 514 1488 402 c 0,38,39
 1488 300 1488 300 1427.5 199.5 c 128,-1,40
 1367 99 1367 99 1262 35 c 128,-1,41
 1157 -29 1157 -29 1029 -29 c 0,42,43
 904 -29 904 -29 833.5 33.5 c 128,-1,44
 763 96 763 96 763 209 c 0,45,32
 763 311 763 311 824 411 c 128,-1,33
1084 528.5 m 128,-1,47
 1031 448 1031 448 1002.5 335 c 128,-1,48
 974 222 974 222 974 133 c 0,49,50
 974 70 974 70 991.5 36 c 128,-1,51
 1009 2 1009 2 1043 2 c 0,52,53
 1114 2 1114 2 1167 82.5 c 128,-1,54
 1220 163 1220 163 1248.5 276.5 c 128,-1,55
 1277 390 1277 390 1277 480 c 0,56,57
 1277 541 1277 541 1258.5 575 c 128,-1,58
 1240 609 1240 609 1207 609 c 0,59,46
 1137 609 1137 609 1084 528.5 c 128,-1,47
EndSplineSet
EndChar
StartChar: ampersand
Encoding: 38 38 760
Width: 1768
Flags: W
LayerCount: 2
Back
Fore
SplineSet
1791 1414 m 128,-1,1
 1866 1349 1866 1349 1866 1206 c 0,2,3
 1866 1101 1866 1101 1822.5 1024 c 128,-1,4
 1779 947 1779 947 1694.5 891.5 c 128,-1,5
 1610 836 1610 836 1478 789 c 0,6,7
 1449 778 1449 778 1351 743 c 1,8,9
 1438 648 1438 648 1438 509 c 0,10,11
 1438 375 1438 375 1353.5 251 c 128,-1,12
 1269 127 1269 127 1101.5 49 c 128,-1,13
 934 -29 934 -29 697 -29 c 0,14,15
 511 -29 511 -29 366.5 22.5 c 128,-1,16
 222 74 222 74 140 175.5 c 128,-1,17
 58 277 58 277 58 421 c 0,18,19
 58 552 58 552 126 663.5 c 128,-1,20
 194 775 194 775 318.5 853.5 c 128,-1,21
 443 932 443 932 609 967 c 1,22,23
 519 998 519 998 474 1054.5 c 128,-1,24
 429 1111 429 1111 429 1180 c 0,25,26
 429 1261 429 1261 487 1319.5 c 128,-1,27
 545 1378 545 1378 637 1408 c 128,-1,28
 729 1438 729 1438 828 1438 c 0,29,30
 953 1438 953 1438 1019.5 1393 c 128,-1,31
 1086 1348 1086 1348 1086 1273 c 0,32,33
 1086 1227 1086 1227 1062.5 1194.5 c 128,-1,34
 1039 1162 1039 1162 1002.5 1146 c 128,-1,35
 966 1130 966 1130 928 1130 c 1,36,-1
 929 1167 l 1,37,38
 977 1167 977 1167 1009 1195 c 128,-1,39
 1041 1223 1041 1223 1041 1268 c 0,40,41
 1041 1317 1041 1317 1000.5 1346 c 128,-1,42
 960 1375 960 1375 894 1375 c 0,43,44
 821 1375 821 1375 757 1338 c 128,-1,45
 693 1301 693 1301 654.5 1234.5 c 128,-1,46
 616 1168 616 1168 616 1084 c 0,47,48
 616 1026 616 1026 638 979 c 1,49,50
 711 991 711 991 767 991 c 0,51,52
 841 991 841 991 841 948 c 0,53,54
 841 927 841 927 822 916 c 128,-1,55
 803 905 803 905 777 905 c 0,56,57
 729 905 729 905 636 950 c 1,58,59
 564 923 564 923 506.5 860 c 128,-1,60
 449 797 449 797 416.5 710 c 128,-1,61
 384 623 384 623 384 527 c 0,62,63
 384 342 384 342 507 244.5 c 128,-1,64
 630 147 630 147 848 147 c 0,65,66
 993 147 993 147 1118 190 c 128,-1,67
 1243 233 1243 233 1319.5 319 c 128,-1,68
 1396 405 1396 405 1396 528 c 0,69,70
 1396 650 1396 650 1320 732 c 1,71,72
 1320 732 1320 732 1149 675 c 0,73,74
 977 617 977 617 955 609 c 0,75,76
 763 547 763 547 763 435 c 0,77,78
 763 378 763 378 805 349.5 c 128,-1,79
 847 321 847 321 909 321 c 0,80,81
 989 321 989 321 1044 361.5 c 128,-1,82
 1099 402 1099 402 1123 448 c 1,83,-1
 1154 432 l 1,84,85
 1125 372 1125 372 1061 327 c 128,-1,86
 997 282 997 282 901 282 c 0,87,88
 836 282 836 282 780.5 305.5 c 128,-1,89
 725 329 725 329 690 381.5 c 128,-1,90
 655 434 655 434 655 515 c 0,91,92
 655 761 655 761 1013 877 c 0,93,94
 1030 882 1030 882 1051.5 889 c 128,-1,95
 1073 896 1073 896 1098 904 c 0,96,97
 1418 1008 1418 1008 1551 1057 c 0,98,99
 1630 1087 1630 1087 1680 1112 c 128,-1,100
 1730 1137 1730 1137 1765 1177 c 128,-1,101
 1800 1217 1800 1217 1800 1275 c 0,102,103
 1800 1326 1800 1326 1773 1364.5 c 128,-1,104
 1746 1403 1746 1403 1699.5 1424 c 128,-1,105
 1653 1445 1653 1445 1597 1445 c 0,106,107
 1555 1445 1555 1445 1538 1433 c 1,108,109
 1626 1396 1626 1396 1626 1314 c 0,110,111
 1626 1270 1626 1270 1600 1236 c 128,-1,112
 1574 1202 1574 1202 1531.5 1183.5 c 128,-1,113
 1489 1165 1489 1165 1443 1165 c 0,114,115
 1378 1165 1378 1165 1336.5 1201 c 128,-1,116
 1295 1237 1295 1237 1295 1295 c 0,117,118
 1295 1348 1295 1348 1329.5 1388 c 128,-1,119
 1364 1428 1364 1428 1422 1450 c 0,120,121
 1490 1479 1490 1479 1588 1479 c 0,122,0
 1716 1479 1716 1479 1791 1414 c 128,-1,1
EndSplineSet
Substitution2: "'smcp' Lowercase to Small Capitals lookup 24 subtable" ampersand.smcp
Substitution2: "'c2sc' Capitals to Small Capitals lookup 23 subtable" ampersand.smcp
Substitution2: "'aalt' Access All Alternates lookup 0 subtable" ampersand.smcp
EndChar
StartChar: quotesingle
Encoding: 39 39 685
Width: 468
Flags: W
LayerCount: 2
Back
Fore
SplineSet
536.5 1298.5 m 128,-1,1
 511 1249 511 1249 455 1167 c 0,2,3
 383 1065 383 1065 351 999 c 1,4,-1
 323 999 l 1,5,6
 321 1080 321 1080 305 1195 c 0,7,8
 295 1260 295 1260 295 1300 c 0,9,10
 295 1320 295 1320 296 1330 c 0,11,12
 301 1401 301 1401 345.5 1448 c 128,-1,13
 390 1495 390 1495 457 1495 c 0,14,15
 506 1495 506 1495 533.5 1469 c 128,-1,16
 561 1443 561 1443 562 1398 c 0,17,0
 562 1348 562 1348 536.5 1298.5 c 128,-1,1
EndSplineSet
EndChar
StartChar: parenright
Encoding: 41 41 643
Width: 813
Flags: W
LayerCount: 2
Back
Fore
SplineSet
567.5 1402 m 128,-1,1
 658 1281 658 1281 708.5 1138 c 128,-1,2
 759 995 759 995 759 821 c 0,3,4
 759 599 759 599 635 377.5 c 128,-1,5
 511 156 511 156 293.5 -37 c 128,-1,6
 76 -230 76 -230 -202 -373 c 1,7,-1
 -222 -346 l 1,8,9
 0 -186 0 -186 154 -7 c 128,-1,10
 308 172 308 172 393 394 c 128,-1,11
 478 616 478 616 478 887 c 0,12,13
 478 1096 478 1096 435 1272.5 c 128,-1,14
 392 1449 392 1449 302 1624 c 1,15,-1
 339 1651 l 1,16,0
 477 1523 477 1523 567.5 1402 c 128,-1,1
EndSplineSet
Substitution2: "'case' Case-Sensitive Forms lookup 25 subtable" parenright.case
Substitution2: "'smcp' Lowercase to Small Capitals lookup 24 subtable" parenright.smcp
Substitution2: "'c2sc' Capitals to Small Capitals lookup 23 subtable" parenright.smcp
AlternateSubs2: "'aalt' Access All Alternates lookup 1 subtable" parenright.smcp parenright.case
EndChar
StartChar: asterisk
Encoding: 42 42 671
Width: 992
Flags: W
LayerCount: 2
Back
Fore
SplineSet
1043 1245 m 0,1,2
 1043 1179 1043 1179 958 1136 c 0,3,4
 923 1119 923 1119 883 1109.5 c 128,-1,5
 843 1100 843 1100 758 1085 c 0,6,7
 681 1073 681 1073 629 1062 c 1,8,9
 678 1051 678 1051 742 1040 c 0,10,11
 821 1025 821 1025 859.5 1015 c 128,-1,12
 898 1005 898 1005 923 988 c 0,13,14
 966 960 966 960 966 918 c 0,15,16
 966 882 966 882 936 845 c 0,17,18
 897 795 897 795 845 795 c 0,19,20
 815 795 815 795 785 815 c 0,21,22
 759 833 759 833 737 862 c 128,-1,23
 715 891 715 891 679 951 c 2,24,-1
 621 1043 l 1,25,26
 623 1017 623 1017 633 931 c 0,27,28
 645 842 645 842 645 796 c 0,29,30
 645 762 645 762 640 739 c 0,31,32
 625 682 625 682 590 655.5 c 128,-1,33
 555 629 555 629 513 629 c 0,34,35
 479 629 479 629 457 646.5 c 128,-1,36
 435 664 435 664 435 701 c 0,37,38
 435 716 435 716 440 739 c 0,39,40
 448 776 448 776 470.5 818.5 c 128,-1,41
 493 861 493 861 540 939 c 0,42,43
 577 1000 577 1000 605 1050 c 1,44,-1
 508 961 l 2,45,46
 437 895 437 895 399.5 863 c 128,-1,47
 362 831 362 831 328 813 c 0,48,49
 291 794 291 794 258 794 c 0,50,51
 204 794 204 794 188 845 c 0,52,53
 182 860 182 860 182 876 c 0,54,55
 182 941 182 941 267 985 c 0,56,57
 304 1003 304 1003 349.5 1013.5 c 128,-1,58
 395 1024 395 1024 475 1037 c 0,59,60
 543 1048 543 1048 599 1059 c 1,61,62
 522 1075 522 1075 483 1082 c 0,63,64
 404 1097 404 1097 365.5 1107 c 128,-1,65
 327 1117 327 1117 302 1134 c 0,66,67
 260 1161 260 1161 260 1204 c 0,68,69
 260 1240 260 1240 290 1277 c 0,70,71
 329 1327 329 1327 380 1327 c 0,72,73
 411 1327 411 1327 441 1307 c 0,74,75
 468 1290 468 1290 489.5 1260.5 c 128,-1,76
 511 1231 511 1231 548 1170 c 0,77,78
 584 1110 584 1110 610 1071 c 1,79,80
 609 1076 609 1076 597 1166 c 0,81,82
 581 1274 581 1274 581 1322 c 0,83,84
 581 1354 581 1354 587 1382 c 0,85,86
 600 1439 600 1439 635.5 1466 c 128,-1,87
 671 1493 671 1493 713 1493 c 0,88,89
 747 1493 747 1493 768.5 1475 c 128,-1,90
 790 1457 790 1457 790 1420 c 0,91,92
 790 1405 790 1405 785 1382 c 0,93,94
 778 1347 778 1347 757 1306.5 c 128,-1,95
 736 1266 736 1266 694 1196 c 0,96,97
 645 1112 645 1112 625 1076 c 1,98,99
 657 1105 657 1105 725 1168 c 256,100,101
 793 1231 793 1231 828.5 1261.5 c 128,-1,102
 864 1292 864 1292 897 1309 c 0,103,104
 935 1328 935 1328 967 1328 c 0,105,106
 1021 1328 1021 1328 1037 1277 c 0,107,0
 1043 1262 1043 1262 1043 1245 c 0,1,2
EndSplineSet
EndChar
StartChar: plus
Encoding: 43 43 741
Width: 1178
Flags: W
LayerCount: 2
Back
Fore
SplineSet
733 1241 m 1,0,-1
 806 1241 l 1,1,-1
 669 758 l 1,2,-1
 1144 758 l 1,3,-1
 1126 696 l 1,4,-1
 651 696 l 1,5,-1
 513 215 l 1,6,-1
 440 215 l 1,7,-1
 577 696 l 1,8,-1
 100 696 l 1,9,-1
 118 758 l 1,10,-1
 595 758 l 1,11,-1
 733 1241 l 1,0,-1
EndSplineSet
EndChar
StartChar: comma
Encoding: 44 44 675
Width: 587
Flags: W
LayerCount: 2
Back
Fore
SplineSet
260.5 -103 m 128,-1,1
 179 -215 179 -215 37 -279 c 1,2,-1
 27 -246 l 1,3,4
 120 -199 120 -199 181.5 -126.5 c 128,-1,5
 243 -54 243 -54 249 30 c 1,6,7
 188 -29 188 -29 120 -29 c 0,8,9
 59 -29 59 -29 26 -0.5 c 128,-1,10
 -7 28 -7 28 -7 81 c 0,11,12
 -7 136 -7 136 22 183.5 c 128,-1,13
 51 231 51 231 100 259.5 c 128,-1,14
 149 288 149 288 206 288 c 0,15,16
 272 288 272 288 307 249.5 c 128,-1,17
 342 211 342 211 342 138 c 0,18,0
 342 9 342 9 260.5 -103 c 128,-1,1
EndSplineSet
EndChar
StartChar: hyphen
Encoding: 45 45 652
Width: 1036
Flags: W
LayerCount: 2
Back
Fore
SplineSet
847 457 m 1,0,-1
 108 457 l 1,1,-1
 153 626 l 1,2,-1
 892 626 l 1,3,-1
 847 457 l 1,0,-1
EndSplineSet
Substitution2: "'case' Case-Sensitive Forms lookup 25 subtable" hyphen.case
Substitution2: "'smcp' Lowercase to Small Capitals lookup 24 subtable" hyphen.smcp
Substitution2: "'c2sc' Capitals to Small Capitals lookup 23 subtable" hyphen.smcp
AlternateSubs2: "'aalt' Access All Alternates lookup 1 subtable" hyphen.smcp hyphen.case
EndChar
StartChar: period
Encoding: 46 46 680
Width: 571
Flags: W
LayerCount: 2
Back
Fore
SplineSet
25 191.5 m 128,-1,1
 51 236 51 236 96 262 c 128,-1,2
 141 288 141 288 196 288 c 0,3,4
 262 288 262 288 298 255 c 128,-1,5
 334 222 334 222 334 163 c 0,6,7
 334 114 334 114 307 70 c 128,-1,8
 280 26 280 26 234 -1.5 c 128,-1,9
 188 -29 188 -29 135 -29 c 0,10,11
 71 -29 71 -29 35 3.5 c 128,-1,12
 -1 36 -1 36 -1 92 c 0,13,0
 -1 147 -1 147 25 191.5 c 128,-1,1
EndSplineSet
EndChar
StartChar: zero
Encoding: 48 48 572
Width: 1273
Flags: W
LayerCount: 2
Back
Fore
SplineSet
996.5 1043 m 128,-1,1
 1087 998 1087 998 1134.5 914 c 128,-1,2
 1182 830 1182 830 1182 715 c 0,3,4
 1182 532 1182 532 1082 359.5 c 128,-1,5
 982 187 982 187 814.5 79 c 128,-1,6
 647 -29 647 -29 456 -29 c 0,7,8
 331 -29 331 -29 239 15.5 c 128,-1,9
 147 60 147 60 97.5 144.5 c 128,-1,10
 48 229 48 229 48 346 c 0,11,12
 48 528 48 528 149 700.5 c 128,-1,13
 250 873 250 873 419 980.5 c 128,-1,14
 588 1088 588 1088 780 1088 c 0,15,0
 906 1088 906 1088 996.5 1043 c 128,-1,1
543.5 941.5 m 128,-1,17
 452 832 452 832 399.5 658.5 c 128,-1,18
 347 485 347 485 347 305 c 0,19,20
 347 153 347 153 386 80.5 c 128,-1,21
 425 8 425 8 489 8 c 0,22,23
 602 8 602 8 692 120 c 128,-1,24
 782 232 782 232 832.5 407 c 128,-1,25
 883 582 883 582 883 760 c 0,26,27
 883 910 883 910 846 980.5 c 128,-1,28
 809 1051 809 1051 747 1051 c 0,29,16
 635 1051 635 1051 543.5 941.5 c 128,-1,17
EndSplineSet
Substitution2: "'case' Case-Sensitive Forms lookup 25 subtable" zero.lf
Substitution2: "'lnum' Lining Figures lookup 20 subtable" zero.lf
Substitution2: "'frac' Diagonal Fractions lookup 17 subtable" zero.numr
Substitution2: "'dnom' Denominators lookup 15 subtable" zero.dnom
Substitution2: "'numr' Numerators lookup 14 subtable" zero.numr
Substitution2: "'sups' Superscript lookup 13 subtable" zero.sups
Substitution2: "'sinf' Scientific Inferiors lookup 12 subtable" zero.subs
Substitution2: "'subs' Subscript lookup 11 subtable" zero.subs
AlternateSubs2: "'aalt' Access All Alternates lookup 1 subtable" zero.subs zero.sups zero.numr zero.dnom zero.lf
EndChar
StartChar: one
Encoding: 49 49 573
Width: 761
Flags: W
LayerCount: 2
Back
Fore
SplineSet
107 0 m 1,0,-1
 364 865 l 1,1,2
 269 824 269 824 92 779 c 1,3,-1
 98 822 l 1,4,5
 237 856 237 856 343 899 c 128,-1,6
 449 942 449 942 521 983.5 c 128,-1,7
 593 1025 593 1025 677 1082 c 1,8,-1
 718 1082 l 1,9,-1
 396 0 l 1,10,-1
 107 0 l 1,0,-1
EndSplineSet
Substitution2: "'case' Case-Sensitive Forms lookup 25 subtable" one.lf
Substitution2: "'lnum' Lining Figures lookup 20 subtable" one.lf
Substitution2: "'frac' Diagonal Fractions lookup 17 subtable" one.numr
Substitution2: "'dnom' Denominators lookup 15 subtable" one.dnom
Substitution2: "'numr' Numerators lookup 14 subtable" one.numr
Substitution2: "'sups' Superscript lookup 13 subtable" onesuperior
Substitution2: "'sinf' Scientific Inferiors lookup 12 subtable" one.subs
Substitution2: "'subs' Subscript lookup 11 subtable" one.subs
AlternateSubs2: "'aalt' Access All Alternates lookup 1 subtable" one.subs onesuperior one.numr one.dnom one.lf
EndChar
StartChar: two
Encoding: 50 50 574
Width: 1095
Flags: W
LayerCount: 2
Back
Fore
SplineSet
826 1061 m 128,-1,1
 900 1035 900 1035 940 986.5 c 128,-1,2
 980 938 980 938 980 872 c 0,3,4
 980 781 980 781 907 694.5 c 128,-1,5
 834 608 834 608 734 539 c 128,-1,6
 634 470 634 470 481 378 c 0,7,8
 341 293 341 293 302 264 c 1,9,10
 345 264 345 264 467 238 c 0,11,12
 610 207 610 207 677 207 c 0,13,14
 758 207 758 207 805.5 232 c 128,-1,15
 853 257 853 257 853 305 c 0,16,17
 853 368 853 368 777 406 c 1,18,-1
 800 433 l 1,19,20
 859 401 859 401 886.5 359.5 c 128,-1,21
 914 318 914 318 914 258 c 0,22,23
 914 188 914 188 880 126.5 c 128,-1,24
 846 65 846 65 774.5 26.5 c 128,-1,25
 703 -12 703 -12 596 -12 c 0,26,27
 527 -12 527 -12 401 17 c 0,28,29
 329 33 329 33 277 41.5 c 128,-1,30
 225 50 225 50 167 50 c 0,31,32
 106 50 106 50 60 38.5 c 128,-1,33
 14 27 14 27 -50 0 c 1,34,-1
 -40 43 l 1,35,36
 -9 67 -9 67 71 126 c 0,37,38
 242 251 242 251 368.5 358 c 128,-1,39
 495 465 495 465 594 599.5 c 128,-1,40
 693 734 693 734 693 863 c 0,41,42
 693 944 693 944 652 987 c 128,-1,43
 611 1030 611 1030 537 1030 c 0,44,45
 457 1030 457 1030 374.5 983.5 c 128,-1,46
 292 937 292 937 238.5 863 c 128,-1,47
 185 789 185 789 185 713 c 0,48,49
 185 662 185 662 212.5 638 c 128,-1,50
 240 614 240 614 303 614 c 0,51,52
 358 614 358 614 399.5 634 c 128,-1,53
 441 654 441 654 492 698 c 1,54,-1
 517 670 l 1,55,56
 463 619 463 619 404 595 c 128,-1,57
 345 571 345 571 290 571 c 0,58,59
 227 571 227 571 181.5 602 c 128,-1,60
 136 633 136 633 136 711 c 0,61,62
 136 802 136 802 203 889 c 128,-1,63
 270 976 270 976 388.5 1031.5 c 128,-1,64
 507 1087 507 1087 652 1087 c 0,65,0
 752 1087 752 1087 826 1061 c 128,-1,1
EndSplineSet
Substitution2: "'case' Case-Sensitive Forms lookup 25 subtable" two.lf
Substitution2: "'lnum' Lining Figures lookup 20 subtable" two.lf
Substitution2: "'frac' Diagonal Fractions lookup 17 subtable" two.numr
Substitution2: "'dnom' Denominators lookup 15 subtable" two.dnom
Substitution2: "'numr' Numerators lookup 14 subtable" two.numr
Substitution2: "'sups' Superscript lookup 13 subtable" twosuperior
Substitution2: "'sinf' Scientific Inferiors lookup 12 subtable" two.subs
Substitution2: "'subs' Subscript lookup 11 subtable" two.subs
AlternateSubs2: "'aalt' Access All Alternates lookup 1 subtable" two.subs twosuperior two.numr two.dnom two.lf
EndChar
StartChar: three
Encoding: 51 51 575
Width: 1060
Flags: W
LayerCount: 2
Back
Fore
SplineSet
812 1065 m 128,-1,1
 888 1040 888 1040 929 993.5 c 128,-1,2
 970 947 970 947 970 885 c 0,3,4
 970 794 970 794 898.5 718.5 c 128,-1,5
 827 643 827 643 718 590.5 c 128,-1,6
 609 538 609 538 496 512 c 1,7,8
 673 509 673 509 779.5 447 c 128,-1,9
 886 385 886 385 886 260 c 0,10,11
 886 95 886 95 715 -34 c 128,-1,12
 544 -163 544 -163 294.5 -234.5 c 128,-1,13
 45 -306 45 -306 -177 -309 c 1,14,-1
 -167 -272 l 1,15,16
 6 -261 6 -261 179.5 -192.5 c 128,-1,17
 353 -124 353 -124 468.5 0 c 128,-1,18
 584 124 584 124 584 293 c 0,19,20
 584 375 584 375 551.5 425 c 128,-1,21
 519 475 519 475 460 479 c 1,22,23
 412 460 412 460 388 452 c 128,-1,24
 364 444 364 444 341 444 c 0,25,26
 304 444 304 444 304 465 c 0,27,28
 304 467 304 467 306 475 c 0,29,30
 314 513 314 513 404 513 c 0,31,32
 429 513 429 513 443 512 c 1,33,34
 554 559 554 559 625 643.5 c 128,-1,35
 696 728 696 728 696 836 c 0,36,37
 696 923 696 923 646 971.5 c 128,-1,38
 596 1020 596 1020 505 1020 c 0,39,40
 433 1020 433 1020 362 984.5 c 128,-1,41
 291 949 291 949 245 892 c 128,-1,42
 199 835 199 835 199 777 c 0,43,44
 199 726 199 726 226.5 702 c 128,-1,45
 254 678 254 678 317 678 c 0,46,47
 385 678 385 678 444 709 c 1,48,-1
 467 678 l 1,49,50
 385 635 385 635 303 635 c 0,51,52
 240 635 240 635 195 666 c 128,-1,53
 150 697 150 697 150 775 c 0,54,55
 150 850 150 850 215 923 c 128,-1,56
 280 996 280 996 391.5 1043 c 128,-1,57
 503 1090 503 1090 634 1090 c 0,58,0
 736 1090 736 1090 812 1065 c 128,-1,1
EndSplineSet
Substitution2: "'case' Case-Sensitive Forms lookup 25 subtable" three.lf
Substitution2: "'lnum' Lining Figures lookup 20 subtable" three.lf
Substitution2: "'frac' Diagonal Fractions lookup 17 subtable" three.numr
Substitution2: "'dnom' Denominators lookup 15 subtable" three.dnom
Substitution2: "'numr' Numerators lookup 14 subtable" three.numr
Substitution2: "'sups' Superscript lookup 13 subtable" threesuperior
Substitution2: "'sinf' Scientific Inferiors lookup 12 subtable" three.subs
Substitution2: "'subs' Subscript lookup 11 subtable" three.subs
AlternateSubs2: "'aalt' Access All Alternates lookup 1 subtable" three.subs threesuperior three.numr three.dnom three.lf
EndChar
StartChar: four
Encoding: 52 52 576
Width: 1096
Flags: W
LayerCount: 2
Back
Fore
SplineSet
663 94 m 1,0,-1
 560 -289 l 1,1,-1
 271 -289 l 1,2,-1
 374 94 l 1,3,-1
 -118 94 l 1,4,-1
 -106 137 l 1,5,-1
 876 1088 l 1,6,-1
 929 1088 l 1,7,-1
 682 167 l 1,8,-1
 949 167 l 1,9,-1
 929 94 l 1,10,-1
 663 94 l 1,0,-1
539 707 m 1,11,-1
 -18 167 l 1,12,-1
 394 167 l 1,13,-1
 539 707 l 1,11,-1
EndSplineSet
Substitution2: "'case' Case-Sensitive Forms lookup 25 subtable" four.lf
Substitution2: "'lnum' Lining Figures lookup 20 subtable" four.lf
Substitution2: "'frac' Diagonal Fractions lookup 17 subtable" four.numr
Substitution2: "'dnom' Denominators lookup 15 subtable" four.dnom
Substitution2: "'numr' Numerators lookup 14 subtable" four.numr
Substitution2: "'sups' Superscript lookup 13 subtable" four.sups
Substitution2: "'sinf' Scientific Inferiors lookup 12 subtable" four.subs
Substitution2: "'subs' Subscript lookup 11 subtable" four.subs
AlternateSubs2: "'aalt' Access All Alternates lookup 1 subtable" four.subs four.sups four.numr four.dnom four.lf
EndChar
StartChar: five
Encoding: 53 53 577
Width: 966
Flags: W
LayerCount: 2
Back
Fore
SplineSet
780 876.5 m 128,-1,1
 703 801 703 801 605 801 c 0,2,3
 577 801 577 801 547.5 810 c 128,-1,4
 518 819 518 819 470 838 c 0,5,6
 386 873 386 873 348 873 c 0,7,8
 337 873 337 873 332 872 c 1,9,-1
 142 462 l 1,10,11
 276 535 276 535 458 535 c 0,12,13
 636 535 636 535 722.5 470.5 c 128,-1,14
 809 406 809 406 809 291 c 0,15,16
 809 112 809 112 649.5 -21 c 128,-1,17
 490 -154 490 -154 258.5 -225.5 c 128,-1,18
 27 -297 27 -297 -181 -303 c 1,19,-1
 -170 -266 l 1,20,21
 -18 -265 -18 -265 139 -198 c 128,-1,22
 296 -131 296 -131 399.5 -5 c 128,-1,23
 503 121 503 121 503 287 c 0,24,25
 503 473 503 473 312 473 c 0,26,27
 216 473 216 473 110 418 c 1,28,-1
 90 428 l 1,29,-1
 374 1061 l 1,30,31
 413 1063 413 1063 445.5 1057 c 128,-1,32
 478 1051 478 1051 528 1038 c 0,33,34
 626 1010 626 1010 696 1010 c 0,35,36
 761 1010 761 1010 807 1030.5 c 128,-1,37
 853 1051 853 1051 886 1102 c 1,38,-1
 910 1087 l 1,39,0
 857 952 857 952 780 876.5 c 128,-1,1
EndSplineSet
Substitution2: "'case' Case-Sensitive Forms lookup 25 subtable" five.lf
Substitution2: "'lnum' Lining Figures lookup 20 subtable" five.lf
Substitution2: "'frac' Diagonal Fractions lookup 17 subtable" five.numr
Substitution2: "'dnom' Denominators lookup 15 subtable" five.dnom
Substitution2: "'numr' Numerators lookup 14 subtable" five.numr
Substitution2: "'sups' Superscript lookup 13 subtable" five.sups
Substitution2: "'sinf' Scientific Inferiors lookup 12 subtable" five.subs
Substitution2: "'subs' Subscript lookup 11 subtable" five.subs
AlternateSubs2: "'aalt' Access All Alternates lookup 1 subtable" five.subs five.sups five.numr five.dnom five.lf
EndChar
StartChar: six
Encoding: 54 54 578
Width: 1160
Flags: W
LayerCount: 2
Back
Fore
SplineSet
760.5 1222.5 m 128,-1,1
 581 1058 581 1058 466.5 805 c 128,-1,2
 352 552 352 552 352 251 c 0,3,4
 352 159 352 159 364.5 106.5 c 128,-1,5
 377 54 377 54 400 33 c 128,-1,6
 423 12 423 12 459 12 c 0,7,8
 546 12 546 12 617 112 c 128,-1,9
 688 212 688 212 729 356 c 128,-1,10
 770 500 770 500 770 620 c 0,11,12
 770 801 770 801 669 801 c 0,13,14
 617 801 617 801 567 750 c 128,-1,15
 517 699 517 699 483 589 c 1,16,-1
 449 600 l 1,17,18
 534 897 534 897 783 897 c 0,19,20
 868 897 868 897 933.5 861.5 c 128,-1,21
 999 826 999 826 1036 756 c 128,-1,22
 1073 686 1073 686 1073 587 c 0,23,24
 1073 429 1073 429 982 286.5 c 128,-1,25
 891 144 891 144 738 57.5 c 128,-1,26
 585 -29 585 -29 408 -29 c 0,27,28
 56 -29 56 -29 56 348 c 0,29,30
 56 629 56 629 230 875 c 128,-1,31
 404 1121 404 1121 654 1281.5 c 128,-1,32
 904 1442 904 1442 1116 1479 c 1,33,-1
 1129 1438 l 1,34,0
 940 1387 940 1387 760.5 1222.5 c 128,-1,1
EndSplineSet
Substitution2: "'case' Case-Sensitive Forms lookup 25 subtable" six.lf
Substitution2: "'lnum' Lining Figures lookup 20 subtable" six.lf
Substitution2: "'frac' Diagonal Fractions lookup 17 subtable" six.numr
Substitution2: "'dnom' Denominators lookup 15 subtable" six.dnom
Substitution2: "'numr' Numerators lookup 14 subtable" six.numr
Substitution2: "'sups' Superscript lookup 13 subtable" six.sups
Substitution2: "'sinf' Scientific Inferiors lookup 12 subtable" six.subs
Substitution2: "'subs' Subscript lookup 11 subtable" six.subs
AlternateSubs2: "'aalt' Access All Alternates lookup 1 subtable" six.subs six.sups six.numr six.dnom six.lf
EndChar
StartChar: seven
Encoding: 55 55 579
Width: 1031
Flags: W
LayerCount: 2
Back
Fore
SplineSet
1037 922 m 2,0,1
 871 731 871 731 779 611.5 c 128,-1,2
 687 492 687 492 610 342 c 128,-1,3
 533 192 533 192 484 0 c 0,4,5
 467 -68 467 -68 458 -119 c 0,6,7
 455 -142 455 -142 450 -162 c 0,8,9
 436 -224 436 -224 389 -263.5 c 128,-1,10
 342 -303 342 -303 267 -303 c 0,11,12
 145 -303 145 -303 145 -189 c 0,13,14
 145 -157 145 -157 155 -115 c 0,15,16
 185 15 185 15 287.5 162.5 c 128,-1,17
 390 310 390 310 514 441.5 c 128,-1,18
 638 573 638 573 826 757 c 0,19,20
 980 907 980 907 1036 967 c 1,21,22
 929 896 929 896 869.5 861.5 c 128,-1,23
 810 827 810 827 750.5 806.5 c 128,-1,24
 691 786 691 786 627 786 c 0,25,26
 577 786 577 786 538.5 795 c 128,-1,27
 500 804 500 804 449 821 c 0,28,29
 365 851 365 851 309 851 c 0,30,31
 242 851 242 851 201 820.5 c 128,-1,32
 160 790 160 790 160 729 c 0,33,34
 160 582 160 582 407 522 c 1,35,-1
 396 489 l 1,36,37
 86 551 86 551 86 784 c 0,38,39
 86 858 86 858 120 923 c 128,-1,40
 154 988 154 988 226 1029 c 128,-1,41
 298 1070 298 1070 407 1070 c 0,42,43
 467 1070 467 1070 519 1059 c 128,-1,44
 571 1048 571 1048 651 1024 c 0,45,46
 734 999 734 999 791.5 987 c 128,-1,47
 849 975 849 975 918 975 c 0,48,49
 977 975 977 975 1020.5 992.5 c 128,-1,50
 1064 1010 1064 1010 1098 1058 c 1,51,-1
 1155 1058 l 1,52,-1
 1037 922 l 2,0,1
EndSplineSet
Substitution2: "'case' Case-Sensitive Forms lookup 25 subtable" seven.lf
Substitution2: "'lnum' Lining Figures lookup 20 subtable" seven.lf
Substitution2: "'frac' Diagonal Fractions lookup 17 subtable" seven.numr
Substitution2: "'dnom' Denominators lookup 15 subtable" seven.dnom
Substitution2: "'numr' Numerators lookup 14 subtable" seven.numr
Substitution2: "'sups' Superscript lookup 13 subtable" seven.sups
Substitution2: "'sinf' Scientific Inferiors lookup 12 subtable" seven.subs
Substitution2: "'subs' Subscript lookup 11 subtable" seven.subs
AlternateSubs2: "'aalt' Access All Alternates lookup 1 subtable" seven.subs seven.sups seven.numr seven.dnom seven.lf
EndChar
StartChar: eight
Encoding: 56 56 580
Width: 1177
Flags: W
LayerCount: 2
Back
Fore
SplineSet
762 832 m 1,1,-1
 792 805 l 2,2,3
 867 737 867 737 912.5 687.5 c 128,-1,4
 958 638 958 638 989 573 c 128,-1,5
 1020 508 1020 508 1020 428 c 0,6,7
 1020 298 1020 298 934 193.5 c 128,-1,8
 848 89 848 89 705 30 c 128,-1,9
 562 -29 562 -29 398 -29 c 0,10,11
 283 -29 283 -29 192 0 c 128,-1,12
 101 29 101 29 48 89 c 128,-1,13
 -5 149 -5 149 -5 239 c 0,14,15
 -5 394 -5 394 144 522.5 c 128,-1,16
 293 651 293 651 512 738 c 1,17,18
 448 799 448 799 408 845.5 c 128,-1,19
 368 892 368 892 341.5 951 c 128,-1,20
 315 1010 315 1010 315 1081 c 0,21,22
 315 1197 315 1197 391 1288 c 128,-1,23
 467 1379 467 1379 591 1429 c 128,-1,24
 715 1479 715 1479 855 1479 c 0,25,26
 1007 1479 1007 1479 1102 1423 c 128,-1,27
 1197 1367 1197 1367 1197 1259 c 0,28,0
 1197 1039 1197 1039 762 832 c 1,1,-1
869 1042 m 128,-1,30
 920 1155 920 1155 920 1274 c 0,31,32
 920 1442 920 1442 805 1442 c 0,33,34
 746 1442 746 1442 693.5 1402 c 128,-1,35
 641 1362 641 1362 608.5 1295 c 128,-1,36
 576 1228 576 1228 576 1152 c 0,37,38
 576 1065 576 1065 618.5 996 c 128,-1,39
 661 927 661 927 739 853 c 1,40,29
 818 929 818 929 869 1042 c 128,-1,30
585 54 m 128,-1,42
 655 100 655 100 698.5 179 c 128,-1,43
 742 258 742 258 742 352 c 0,44,45
 742 429 742 429 714 492 c 128,-1,46
 686 555 686 555 644 604 c 128,-1,47
 602 653 602 653 534 718 c 1,48,49
 462 664 462 664 405.5 584.5 c 128,-1,50
 349 505 349 505 317 408.5 c 128,-1,51
 285 312 285 312 285 211 c 0,52,53
 285 114 285 114 320.5 61 c 128,-1,54
 356 8 356 8 438 8 c 0,55,41
 515 8 515 8 585 54 c 128,-1,42
EndSplineSet
Substitution2: "'case' Case-Sensitive Forms lookup 25 subtable" eight.lf
Substitution2: "'lnum' Lining Figures lookup 20 subtable" eight.lf
Substitution2: "'frac' Diagonal Fractions lookup 17 subtable" eight.numr
Substitution2: "'dnom' Denominators lookup 15 subtable" eight.dnom
Substitution2: "'numr' Numerators lookup 14 subtable" eight.numr
Substitution2: "'sups' Superscript lookup 13 subtable" eight.sups
Substitution2: "'sinf' Scientific Inferiors lookup 12 subtable" eight.subs
Substitution2: "'subs' Subscript lookup 11 subtable" eight.subs
AlternateSubs2: "'aalt' Access All Alternates lookup 1 subtable" eight.subs eight.sups eight.numr eight.dnom eight.lf
EndChar
StartChar: nine
Encoding: 57 57 581
Width: 1135
Flags: W
LayerCount: 2
Back
Fore
SplineSet
1056 711 m 0,1,2
 1056 439 1056 439 885 200 c 128,-1,3
 714 -39 714 -39 468.5 -195 c 128,-1,4
 223 -351 223 -351 16 -385 c 1,5,-1
 4 -344 l 1,6,7
 186 -295 186 -295 361 -134.5 c 128,-1,8
 536 26 536 26 647.5 272 c 128,-1,9
 759 518 759 518 759 808 c 0,10,11
 759 900 759 900 746.5 952.5 c 128,-1,12
 734 1005 734 1005 711 1026 c 128,-1,13
 688 1047 688 1047 652 1047 c 0,14,15
 566 1047 566 1047 494.5 947 c 128,-1,16
 423 847 423 847 382.5 703 c 128,-1,17
 342 559 342 559 342 439 c 0,18,19
 342 258 342 258 443 258 c 0,20,21
 495 258 495 258 545 309.5 c 128,-1,22
 595 361 595 361 629 470 c 1,23,-1
 663 459 l 1,24,25
 578 162 578 162 328 162 c 0,26,27
 243 162 243 162 178 197.5 c 128,-1,28
 113 233 113 233 76 302.5 c 128,-1,29
 39 372 39 372 39 471 c 0,30,31
 39 629 39 629 129.5 771.5 c 128,-1,32
 220 914 220 914 373.5 1000.5 c 128,-1,33
 527 1087 527 1087 704 1087 c 0,34,0
 1056 1087 1056 1087 1056 711 c 0,1,2
EndSplineSet
Substitution2: "'case' Case-Sensitive Forms lookup 25 subtable" nine.lf
Substitution2: "'lnum' Lining Figures lookup 20 subtable" nine.lf
Substitution2: "'frac' Diagonal Fractions lookup 17 subtable" nine.numr
Substitution2: "'dnom' Denominators lookup 15 subtable" nine.dnom
Substitution2: "'numr' Numerators lookup 14 subtable" nine.numr
Substitution2: "'sups' Superscript lookup 13 subtable" nine.sups
Substitution2: "'sinf' Scientific Inferiors lookup 12 subtable" nine.subs
Substitution2: "'subs' Subscript lookup 11 subtable" nine.subs
AlternateSubs2: "'aalt' Access All Alternates lookup 1 subtable" nine.subs nine.sups nine.numr nine.dnom nine.lf
EndChar
StartChar: less
Encoding: 60 60 732
Width: 1216
Flags: W
LayerCount: 2
Back
Fore
SplineSet
251 719 m 1,0,-1
 929 362 l 1,1,-1
 896 297 l 1,2,-1
 97 727 l 1,3,-1
 1228 1192 l 1,4,-1
 1248 1133 l 1,5,-1
 251 719 l 1,0,-1
EndSplineSet
EndChar
StartChar: equal
Encoding: 61 61 727
Width: 1331
Flags: W
LayerCount: 2
Back
Fore
SplineSet
1255 901 m 1,0,-1
 1237 840 l 1,1,-1
 211 840 l 1,2,-1
 229 901 l 1,3,-1
 1255 901 l 1,0,-1
1173 614 m 1,4,-1
 1155 553 l 1,5,-1
 129 553 l 1,6,-1
 147 614 l 1,7,-1
 1173 614 l 1,4,-1
EndSplineSet
EndChar
StartChar: greater
Encoding: 62 62 728
Width: 1219
Flags: W
LayerCount: 2
Back
Fore
SplineSet
1039 770 m 1,0,-1
 281 1176 l 1,1,-1
 314 1235 l 1,2,-1
 1193 762 l 1,3,-1
 117 317 l 1,4,-1
 97 377 l 1,5,-1
 1039 770 l 1,0,-1
EndSplineSet
EndChar
StartChar: question
Encoding: 63 63 682
Width: 995
Flags: W
LayerCount: 2
Back
Fore
SplineSet
515.5 1541.5 m 128,-1,1
 464 1526 464 1526 438 1495 c 1,2,3
 473 1496 473 1496 506 1479 c 128,-1,4
 539 1462 539 1462 559.5 1432 c 128,-1,5
 580 1402 580 1402 580 1365 c 0,6,7
 580 1325 580 1325 559 1291 c 128,-1,8
 538 1257 538 1257 502 1237 c 128,-1,9
 466 1217 466 1217 422 1217 c 0,10,11
 362 1217 362 1217 320 1254 c 128,-1,12
 278 1291 278 1291 278 1355 c 0,13,14
 278 1439 278 1439 342 1494.5 c 128,-1,15
 406 1550 406 1550 503.5 1576 c 128,-1,16
 601 1602 601 1602 702 1602 c 0,17,18
 809 1602 809 1602 898 1573 c 128,-1,19
 987 1544 987 1544 1040 1487 c 128,-1,20
 1093 1430 1093 1430 1093 1348 c 0,21,22
 1093 1287 1093 1287 1056 1225.5 c 128,-1,23
 1019 1164 1019 1164 940.5 1091 c 128,-1,24
 862 1018 862 1018 727 918 c 0,25,26
 583 812 583 812 520 759.5 c 128,-1,27
 457 707 457 707 428 660.5 c 128,-1,28
 399 614 399 614 399 556 c 256,29,30
 399 498 399 498 434 461.5 c 128,-1,31
 469 425 469 425 538 425 c 0,32,33
 582 425 582 425 625.5 439 c 128,-1,34
 669 453 669 453 695 478 c 1,35,36
 656 489 656 489 627 522.5 c 128,-1,37
 598 556 598 556 598 604 c 0,38,39
 598 661 598 661 637 700 c 128,-1,40
 676 739 676 739 739 739 c 0,41,42
 788 739 788 739 823 707 c 128,-1,43
 858 675 858 675 858 623 c 0,44,45
 858 544 858 544 797.5 490 c 128,-1,46
 737 436 737 436 648 410 c 128,-1,47
 559 384 559 384 473 384 c 0,48,49
 335 384 335 384 248.5 442.5 c 128,-1,50
 162 501 162 501 162 613 c 0,51,52
 162 685 162 685 199 746.5 c 128,-1,53
 236 808 236 808 293.5 860 c 128,-1,54
 351 912 351 912 456 994 c 2,55,-1
 495 1024 l 2,56,57
 611 1116 611 1116 666.5 1166.5 c 128,-1,58
 722 1217 722 1217 753 1269 c 128,-1,59
 784 1321 784 1321 784 1383 c 0,60,61
 784 1462 784 1462 740.5 1509.5 c 128,-1,62
 697 1557 697 1557 614 1557 c 0,63,0
 567 1557 567 1557 515.5 1541.5 c 128,-1,1
253 191.5 m 128,-1,65
 279 236 279 236 324 262 c 128,-1,66
 369 288 369 288 424 288 c 0,67,68
 490 288 490 288 526 255 c 128,-1,69
 562 222 562 222 562 163 c 0,70,71
 562 114 562 114 535 70 c 128,-1,72
 508 26 508 26 462 -1.5 c 128,-1,73
 416 -29 416 -29 363 -29 c 0,74,75
 299 -29 299 -29 263 3.5 c 128,-1,76
 227 36 227 36 227 92 c 0,77,64
 227 147 227 147 253 191.5 c 128,-1,65
EndSplineSet
Substitution2: "'smcp' Lowercase to Small Capitals lookup 24 subtable" question.smcp
Substitution2: "'c2sc' Capitals to Small Capitals lookup 23 subtable" question.smcp
Substitution2: "'aalt' Access All Alternates lookup 0 subtable" question.smcp
EndChar
StartChar: at
Encoding: 64 64 762
Width: 1767
Flags: W
LayerCount: 2
Back
Fore
SplineSet
923 194 m 0,1,2
 923 227 923 227 929 260 c 1,3,4
 873 151 873 151 801.5 102 c 128,-1,5
 730 53 730 53 640 53 c 0,6,7
 532 53 532 53 469.5 116.5 c 128,-1,8
 407 180 407 180 407 304 c 0,9,10
 407 447 407 447 484.5 606.5 c 128,-1,11
 562 766 562 766 688 872.5 c 128,-1,12
 814 979 814 979 951 979 c 0,13,14
 1024 979 1024 979 1058.5 944 c 128,-1,15
 1093 909 1093 909 1096 839 c 1,16,-1
 1129 950 l 1,17,18
 1291 950 1291 950 1388 979 c 1,19,-1
 1171 240 l 2,20,21
 1157 192 1157 192 1157 167 c 0,22,23
 1157 119 1157 119 1204 119 c 0,24,25
 1271 119 1271 119 1382.5 195.5 c 128,-1,26
 1494 272 1494 272 1579.5 417 c 128,-1,27
 1665 562 1665 562 1665 760 c 0,28,29
 1665 937 1665 937 1587 1054 c 128,-1,30
 1509 1171 1509 1171 1372.5 1226.5 c 128,-1,31
 1236 1282 1236 1282 1056 1282 c 0,32,33
 779 1282 779 1282 560 1145 c 128,-1,34
 341 1008 341 1008 219.5 787 c 128,-1,35
 98 566 98 566 98 324 c 0,36,37
 98 119 98 119 188.5 -14 c 128,-1,38
 279 -147 279 -147 429.5 -208.5 c 128,-1,39
 580 -270 580 -270 768 -270 c 0,40,41
 1043 -270 1043 -270 1259 -145 c 1,42,-1
 1272 -172 l 1,43,44
 1178 -233 1178 -233 1049 -269 c 128,-1,45
 920 -305 920 -305 768 -305 c 0,46,47
 570 -305 570 -305 409.5 -241 c 128,-1,48
 249 -177 249 -177 152.5 -37 c 128,-1,49
 56 103 56 103 56 320 c 0,50,51
 56 569 56 569 180 800 c 128,-1,52
 304 1031 304 1031 532 1175 c 128,-1,53
 760 1319 760 1319 1055 1319 c 0,54,55
 1251 1319 1251 1319 1397.5 1258 c 128,-1,56
 1544 1197 1544 1197 1625.5 1072 c 128,-1,57
 1707 947 1707 947 1707 761 c 0,58,59
 1707 546 1707 546 1607 385 c 128,-1,60
 1507 224 1507 224 1361 138.5 c 128,-1,61
 1215 53 1215 53 1084 53 c 0,62,0
 923 53 923 53 923 194 c 0,1,2
875 233 m 128,-1,64
 932 314 932 314 991 482 c 1,65,-1
 1071 754 l 1,66,67
 1073 776 1073 776 1073 789 c 0,68,69
 1073 907 1073 907 995 907 c 0,70,71
 926 907 926 907 849 816 c 128,-1,72
 772 725 772 725 720.5 584.5 c 128,-1,73
 669 444 669 444 669 305 c 0,74,75
 669 226 669 226 689 189 c 128,-1,76
 709 152 709 152 752 152 c 0,77,63
 818 152 818 152 875 233 c 128,-1,64
EndSplineSet
Substitution2: "'case' Case-Sensitive Forms lookup 25 subtable" at.case
Substitution2: "'smcp' Lowercase to Small Capitals lookup 24 subtable" at.smcp
Substitution2: "'c2sc' Capitals to Small Capitals lookup 23 subtable" at.smcp
AlternateSubs2: "'aalt' Access All Alternates lookup 1 subtable" at.smcp at.case
EndChar
StartChar: A
Encoding: 65 65 2
Width: 1337
GlyphClass: 2
Flags: W
AnchorPoint: "Anchor-5" 0 0 basechar 0
AnchorPoint: "Anchor-4" 953 1450 basechar 0
AnchorPoint: "Anchor-3" 1107 0 basechar 0
LayerCount: 2
Back
Fore
SplineSet
1127.5 74 m 128,-1,1
 1157 43 1157 43 1193 41 c 1,2,-1
 1185 0 l 1,3,4
 1080 6 1080 6 888 6 c 0,5,6
 679 6 679 6 580 0 c 1,7,-1
 589 41 l 1,8,9
 655 44 655 44 692.5 56.5 c 128,-1,10
 730 69 730 69 748 100 c 128,-1,11
 766 131 766 131 766 190 c 2,12,-1
 765 213 l 1,13,-1
 747 549 l 1,14,-1
 304 549 l 1,15,-1
 123 294 l 2,16,17
 58 202 58 202 58 143 c 0,18,19
 58 51 58 51 229 41 c 1,20,-1
 220 0 l 1,21,22
 48 6 48 6 -48 6 c 0,23,24
 -125 6 -125 6 -189 0 c 1,25,-1
 -180 41 l 1,26,27
 -127 55 -127 55 -76.5 102 c 128,-1,28
 -26 149 -26 149 52 258 c 2,29,-1
 906 1460 l 1,30,31
 940 1458 940 1458 959 1458 c 0,32,33
 980 1458 980 1458 1010 1460 c 1,34,-1
 1092 172 l 2,35,0
 1098 105 1098 105 1127.5 74 c 128,-1,1
715 1131 m 1,36,-1
 333 590 l 1,37,-1
 745 590 l 1,38,-1
 715 1131 l 1,36,-1
EndSplineSet
Substitution2: "Single Substitution lookup 29 subtable" ordfeminine
Substitution2: "'c2sc' Capitals to Small Capitals lookup 23 subtable" a.smcp
AlternateSubs2: "'aalt' Access All Alternates lookup 1 subtable" ordfeminine a.smcp
Position2: "'cpsp' Capital Spacing lookup 0 subtable" dx=20 dy=0 dh=20 dv=0
EndChar
StartChar: B
Encoding: 66 66 13
Width: 1390
GlyphClass: 2
Flags: W
AnchorPoint: "Anchor-5" 0 0 basechar 0
AnchorPoint: "Anchor-4" 893 1450 basechar 0
AnchorPoint: "Anchor-3" 0 0 basechar 0
LayerCount: 2
Back
Fore
SplineSet
1056.5 711.5 m 128,-1,1
 1160 669 1160 669 1212 599.5 c 128,-1,2
 1264 530 1264 530 1264 443 c 0,3,4
 1264 302 1264 302 1177.5 202 c 128,-1,5
 1091 102 1091 102 938.5 51 c 128,-1,6
 786 0 786 0 590 0 c 0,7,8
 561 0 561 0 471 2 c 0,9,10
 343 6 343 6 231 6 c 0,11,12
 26 6 26 6 -86 0 c 1,13,-1
 -78 41 l 1,14,15
 -4 44 -4 44 32.5 57 c 128,-1,16
 69 70 69 70 91 105 c 128,-1,17
 113 140 113 140 133 217 c 2,18,-1
 403 1233 l 2,19,20
 421 1298 421 1298 421 1332 c 0,21,22
 421 1372 421 1372 391 1390 c 128,-1,23
 361 1408 361 1408 283 1409 c 1,24,-1
 293 1450 l 1,25,26
 401 1444 401 1444 604 1444 c 0,27,28
 675 1444 675 1444 777 1446 c 0,29,30
 863 1448 863 1448 903 1448 c 0,31,32
 1134 1448 1134 1448 1244 1377 c 128,-1,33
 1354 1306 1354 1306 1354 1177 c 0,34,35
 1354 1071 1354 1071 1285 982.5 c 128,-1,36
 1216 894 1216 894 1091 836 c 128,-1,37
 966 778 966 778 803 761 c 1,38,0
 953 754 953 754 1056.5 711.5 c 128,-1,1
807.5 1397 m 128,-1,40
 783 1385 783 1385 767 1354.5 c 128,-1,41
 751 1324 751 1324 735 1264 c 2,42,-1
 605 770 l 1,43,-1
 677 770 l 2,44,45
 786 770 786 770 867 831.5 c 128,-1,46
 948 893 948 893 990 994 c 128,-1,47
 1032 1095 1032 1095 1032 1210 c 0,48,49
 1032 1307 1032 1307 996.5 1358 c 128,-1,50
 961 1409 961 1409 875 1409 c 0,51,39
 832 1409 832 1409 807.5 1397 c 128,-1,40
747.5 105 m 128,-1,53
 834 163 834 163 878 261.5 c 128,-1,54
 922 360 922 360 922 480 c 0,55,56
 922 597 922 597 865.5 666 c 128,-1,57
 809 735 809 735 686 735 c 2,58,-1
 596 735 l 1,59,-1
 459 217 l 2,60,61
 442 151 442 151 442 123 c 0,62,63
 442 86 442 86 464 66.5 c 128,-1,64
 486 47 486 47 540 47 c 0,65,52
 661 47 661 47 747.5 105 c 128,-1,53
EndSplineSet
Substitution2: "'c2sc' Capitals to Small Capitals lookup 23 subtable" b.smcp
Substitution2: "'aalt' Access All Alternates lookup 0 subtable" b.smcp
Position2: "'cpsp' Capital Spacing lookup 0 subtable" dx=20 dy=0 dh=20 dv=0
EndChar
StartChar: C
Encoding: 67 67 14
Width: 1419
GlyphClass: 2
Flags: W
AnchorPoint: "Anchor-5" 649 0 basechar 0
AnchorPoint: "Anchor-4" 1025 1450 basechar 0
AnchorPoint: "Anchor-3" 0 0 basechar 0
LayerCount: 2
Back
Fore
SplineSet
1395 979 m 1,1,-1
 1350 979 l 1,2,3
 1366 1077 1366 1077 1366 1142 c 0,4,5
 1366 1236 1366 1236 1333 1296 c 0,6,7
 1260 1430 1260 1430 1091 1430 c 0,8,9
 926 1430 926 1430 778 1285.5 c 128,-1,10
 630 1141 630 1141 540.5 910.5 c 128,-1,11
 451 680 451 680 451 438 c 0,12,13
 451 235 451 235 524.5 134 c 128,-1,14
 598 33 598 33 729 33 c 0,15,16
 807 33 807 33 890 69 c 128,-1,17
 973 105 973 105 1034 168 c 0,18,19
 1087 223 1087 223 1127 294.5 c 128,-1,20
 1167 366 1167 366 1219 492 c 1,21,-1
 1264 492 l 1,22,23
 1167 137 1167 137 1143 0 c 1,24,-1
 1098 0 l 1,25,26
 1104 44 1104 44 1104 70 c 0,27,28
 1104 122 1104 122 1079 122 c 0,29,30
 1063 122 1063 122 1037 104 c 0,31,32
 942 40 942 40 848 5.5 c 128,-1,33
 754 -29 754 -29 636 -29 c 0,34,35
 362 -29 362 -29 224 101.5 c 128,-1,36
 86 232 86 232 86 478 c 0,37,38
 86 720 86 720 214.5 952.5 c 128,-1,39
 343 1185 343 1185 568 1332 c 128,-1,40
 793 1479 793 1479 1066 1479 c 0,41,42
 1145 1479 1145 1479 1201.5 1461 c 128,-1,43
 1258 1443 1258 1443 1295.5 1415 c 128,-1,44
 1333 1387 1333 1387 1370 1346 c 0,45,46
 1385 1328 1385 1328 1400 1328 c 0,47,48
 1437 1328 1437 1328 1483 1450 c 1,49,-1
 1526 1450 l 1,50,0
 1458 1273 1458 1273 1395 979 c 1,1,-1
EndSplineSet
Substitution2: "'c2sc' Capitals to Small Capitals lookup 23 subtable" c.smcp
Substitution2: "'aalt' Access All Alternates lookup 0 subtable" c.smcp
Position2: "'cpsp' Capital Spacing lookup 0 subtable" dx=20 dy=0 dh=20 dv=0
EndChar
StartChar: D
Encoding: 68 68 20
Width: 1579
GlyphClass: 2
Flags: W
AnchorPoint: "Anchor-5" 0 0 basechar 0
AnchorPoint: "Anchor-4" 910 1450 basechar 0
AnchorPoint: "Anchor-3" 0 0 basechar 0
LayerCount: 2
Back
Fore
SplineSet
1434 504.5 m 128,-1,1
 1319 283 1319 283 1090.5 141.5 c 128,-1,2
 862 0 862 0 539 0 c 0,3,4
 519 0 519 0 437 2 c 0,5,6
 323 6 323 6 230 6 c 0,7,8
 28 6 28 6 -77 0 c 1,9,-1
 -71 41 l 1,10,11
 -1 44 -1 44 34.5 57 c 128,-1,12
 70 70 70 70 92 105.5 c 128,-1,13
 114 141 114 141 134 217 c 2,14,-1
 402 1233 l 2,15,16
 417 1291 417 1291 417 1321 c 0,17,18
 417 1364 417 1364 387.5 1384.5 c 128,-1,19
 358 1405 358 1405 283 1409 c 1,20,-1
 289 1450 l 1,21,22
 431 1443 431 1443 560 1443 c 2,23,-1
 625 1444 l 2,24,25
 841 1450 841 1450 931 1450 c 0,26,27
 1230 1450 1230 1450 1389.5 1326 c 128,-1,28
 1549 1202 1549 1202 1549 961 c 0,29,0
 1549 726 1549 726 1434 504.5 c 128,-1,1
902 182 m 128,-1,31
 1056 327 1056 327 1136.5 555 c 128,-1,32
 1217 783 1217 783 1217 1025 c 0,33,34
 1217 1219 1217 1219 1137.5 1316 c 128,-1,35
 1058 1413 1058 1413 886 1413 c 0,36,37
 833 1413 833 1413 806.5 1400 c 128,-1,38
 780 1387 780 1387 764.5 1352.5 c 128,-1,39
 749 1318 749 1318 727 1237 c 2,40,-1
 459 213 l 2,41,42
 437 130 437 130 437 100 c 0,43,44
 437 65 437 65 459.5 51 c 128,-1,45
 482 37 482 37 539 37 c 0,46,30
 748 37 748 37 902 182 c 128,-1,31
EndSplineSet
Substitution2: "'c2sc' Capitals to Small Capitals lookup 23 subtable" d.smcp
Substitution2: "'aalt' Access All Alternates lookup 0 subtable" d.smcp
Position2: "'cpsp' Capital Spacing lookup 0 subtable" dx=20 dy=0 dh=20 dv=0
EndChar
StartChar: E
Encoding: 69 69 24
Width: 1282
GlyphClass: 2
Flags: W
AnchorPoint: "Anchor-5" 560 0 basechar 0
AnchorPoint: "Anchor-4" 870 1450 basechar 0
AnchorPoint: "Anchor-3" 1019 0 basechar 0
LayerCount: 2
Back
Fore
SplineSet
1375 1450 m 1,1,2
 1325 1316 1325 1316 1297 1208 c 0,3,4
 1280 1142 1280 1142 1270 1081 c 1,5,-1
 1224 1081 l 1,6,7
 1227 1122 1227 1122 1227 1156 c 0,8,9
 1227 1249 1227 1249 1204.5 1302.5 c 128,-1,10
 1182 1356 1182 1356 1133 1379.5 c 128,-1,11
 1084 1403 1084 1403 1000 1403 c 2,12,-1
 936 1403 l 2,13,14
 864 1403 864 1403 828.5 1391 c 128,-1,15
 793 1379 793 1379 771.5 1344.5 c 128,-1,16
 750 1310 750 1310 729 1233 c 2,17,-1
 600 750 l 1,18,-1
 676 750 l 2,19,20
 778 750 778 750 847 821.5 c 128,-1,21
 916 893 916 893 957 995 c 1,22,-1
 1003 995 l 1,23,24
 970 896 970 896 940 778 c 2,25,-1
 927 729 l 2,26,27
 902 636 902 636 869 463 c 1,28,-1
 823 463 l 1,29,30
 825 493 825 493 825 508 c 0,31,32
 825 709 825 709 654 709 c 2,33,-1
 589 709 l 1,34,-1
 458 217 l 2,35,36
 440 153 440 153 440 118 c 0,37,38
 440 88 440 88 453.5 73 c 128,-1,39
 467 58 467 58 495.5 52.5 c 128,-1,40
 524 47 524 47 576 47 c 2,41,-1
 652 47 l 2,42,43
 763 47 763 47 838.5 81 c 128,-1,44
 914 115 914 115 973 192.5 c 128,-1,45
 1032 270 1032 270 1094 410 c 1,46,-1
 1140 410 l 1,47,48
 1118 352 1118 352 1096 262 c 0,49,50
 1062 138 1062 138 1042 0 c 1,51,52
 903 6 903 6 577 6 c 0,53,54
 134 6 134 6 -88 0 c 1,55,-1
 -79 41 l 1,56,57
 -5 44 -5 44 32 57 c 128,-1,58
 69 70 69 70 90.5 105 c 128,-1,59
 112 140 112 140 132 217 c 2,60,-1
 403 1233 l 2,61,62
 421 1303 421 1303 421 1332 c 0,63,64
 421 1362 421 1362 407 1378 c 128,-1,65
 393 1394 393 1394 364.5 1400.5 c 128,-1,66
 336 1407 336 1407 283 1409 c 1,67,-1
 294 1450 l 1,68,69
 515 1444 515 1444 958 1444 c 0,70,0
 1249 1444 1249 1444 1375 1450 c 1,1,2
EndSplineSet
Substitution2: "'c2sc' Capitals to Small Capitals lookup 23 subtable" e.smcp
Substitution2: "'aalt' Access All Alternates lookup 0 subtable" e.smcp
Position2: "'cpsp' Capital Spacing lookup 0 subtable" dx=20 dy=0 dh=20 dv=0
EndChar
StartChar: F
Encoding: 70 70 34
Width: 1205
GlyphClass: 2
Flags: W
LayerCount: 2
Back
Fore
SplineSet
1375 1450 m 1,1,2
 1326 1317 1326 1317 1295 1200 c 0,3,4
 1265 1096 1265 1096 1251 1020 c 1,5,-1
 1205 1020 l 1,6,7
 1213 1094 1213 1094 1213 1143 c 0,8,9
 1213 1239 1213 1239 1187.5 1296 c 128,-1,10
 1162 1353 1162 1353 1109.5 1378 c 128,-1,11
 1057 1403 1057 1403 971 1403 c 2,12,-1
 924 1403 l 2,13,14
 856 1403 856 1403 822.5 1391 c 128,-1,15
 789 1379 789 1379 768.5 1344.5 c 128,-1,16
 748 1310 748 1310 729 1233 c 2,17,-1
 598 741 l 1,18,-1
 692 741 l 2,19,20
 792 741 792 741 858.5 809 c 128,-1,21
 925 877 925 877 972 987 c 1,22,-1
 1018 987 l 1,23,24
 983 879 983 879 950 749 c 2,25,-1
 943 721 l 2,26,27
 913 597 913 597 879 418 c 1,28,-1
 833 418 l 1,29,30
 834 434 834 434 834 464 c 0,31,32
 834 579 834 579 798 639.5 c 128,-1,33
 762 700 762 700 671 700 c 2,34,-1
 587 700 l 1,35,-1
 458 217 l 2,36,37
 442 156 442 156 442 127 c 0,38,39
 442 93 442 93 459.5 75 c 128,-1,40
 477 57 477 57 513.5 50 c 128,-1,41
 550 43 550 43 619 41 c 1,42,-1
 610 0 l 1,43,44
 484 6 484 6 245 6 c 0,45,46
 20 6 20 6 -88 0 c 1,47,-1
 -79 41 l 1,48,49
 -5 44 -5 44 32 57 c 128,-1,50
 69 70 69 70 90.5 105 c 128,-1,51
 112 140 112 140 132 217 c 2,52,-1
 403 1233 l 2,53,54
 421 1303 421 1303 421 1332 c 0,55,56
 421 1362 421 1362 407 1378 c 128,-1,57
 393 1394 393 1394 364.5 1400.5 c 128,-1,58
 336 1407 336 1407 283 1409 c 1,59,-1
 294 1450 l 1,60,61
 515 1444 515 1444 958 1444 c 0,62,0
 1249 1444 1249 1444 1375 1450 c 1,1,2
EndSplineSet
Substitution2: "'c2sc' Capitals to Small Capitals lookup 23 subtable" f.smcp
Substitution2: "'aalt' Access All Alternates lookup 0 subtable" f.smcp
Position2: "'cpsp' Capital Spacing lookup 0 subtable" dx=20 dy=0 dh=20 dv=0
EndChar
StartChar: G
Encoding: 71 71 35
Width: 1513
GlyphClass: 2
Flags: W
AnchorPoint: "Anchor-5" 684 0 basechar 0
AnchorPoint: "Anchor-4" 1049 1450 basechar 0
AnchorPoint: "Anchor-3" 0 0 basechar 0
LayerCount: 2
Back
Fore
SplineSet
781.5 24 m 128,-1,1
 824 36 824 36 853 55 c 0,2,3
 887 77 887 77 903.5 109.5 c 128,-1,4
 920 142 920 142 937 205 c 2,5,-1
 984 385 l 2,6,7
 1002 453 1002 453 1002 491 c 0,8,9
 1002 527 1002 527 985 545.5 c 128,-1,10
 968 564 968 564 932.5 571.5 c 128,-1,11
 897 579 897 579 830 582 c 1,12,-1
 841 623 l 1,13,14
 959 616 959 616 1189 616 c 0,15,16
 1388 616 1388 616 1478 623 c 1,17,-1
 1467 582 l 1,18,19
 1418 578 1418 578 1394 565.5 c 128,-1,20
 1370 553 1370 553 1353.5 519 c 128,-1,21
 1337 485 1337 485 1316 406 c 2,22,-1
 1207 0 l 1,23,-1
 1166 0 l 1,24,25
 1167 9 1167 9 1167 25 c 0,26,27
 1167 68 1167 68 1152.5 92.5 c 128,-1,28
 1138 117 1138 117 1109 117 c 0,29,30
 1079 117 1079 117 1046.5 104 c 128,-1,31
 1014 91 1014 91 964 65 c 2,32,-1
 936 51 l 1,33,34
 786 -29 786 -29 640 -29 c 0,35,36
 463 -29 463 -29 336.5 26 c 128,-1,37
 210 81 210 81 143.5 186 c 128,-1,38
 77 291 77 291 77 440 c 0,39,40
 77 677 77 677 204 919.5 c 128,-1,41
 331 1162 331 1162 556 1320.5 c 128,-1,42
 781 1479 781 1479 1060 1479 c 0,43,44
 1144 1479 1144 1479 1205 1462 c 128,-1,45
 1266 1445 1266 1445 1309 1417 c 128,-1,46
 1352 1389 1352 1389 1396 1346 c 0,47,48
 1415 1327 1415 1327 1431 1327 c 0,49,50
 1470 1327 1470 1327 1512 1450 c 1,51,-1
 1558 1450 l 1,52,53
 1491 1275 1491 1275 1426 979 c 1,54,-1
 1381 979 l 1,55,56
 1392 1062 1392 1062 1392 1133 c 0,57,58
 1392 1225 1392 1225 1363 1282 c 0,59,60
 1322 1359 1322 1359 1240.5 1400.5 c 128,-1,61
 1159 1442 1159 1442 1048 1442 c 0,62,63
 852 1442 852 1442 705 1264 c 128,-1,64
 558 1086 558 1086 480 833.5 c 128,-1,65
 402 581 402 581 402 373 c 0,66,67
 402 189 402 189 474.5 100.5 c 128,-1,68
 547 12 547 12 695 12 c 0,69,0
 739 12 739 12 781.5 24 c 128,-1,1
EndSplineSet
Substitution2: "'c2sc' Capitals to Small Capitals lookup 23 subtable" g.smcp
Substitution2: "'aalt' Access All Alternates lookup 0 subtable" g.smcp
Position2: "'cpsp' Capital Spacing lookup 0 subtable" dx=20 dy=0 dh=20 dv=0
EndChar
StartChar: H
Encoding: 72 72 41
Width: 1658
GlyphClass: 2
Flags: W
AnchorPoint: "Anchor-5" 0 0 basechar 0
AnchorPoint: "Anchor-4" 1054 1450 basechar 0
AnchorPoint: "Anchor-3" 0 0 basechar 0
LayerCount: 2
Back
Fore
SplineSet
1810 1450 m 1,1,-1
 1799 1409 l 1,2,3
 1724 1406 1724 1406 1687.5 1393 c 128,-1,4
 1651 1380 1651 1380 1629.5 1345 c 128,-1,5
 1608 1310 1608 1310 1588 1233 c 2,6,-1
 1318 217 l 2,7,8
 1301 151 1301 151 1301 118 c 0,9,10
 1301 88 1301 88 1314.5 72 c 128,-1,11
 1328 56 1328 56 1357 49.5 c 128,-1,12
 1386 43 1386 43 1439 41 c 1,13,-1
 1431 0 l 1,14,15
 1323 6 1323 6 1095 6 c 0,16,17
 887 6 887 6 773 0 c 1,18,-1
 782 41 l 1,19,20
 856 44 856 44 892.5 57 c 128,-1,21
 929 70 929 70 950.5 105 c 128,-1,22
 972 140 972 140 992 217 c 2,23,-1
 1123 709 l 1,24,-1
 589 709 l 1,25,-1
 458 217 l 2,26,27
 441 151 441 151 441 118 c 0,28,29
 441 88 441 88 454.5 72 c 128,-1,30
 468 56 468 56 497 49.5 c 128,-1,31
 526 43 526 43 579 41 c 1,32,-1
 571 0 l 1,33,34
 457 6 457 6 249 6 c 0,35,36
 26 6 26 6 -85 0 c 1,37,-1
 -75 41 l 1,38,39
 -4 44 -4 44 32 57 c 128,-1,40
 68 70 68 70 90 105.5 c 128,-1,41
 112 141 112 141 132 217 c 2,42,-1
 403 1233 l 2,43,44
 420 1298 420 1298 420 1331 c 0,45,46
 420 1362 420 1362 406 1378 c 128,-1,47
 392 1394 392 1394 363.5 1400.5 c 128,-1,48
 335 1407 335 1407 282 1409 c 1,49,-1
 292 1450 l 1,50,51
 397 1444 397 1444 626 1444 c 0,52,53
 823 1444 823 1444 949 1450 c 1,54,-1
 939 1409 l 1,55,56
 864 1406 864 1406 827.5 1393 c 128,-1,57
 791 1380 791 1380 769.5 1345 c 128,-1,58
 748 1310 748 1310 728 1233 c 2,59,-1
 600 750 l 1,60,-1
 1134 750 l 1,61,-1
 1263 1233 l 2,62,63
 1281 1296 1281 1296 1281 1331 c 0,64,65
 1281 1362 1281 1362 1267 1378 c 128,-1,66
 1253 1394 1253 1394 1224 1400.5 c 128,-1,67
 1195 1407 1195 1407 1142 1409 c 1,68,-1
 1152 1450 l 1,69,70
 1263 1444 1263 1444 1472 1444 c 0,71,0
 1697 1444 1697 1444 1810 1450 c 1,1,-1
EndSplineSet
Substitution2: "'c2sc' Capitals to Small Capitals lookup 23 subtable" h.smcp
Substitution2: "'aalt' Access All Alternates lookup 0 subtable" h.smcp
Position2: "'cpsp' Capital Spacing lookup 0 subtable" dx=20 dy=0 dh=20 dv=0
EndChar
StartChar: I
Encoding: 73 73 44
Width: 798
GlyphClass: 2
Flags: W
AnchorPoint: "Anchor-5" 237 0 basechar 0
AnchorPoint: "Anchor-4" 667 1450 basechar 0
AnchorPoint: "Anchor-3" 547 0 basechar 0
LayerCount: 2
Back
Fore
SplineSet
441 118 m 0,1,2
 441 88 441 88 454.5 72 c 128,-1,3
 468 56 468 56 497 49.5 c 128,-1,4
 526 43 526 43 579 41 c 1,5,-1
 571 0 l 1,6,7
 453 6 453 6 237 6 c 0,8,9
 23 6 23 6 -85 0 c 1,10,-1
 -75 41 l 1,11,12
 -4 44 -4 44 32 57 c 128,-1,13
 68 70 68 70 90 105.5 c 128,-1,14
 112 141 112 141 132 217 c 2,15,-1
 403 1233 l 2,16,17
 420 1298 420 1298 420 1331 c 0,18,19
 420 1362 420 1362 406 1378 c 128,-1,20
 392 1394 392 1394 363.5 1400.5 c 128,-1,21
 335 1407 335 1407 282 1409 c 1,22,-1
 292 1450 l 1,23,24
 394 1444 394 1444 614 1444 c 0,25,26
 819 1444 819 1444 949 1450 c 1,27,-1
 939 1409 l 1,28,29
 864 1406 864 1406 827.5 1393 c 128,-1,30
 791 1380 791 1380 769.5 1345 c 128,-1,31
 748 1310 748 1310 728 1233 c 2,32,-1
 458 217 l 2,33,0
 441 151 441 151 441 118 c 0,1,2
EndSplineSet
Substitution2: "'c2sc' Capitals to Small Capitals lookup 23 subtable" i.smcp
Substitution2: "'aalt' Access All Alternates lookup 0 subtable" i.smcp
Position2: "'cpsp' Capital Spacing lookup 0 subtable" dx=20 dy=0 dh=20 dv=0
EndChar
StartChar: J
Encoding: 74 74 55
Width: 1400
GlyphClass: 2
Flags: W
AnchorPoint: "Anchor-5" 0 0 basechar 0
AnchorPoint: "Anchor-4" 1074 1450 basechar 0
AnchorPoint: "Anchor-3" 0 0 basechar 0
LayerCount: 2
Back
Fore
SplineSet
1612 1470 m 0,1,2
 1612 1420 1612 1420 1462 1364 c 1,3,4
 1340 1267 1340 1267 1256 1114 c 128,-1,5
 1172 961 1172 961 1109 750 c 1,6,-1
 1313 750 l 1,7,-1
 1306 709 l 1,8,-1
 1097 709 l 1,9,10
 1089 683 1089 683 1075 629 c 2,11,-1
 948 133 l 2,12,13
 888 -100 888 -100 740.5 -242.5 c 128,-1,14
 593 -385 593 -385 341 -385 c 0,15,16
 211 -385 211 -385 132.5 -347 c 128,-1,17
 54 -309 54 -309 54 -229 c 0,18,19
 54 -186 54 -186 75 -151 c 128,-1,20
 96 -116 96 -116 135 -95.5 c 128,-1,21
 174 -75 174 -75 227 -75 c 0,22,23
 296 -75 296 -75 340.5 -108 c 128,-1,24
 385 -141 385 -141 386 -198 c 0,25,26
 386 -296 386 -296 273 -344 c 1,27,28
 301 -351 301 -351 330 -351 c 0,29,30
 405 -351 405 -351 453.5 -296.5 c 128,-1,31
 502 -242 502 -242 534 -153 c 128,-1,32
 566 -64 566 -64 613 111 c 2,33,-1
 622 143 l 1,34,-1
 731 537 l 2,35,36
 756 629 756 629 791 709 c 1,37,-1
 514 709 l 1,38,-1
 520 750 l 1,39,-1
 809 750 l 1,40,41
 870 879 870 879 957 980.5 c 128,-1,42
 1044 1082 1044 1082 1147.5 1163.5 c 128,-1,43
 1251 1245 1251 1245 1400 1342 c 1,44,45
 1323 1316 1323 1316 1201 1256 c 0,46,47
 1135 1223 1135 1223 1090.5 1204.5 c 128,-1,48
 1046 1186 1046 1186 993 1173.5 c 128,-1,49
 940 1161 940 1161 880 1161 c 0,50,51
 819 1161 819 1161 765.5 1175 c 128,-1,52
 712 1189 712 1189 639 1216 c 0,53,54
 576 1240 576 1240 531.5 1252 c 128,-1,55
 487 1264 487 1264 441 1264 c 0,56,57
 384 1264 384 1264 350.5 1234.5 c 128,-1,58
 317 1205 317 1205 317 1149 c 0,59,60
 317 1010 317 1010 547 989 c 1,61,-1
 543 950 l 1,62,63
 381 963 381 963 284 1036.5 c 128,-1,64
 187 1110 187 1110 186 1241 c 0,65,66
 184 1322 184 1322 217 1383.5 c 128,-1,67
 250 1445 250 1445 315.5 1479 c 128,-1,68
 381 1513 381 1513 476 1513 c 0,69,70
 538 1513 538 1513 590.5 1499 c 128,-1,71
 643 1485 643 1485 685.5 1464.5 c 128,-1,72
 728 1444 728 1444 785 1410 c 0,73,74
 846 1375 846 1375 887 1355 c 128,-1,75
 928 1335 928 1335 981.5 1321 c 128,-1,76
 1035 1307 1035 1307 1097 1307 c 0,77,78
 1276 1307 1276 1307 1444 1386 c 1,79,80
 1521 1506 1521 1506 1571 1506 c 0,81,82
 1585 1506 1585 1506 1599 1495 c 0,83,0
 1612 1484 1612 1484 1612 1470 c 0,1,2
EndSplineSet
Substitution2: "'c2sc' Capitals to Small Capitals lookup 23 subtable" j.smcp
Substitution2: "'aalt' Access All Alternates lookup 0 subtable" j.smcp
Position2: "'cpsp' Capital Spacing lookup 0 subtable" dx=20 dy=0 dh=20 dv=0
EndChar
StartChar: K
Encoding: 75 75 57
Width: 1515
GlyphClass: 2
Flags: W
AnchorPoint: "Anchor-5" 604 0 basechar 0
AnchorPoint: "Anchor-4" 934 1450 basechar 0
AnchorPoint: "Anchor-3" 0 0 basechar 0
LayerCount: 2
Back
Fore
SplineSet
1535.5 1428.5 m 128,-1,1
 1588 1378 1588 1378 1588 1297 c 0,2,3
 1588 1249 1588 1249 1566.5 1202 c 128,-1,4
 1545 1155 1545 1155 1503 1124 c 128,-1,5
 1461 1093 1461 1093 1402 1093 c 256,6,7
 1343 1093 1343 1093 1304 1129.5 c 128,-1,8
 1265 1166 1265 1166 1265 1228 c 0,9,10
 1265 1289 1265 1289 1307 1346.5 c 128,-1,11
 1349 1404 1349 1404 1418 1434 c 1,12,13
 1404 1441 1404 1441 1384 1441 c 0,14,15
 1349 1440 1349 1440 1325 1429 c 128,-1,16
 1301 1418 1301 1418 1279 1395 c 0,17,18
 1246 1358 1246 1358 1223 1302.5 c 128,-1,19
 1200 1247 1200 1247 1169 1150 c 0,20,21
 1134 1037 1134 1037 1103.5 966 c 128,-1,22
 1073 895 1073 895 1020 837.5 c 128,-1,23
 967 780 967 780 886 762 c 1,24,25
 993 750 993 750 1056.5 719 c 128,-1,26
 1120 688 1120 688 1149 632.5 c 128,-1,27
 1178 577 1178 577 1178 488 c 0,28,29
 1178 448 1178 448 1174 411 c 2,30,-1
 1151 196 l 2,31,32
 1150 191 1150 191 1150 181 c 0,33,34
 1150 121 1150 121 1203 121 c 0,35,36
 1241 121 1241 121 1267.5 151 c 128,-1,37
 1294 181 1294 181 1316 244 c 2,38,-1
 1351 348 l 1,39,-1
 1392 348 l 1,40,-1
 1339 190 l 2,41,42
 1301 80 1301 80 1229.5 25.5 c 128,-1,43
 1158 -29 1158 -29 1064 -29 c 0,44,45
 950 -29 950 -29 888.5 27.5 c 128,-1,46
 827 84 827 84 827 182 c 0,47,48
 827 196 827 196 831 230 c 2,49,-1
 871 517 l 2,50,51
 876 557 876 557 876 600 c 0,52,53
 876 652 876 652 864 683 c 128,-1,54
 852 714 852 714 824 735 c 1,55,56
 740 713 740 713 699 713 c 0,57,58
 647 713 647 713 647 746 c 0,59,60
 647 753 647 753 648 756 c 0,61,62
 651 777 651 777 664.5 787 c 128,-1,63
 678 797 678 797 707 797 c 0,64,65
 750 797 750 797 826 776 c 1,66,67
 918 789 918 789 976 845 c 128,-1,68
 1034 901 1034 901 1065.5 973.5 c 128,-1,69
 1097 1046 1097 1046 1131 1161 c 0,70,71
 1162 1264 1162 1264 1186 1322 c 128,-1,72
 1210 1380 1210 1380 1248 1419 c 0,73,74
 1309 1479 1309 1479 1395 1479 c 0,75,0
 1483 1479 1483 1479 1535.5 1428.5 c 128,-1,1
441 118 m 0,77,78
 441 88 441 88 454.5 72 c 128,-1,79
 468 56 468 56 497 49.5 c 128,-1,80
 526 43 526 43 579 41 c 1,81,-1
 571 0 l 1,82,83
 457 6 457 6 249 6 c 0,84,85
 26 6 26 6 -85 0 c 1,86,-1
 -75 41 l 1,87,88
 -4 44 -4 44 32 57 c 128,-1,89
 68 70 68 70 90 105.5 c 128,-1,90
 112 141 112 141 132 217 c 2,91,-1
 403 1233 l 2,92,93
 420 1298 420 1298 420 1331 c 0,94,95
 420 1362 420 1362 406 1378 c 128,-1,96
 392 1394 392 1394 363.5 1400.5 c 128,-1,97
 335 1407 335 1407 282 1409 c 1,98,-1
 292 1450 l 1,99,100
 397 1444 397 1444 626 1444 c 0,101,102
 823 1444 823 1444 949 1450 c 1,103,-1
 939 1409 l 1,104,105
 864 1406 864 1406 827.5 1393 c 128,-1,106
 791 1380 791 1380 769.5 1345 c 128,-1,107
 748 1310 748 1310 728 1233 c 2,108,-1
 458 217 l 2,109,76
 441 151 441 151 441 118 c 0,77,78
EndSplineSet
Substitution2: "'c2sc' Capitals to Small Capitals lookup 23 subtable" k.smcp
Substitution2: "'aalt' Access All Alternates lookup 0 subtable" k.smcp
Position2: "'cpsp' Capital Spacing lookup 0 subtable" dx=20 dy=0 dh=20 dv=0
EndChar
StartChar: L
Encoding: 76 76 59
Width: 1238
GlyphClass: 2
Flags: W
AnchorPoint: "Anchor-5" 584 0 basechar 0
AnchorPoint: "Anchor-4" 631 1450 basechar 0
AnchorPoint: "Anchor-3" 0 0 basechar 0
LayerCount: 2
Back
Fore
SplineSet
1101 262 m 0,1,2
 1067 138 1067 138 1047 0 c 1,3,4
 908 6 908 6 582 6 c 0,5,6
 134 6 134 6 -88 0 c 1,7,-1
 -79 41 l 1,8,9
 -5 44 -5 44 32 57 c 128,-1,10
 69 70 69 70 90.5 105 c 128,-1,11
 112 140 112 140 132 217 c 2,12,-1
 403 1233 l 2,13,14
 421 1303 421 1303 421 1332 c 0,15,16
 421 1362 421 1362 407 1378 c 128,-1,17
 393 1394 393 1394 364.5 1400.5 c 128,-1,18
 336 1407 336 1407 283 1409 c 1,19,-1
 294 1450 l 1,20,21
 400 1444 400 1444 631 1444 c 0,22,23
 825 1444 825 1444 950 1450 c 1,24,-1
 940 1409 l 1,25,26
 865 1406 865 1406 828.5 1393 c 128,-1,27
 792 1380 792 1380 770.5 1345 c 128,-1,28
 749 1310 749 1310 728 1233 c 2,29,-1
 457 217 l 2,30,31
 439 153 439 153 439 117 c 0,32,33
 439 88 439 88 452.5 73 c 128,-1,34
 466 58 466 58 494.5 52.5 c 128,-1,35
 523 47 523 47 575 47 c 2,36,-1
 657 47 l 2,37,38
 803 47 803 47 913.5 136 c 128,-1,39
 1024 225 1024 225 1105 430 c 1,40,-1
 1151 430 l 1,41,0
 1129 371 1129 371 1101 262 c 0,1,2
EndSplineSet
Substitution2: "'c2sc' Capitals to Small Capitals lookup 23 subtable" l.smcp
Substitution2: "'aalt' Access All Alternates lookup 0 subtable" l.smcp
Position2: "'cpsp' Capital Spacing lookup 0 subtable" dx=20 dy=0 dh=20 dv=0
EndChar
StartChar: M
Encoding: 77 77 65
Width: 1877
GlyphClass: 2
Flags: W
LayerCount: 2
Back
Fore
SplineSet
2029 1450 m 1,1,-1
 2019 1409 l 1,2,3
 1944 1406 1944 1406 1907 1393 c 128,-1,4
 1870 1380 1870 1380 1849 1345 c 128,-1,5
 1828 1310 1828 1310 1808 1233 c 2,6,-1
 1537 217 l 2,7,8
 1520 152 1520 152 1520 119 c 0,9,10
 1520 88 1520 88 1534 72 c 128,-1,11
 1548 56 1548 56 1576.5 49.5 c 128,-1,12
 1605 43 1605 43 1658 41 c 1,13,-1
 1650 0 l 1,14,15
 1521 6 1521 6 1322 6 c 0,16,17
 1099 6 1099 6 995 0 c 1,18,-1
 1003 41 l 1,19,20
 1078 44 1078 44 1114.5 57 c 128,-1,21
 1151 70 1151 70 1172.5 105 c 128,-1,22
 1194 140 1194 140 1214 217 c 2,23,-1
 1511 1321 l 1,24,-1
 661 -10 l 1,25,-1
 616 -10 l 1,26,-1
 451 1246 l 1,27,-1
 192 263 l 2,28,29
 176 204 176 204 176 164 c 0,30,31
 176 106 176 106 214.5 75 c 128,-1,32
 253 44 253 44 346 41 c 1,33,-1
 337 0 l 1,34,35
 265 6 265 6 108 6 c 0,36,37
 -17 6 -17 6 -86 0 c 1,38,-1
 -77 41 l 1,39,40
 -9 44 -9 44 34 71.5 c 128,-1,41
 77 99 77 99 102 145 c 128,-1,42
 127 191 127 191 146 263 c 2,43,-1
 405 1233 l 2,44,45
 422 1298 422 1298 422 1331 c 0,46,47
 422 1362 422 1362 408 1378 c 128,-1,48
 394 1394 394 1394 365.5 1400.5 c 128,-1,49
 337 1407 337 1407 284 1409 c 1,50,-1
 294 1450 l 1,51,52
 389 1444 389 1444 575 1444 c 0,53,54
 683 1444 683 1444 760 1450 c 1,55,-1
 876 404 l 1,56,-1
 1539 1444 l 1,57,-1
 1699 1444 l 2,58,0
 1897 1444 1897 1444 2029 1450 c 1,1,-1
EndSplineSet
Substitution2: "'c2sc' Capitals to Small Capitals lookup 23 subtable" m.smcp
Substitution2: "'aalt' Access All Alternates lookup 0 subtable" m.smcp
Position2: "'cpsp' Capital Spacing lookup 0 subtable" dx=20 dy=0 dh=20 dv=0
EndChar
StartChar: N
Encoding: 78 78 66
Width: 1689
GlyphClass: 2
Flags: W
AnchorPoint: "Anchor-5" 662 0 basechar 0
AnchorPoint: "Anchor-4" 1115 1450 basechar 0
AnchorPoint: "Anchor-3" 0 0 basechar 0
LayerCount: 2
Back
Fore
SplineSet
1821.5 1521 m 128,-1,1
 1865 1498 1865 1498 1887.5 1459 c 128,-1,2
 1910 1420 1910 1420 1910 1371 c 0,3,4
 1910 1319 1910 1319 1886 1276 c 128,-1,5
 1862 1233 1862 1233 1819.5 1208 c 128,-1,6
 1777 1183 1777 1183 1724 1183 c 0,7,8
 1657 1183 1657 1183 1620.5 1217 c 128,-1,9
 1584 1251 1584 1251 1584 1306 c 0,10,11
 1584 1373 1584 1373 1627.5 1425 c 128,-1,12
 1671 1477 1671 1477 1738 1496 c 1,13,14
 1726 1506 1726 1506 1704 1506 c 0,15,16
 1606 1505 1606 1505 1533 1397 c 0,17,18
 1442 1261 1442 1261 1344 920 c 128,-1,19
 1246 579 1246 579 1121 -10 c 1,20,-1
 1076 -10 l 1,21,-1
 568 1102 l 1,22,23
 481 670 481 670 401.5 372 c 128,-1,24
 322 74 322 74 249 -23 c 0,25,26
 202 -83 202 -83 152.5 -117.5 c 128,-1,27
 103 -152 103 -152 29 -152 c 0,28,29
 -32 -152 -32 -152 -75 -129 c 128,-1,30
 -118 -106 -118 -106 -140.5 -66 c 128,-1,31
 -163 -26 -163 -26 -163 23 c 0,32,33
 -163 75 -163 75 -139 118 c 128,-1,34
 -115 161 -115 161 -72.5 185.5 c 128,-1,35
 -30 210 -30 210 23 210 c 0,36,37
 89 210 89 210 126 176 c 128,-1,38
 163 142 163 142 163 87 c 0,39,40
 163 19 163 19 119.5 -32.5 c 128,-1,41
 76 -84 76 -84 9 -104 c 1,42,43
 19 -113 19 -113 42 -113 c 0,44,45
 146 -113 146 -113 216 -2 c 0,46,47
 295 121 295 121 378 441.5 c 128,-1,48
 461 762 461 762 560 1278 c 0,49,50
 564 1302 564 1302 564 1324 c 0,51,52
 564 1358 564 1358 549.5 1375.5 c 128,-1,53
 535 1393 535 1393 502 1400 c 128,-1,54
 469 1407 469 1407 406 1409 c 1,55,-1
 417 1450 l 1,56,57
 481 1444 481 1444 599 1444 c 0,58,59
 694 1444 694 1444 765 1450 c 1,60,-1
 1188 475 l 1,61,62
 1359 1215 1359 1215 1496 1413 c 0,63,64
 1586 1544 1586 1544 1717 1544 c 0,65,0
 1778 1544 1778 1544 1821.5 1521 c 128,-1,1
EndSplineSet
Substitution2: "'c2sc' Capitals to Small Capitals lookup 23 subtable" n.smcp
Substitution2: "'aalt' Access All Alternates lookup 0 subtable" n.smcp
Position2: "'cpsp' Capital Spacing lookup 0 subtable" dx=20 dy=0 dh=20 dv=0
EndChar
StartChar: O
Encoding: 79 79 72
Width: 1591
GlyphClass: 2
Flags: W
AnchorPoint: "Anchor-5" 653 0 basechar 0
AnchorPoint: "Anchor-4" 1061 1450 basechar 0
AnchorPoint: "Anchor-3" 0 0 basechar 0
LayerCount: 2
Back
Fore
SplineSet
203.5 932 m 128,-1,1
 322 1169 322 1169 534 1324 c 128,-1,2
 746 1479 746 1479 1013 1479 c 0,3,4
 1186 1479 1186 1479 1311.5 1421 c 128,-1,5
 1437 1363 1437 1363 1503.5 1252 c 128,-1,6
 1570 1141 1570 1141 1570 985 c 0,7,8
 1570 754 1570 754 1450.5 517.5 c 128,-1,9
 1331 281 1331 281 1118 126 c 128,-1,10
 905 -29 905 -29 640 -29 c 0,11,12
 467 -29 467 -29 342 29 c 128,-1,13
 217 87 217 87 151 197.5 c 128,-1,14
 85 308 85 308 85 463 c 0,15,0
 85 695 85 695 203.5 932 c 128,-1,1
725.5 1294.5 m 128,-1,17
 596 1147 596 1147 516.5 913 c 128,-1,18
 437 679 437 679 437 436 c 0,19,20
 437 305 437 305 465 208 c 128,-1,21
 493 111 493 111 543 59.5 c 128,-1,22
 593 8 593 8 658 8 c 0,23,24
 798 8 798 8 927 155.5 c 128,-1,25
 1056 303 1056 303 1136 537 c 128,-1,26
 1216 771 1216 771 1216 1014 c 0,27,28
 1216 1145 1216 1145 1187.5 1242 c 128,-1,29
 1159 1339 1159 1339 1109 1390.5 c 128,-1,30
 1059 1442 1059 1442 994 1442 c 0,31,16
 855 1442 855 1442 725.5 1294.5 c 128,-1,17
EndSplineSet
Substitution2: "Single Substitution lookup 29 subtable" ordmasculine
Substitution2: "'c2sc' Capitals to Small Capitals lookup 23 subtable" o.smcp
AlternateSubs2: "'aalt' Access All Alternates lookup 1 subtable" ordmasculine o.smcp
Position2: "'cpsp' Capital Spacing lookup 0 subtable" dx=20 dy=0 dh=20 dv=0
EndChar
StartChar: P
Encoding: 80 80 83
Width: 1317
GlyphClass: 2
Flags: W
AnchorPoint: "Anchor-5" 244 0 basechar 0
AnchorPoint: "Anchor-4" 885 1450 basechar 0
AnchorPoint: "Anchor-3" 0 0 basechar 0
LayerCount: 2
Back
Fore
SplineSet
441 127 m 0,1,2
 441 84 441 84 471.5 64.5 c 128,-1,3
 502 45 502 45 578 41 c 1,4,-1
 569 0 l 1,5,6
 446 6 446 6 254 6 c 0,7,8
 22 6 22 6 -86 0 c 1,9,-1
 -78 41 l 1,10,11
 -4 44 -4 44 32.5 57 c 128,-1,12
 69 70 69 70 91 105 c 128,-1,13
 113 140 113 140 133 217 c 2,14,-1
 403 1233 l 2,15,16
 419 1302 419 1302 419 1329 c 0,17,18
 419 1370 419 1370 389.5 1388 c 128,-1,19
 360 1406 360 1406 283 1409 c 1,20,-1
 293 1450 l 1,21,22
 398 1444 398 1444 618 1444 c 0,23,24
 667 1444 667 1444 765 1446 c 0,25,26
 865 1448 865 1448 918 1448 c 0,27,28
 1399 1448 1399 1448 1399 1139 c 0,29,30
 1399 979 1399 979 1292.5 852.5 c 128,-1,31
 1186 726 1186 726 993.5 654 c 128,-1,32
 801 582 801 582 554 582 c 1,33,-1
 457 217 l 2,34,0
 441 159 441 159 441 127 c 0,1,2
573 623 m 2,35,36
 744 623 744 623 852.5 705 c 128,-1,37
 961 787 961 787 1009 914.5 c 128,-1,38
 1057 1042 1057 1042 1057 1185 c 0,39,40
 1057 1297 1057 1297 1009.5 1353 c 128,-1,41
 962 1409 962 1409 858 1409 c 0,42,43
 816 1409 816 1409 795 1394.5 c 128,-1,44
 774 1380 774 1380 761 1347 c 128,-1,45
 748 1314 748 1314 727 1233 c 2,46,-1
 565 623 l 1,47,-1
 573 623 l 2,35,36
EndSplineSet
Substitution2: "'c2sc' Capitals to Small Capitals lookup 23 subtable" p.smcp
Substitution2: "'aalt' Access All Alternates lookup 0 subtable" p.smcp
Position2: "'cpsp' Capital Spacing lookup 0 subtable" dx=20 dy=0 dh=20 dv=0
EndChar
StartChar: Q
Encoding: 81 81 85
Width: 1703
GlyphClass: 2
Flags: W
LayerCount: 2
Back
Fore
SplineSet
1491 166.5 m 128,-1,1
 1538 122 1538 122 1538 40 c 0,2,3
 1538 -63 1538 -63 1461.5 -162 c 128,-1,4
 1385 -261 1385 -261 1253.5 -323 c 128,-1,5
 1122 -385 1122 -385 967 -385 c 0,6,7
 847 -385 847 -385 747.5 -346.5 c 128,-1,8
 648 -308 648 -308 572.5 -252.5 c 128,-1,9
 497 -197 497 -197 408 -114 c 1,10,11
 249 -168 249 -168 134 -168 c 0,12,13
 35 -168 35 -168 -22 -126 c 128,-1,14
 -79 -84 -79 -84 -79 -3 c 0,15,16
 -79 62 -79 62 -41.5 115 c 128,-1,17
 -4 168 -4 168 61.5 197.5 c 128,-1,18
 127 227 127 227 208 227 c 0,19,20
 284 227 284 227 358 201 c 128,-1,21
 432 175 432 175 498.5 135.5 c 128,-1,22
 565 96 565 96 657 33 c 1,23,24
 844 130 844 130 995 283 c 128,-1,25
 1146 436 1146 436 1234 628 c 128,-1,26
 1322 820 1322 820 1322 1026 c 0,27,28
 1322 1222 1322 1222 1242.5 1332 c 128,-1,29
 1163 1442 1163 1442 1014 1442 c 0,30,31
 875 1442 875 1442 766 1349.5 c 128,-1,32
 657 1257 657 1257 597.5 1110.5 c 128,-1,33
 538 964 538 964 538 811 c 0,34,35
 538 686 538 686 588 621.5 c 128,-1,36
 638 557 638 557 748 557 c 0,37,38
 830 557 830 557 900.5 593.5 c 128,-1,39
 971 630 971 630 1018 689.5 c 128,-1,40
 1065 749 1065 749 1081 817 c 0,41,42
 1093 865 1093 865 1090 915 c 1,43,44
 1069 854 1069 854 1017 823 c 128,-1,45
 965 792 965 792 908 792 c 0,46,47
 842 792 842 792 802 835 c 128,-1,48
 762 878 762 878 762 945 c 0,49,50
 762 998 762 998 788 1041 c 128,-1,51
 814 1084 814 1084 858.5 1108.5 c 128,-1,52
 903 1133 903 1133 956 1133 c 0,53,54
 1041 1133 1041 1133 1090.5 1071.5 c 128,-1,55
 1140 1010 1140 1010 1140 907 c 0,56,57
 1140 790 1140 790 1075.5 696.5 c 128,-1,58
 1011 603 1011 603 896 550.5 c 128,-1,59
 781 498 781 498 636 498 c 0,60,61
 505 498 505 498 405 541.5 c 128,-1,62
 305 585 305 585 249.5 667 c 128,-1,63
 194 749 194 749 194 862 c 0,64,65
 194 1034 194 1034 315.5 1175.5 c 128,-1,66
 437 1317 437 1317 636 1398 c 128,-1,67
 835 1479 835 1479 1057 1479 c 0,68,69
 1237 1479 1237 1479 1376 1427.5 c 128,-1,70
 1515 1376 1515 1376 1592.5 1282 c 128,-1,71
 1670 1188 1670 1188 1670 1063 c 0,72,73
 1670 888 1670 888 1528 690 c 128,-1,74
 1386 492 1386 492 1161.5 313 c 128,-1,75
 937 134 937 134 692 8 c 1,76,77
 794 -62 794 -62 869 -106.5 c 128,-1,78
 944 -151 944 -151 1031 -180.5 c 128,-1,79
 1118 -210 1118 -210 1211 -210 c 0,80,81
 1399 -210 1399 -210 1474 -65 c 1,82,83
 1419 -110 1419 -110 1344 -110 c 0,84,85
 1274 -110 1274 -110 1229.5 -70 c 128,-1,86
 1185 -30 1185 -30 1185 39 c 0,87,88
 1185 87 1185 87 1208.5 126.5 c 128,-1,89
 1232 166 1232 166 1274 188.5 c 128,-1,90
 1316 211 1316 211 1369 211 c 0,91,0
 1444 211 1444 211 1491 166.5 c 128,-1,1
378 -86 m 1,93,94
 317 -29 317 -29 273.5 5.5 c 128,-1,95
 230 40 230 40 182.5 62 c 128,-1,96
 135 84 135 84 86 84 c 0,97,98
 32 84 32 84 -1.5 57 c 128,-1,99
 -35 30 -35 30 -35 -16 c 0,100,101
 -35 -72 -35 -72 14 -102.5 c 128,-1,102
 63 -133 63 -133 151 -133 c 0,103,92
 237 -133 237 -133 378 -86 c 1,93,94
EndSplineSet
Substitution2: "'c2sc' Capitals to Small Capitals lookup 23 subtable" q.smcp
Substitution2: "'aalt' Access All Alternates lookup 0 subtable" q.smcp
Position2: "'cpsp' Capital Spacing lookup 0 subtable" dx=20 dy=0 dh=20 dv=0
EndChar
StartChar: R
Encoding: 82 82 86
Width: 1456
GlyphClass: 2
Flags: W
AnchorPoint: "Anchor-5" 655 0 basechar 0
AnchorPoint: "Anchor-4" 858 1450 basechar 0
AnchorPoint: "Anchor-3" 0 0 basechar 0
LayerCount: 2
Back
Fore
SplineSet
1389 248 m 1,0,-1
 1380 221 l 1,1,2
 1342 93 1342 93 1267.5 32 c 128,-1,3
 1193 -29 1193 -29 1068 -29 c 0,4,5
 944 -29 944 -29 880.5 24.5 c 128,-1,6
 817 78 817 78 817 169 c 0,7,8
 817 189 817 189 820 210 c 2,9,-1
 850 442 l 2,10,11
 855 482 855 482 855 509 c 0,12,13
 855 573 855 573 831 612.5 c 128,-1,14
 807 652 807 652 748.5 673 c 128,-1,15
 690 694 690 694 585 696 c 1,16,-1
 458 217 l 2,17,18
 438 141 438 141 438 117 c 0,19,20
 438 79 438 79 468.5 61.5 c 128,-1,21
 499 44 499 44 578 41 c 1,22,-1
 569 0 l 1,23,24
 446 6 446 6 249 6 c 0,25,26
 22 6 22 6 -86 0 c 1,27,-1
 -78 41 l 1,28,29
 -4 44 -4 44 32.5 57 c 128,-1,30
 69 70 69 70 91 105 c 128,-1,31
 113 140 113 140 133 217 c 2,32,-1
 402 1233 l 2,33,34
 420 1298 420 1298 420 1329 c 0,35,36
 420 1369 420 1369 390 1387 c 128,-1,37
 360 1405 360 1405 283 1409 c 1,38,-1
 293 1450 l 1,39,40
 398 1444 398 1444 603 1444 c 0,41,42
 674 1444 674 1444 780 1446 c 0,43,44
 870 1448 870 1448 910 1448 c 0,45,46
 1159 1448 1159 1448 1279 1378 c 128,-1,47
 1399 1308 1399 1308 1399 1163 c 0,48,49
 1399 1043 1399 1043 1324 947.5 c 128,-1,50
 1249 852 1249 852 1111.5 790 c 128,-1,51
 974 728 974 728 790 708 c 1,52,-1
 792 708 l 1,53,54
 915 697 915 697 996.5 675 c 128,-1,55
 1078 653 1078 653 1126 604.5 c 128,-1,56
 1174 556 1174 556 1174 471 c 0,57,58
 1174 450 1174 450 1171 426 c 2,59,-1
 1144 215 l 2,60,61
 1141 190 1141 190 1141 168 c 0,62,63
 1141 72 1141 72 1206 72 c 0,64,65
 1245 72 1245 72 1275 108 c 128,-1,66
 1305 144 1305 144 1331 219 c 2,67,-1
 1341 248 l 1,68,-1
 1389 248 l 1,0,-1
610 733 m 2,69,70
 745 733 745 733 849 787 c 128,-1,71
 953 841 953 841 1011 945 c 128,-1,72
 1069 1049 1069 1049 1069 1194 c 0,73,74
 1069 1304 1069 1304 1022 1356.5 c 128,-1,75
 975 1409 975 1409 879 1409 c 0,76,77
 837 1409 837 1409 811.5 1397.5 c 128,-1,78
 786 1386 786 1386 769 1357.5 c 128,-1,79
 752 1329 752 1329 738 1275 c 2,80,-1
 595 733 l 1,81,-1
 610 733 l 2,69,70
EndSplineSet
Substitution2: "'c2sc' Capitals to Small Capitals lookup 23 subtable" r.smcp
Substitution2: "'aalt' Access All Alternates lookup 0 subtable" r.smcp
Position2: "'cpsp' Capital Spacing lookup 0 subtable" dx=20 dy=0 dh=20 dv=0
EndChar
StartChar: S
Encoding: 83 83 90
Width: 1202
GlyphClass: 2
Flags: W
AnchorPoint: "Anchor-5" 469 0 basechar 0
AnchorPoint: "Anchor-4" 815 1450 basechar 0
AnchorPoint: "Anchor-3" 0 0 basechar 0
LayerCount: 2
Back
Fore
SplineSet
1149 1047 m 1,1,-1
 1108 1047 l 1,2,3
 1120 1104 1120 1104 1120 1161 c 0,4,5
 1120 1241 1120 1241 1086.5 1302 c 128,-1,6
 1053 1363 1053 1363 987 1396.5 c 128,-1,7
 921 1430 921 1430 827 1430 c 0,8,9
 717 1430 717 1430 648 1374.5 c 128,-1,10
 579 1319 579 1319 579 1207 c 0,11,12
 579 1141 579 1141 609.5 1077.5 c 128,-1,13
 640 1014 640 1014 685 959 c 128,-1,14
 730 904 730 904 807 823 c 0,15,16
 891 733 891 733 940.5 672 c 128,-1,17
 990 611 990 611 1025 536.5 c 128,-1,18
 1060 462 1060 462 1060 380 c 0,19,20
 1060 243 1060 243 972.5 151 c 128,-1,21
 885 59 885 59 755 15 c 128,-1,22
 625 -29 625 -29 496 -29 c 0,23,24
 404 -29 404 -29 341 -17 c 128,-1,25
 278 -5 278 -5 236.5 14 c 128,-1,26
 195 33 195 33 141 66 c 0,27,28
 94 96 94 96 70 96 c 0,29,30
 44 96 44 96 27.5 73.5 c 128,-1,31
 11 51 11 51 -17 -14 c 1,32,-1
 -58 -14 l 1,33,34
 10 148 10 148 82 477 c 1,35,-1
 122 477 l 1,36,37
 104 408 104 408 104 331 c 0,38,39
 104 177 104 177 189.5 96.5 c 128,-1,40
 275 16 275 16 438 16 c 0,41,42
 702 16 702 16 702 231 c 0,43,44
 702 312 702 312 672.5 382.5 c 128,-1,45
 643 453 643 453 600 509.5 c 128,-1,46
 557 566 557 566 485 647 c 0,47,48
 412 730 412 730 369 787 c 128,-1,49
 326 844 326 844 296 915.5 c 128,-1,50
 266 987 266 987 266 1069 c 0,51,52
 266 1200 266 1200 341 1293 c 128,-1,53
 416 1386 416 1386 532 1432.5 c 128,-1,54
 648 1479 648 1479 769 1479 c 0,55,56
 877 1479 877 1479 951.5 1454 c 128,-1,57
 1026 1429 1026 1429 1093 1388 c 0,58,59
 1147 1356 1147 1356 1161 1356 c 0,60,61
 1177 1356 1177 1356 1192.5 1381.5 c 128,-1,62
 1208 1407 1208 1407 1228 1464 c 1,63,-1
 1269 1464 l 1,64,0
 1191 1265 1191 1265 1149 1047 c 1,1,-1
EndSplineSet
Substitution2: "'c2sc' Capitals to Small Capitals lookup 23 subtable" s.smcp
Substitution2: "'aalt' Access All Alternates lookup 0 subtable" s.smcp
Position2: "'cpsp' Capital Spacing lookup 0 subtable" dx=20 dy=0 dh=20 dv=0
EndChar
StartChar: T
Encoding: 84 84 97
Width: 1394
GlyphClass: 2
Flags: W
AnchorPoint: "Anchor-5" 623 0 basechar 0
AnchorPoint: "Anchor-4" 980 1450 basechar 0
AnchorPoint: "Anchor-3" 0 0 basechar 0
LayerCount: 2
Back
Fore
SplineSet
1682.5 1738 m 128,-1,1
 1718 1718 1718 1718 1737 1684.5 c 128,-1,2
 1756 1651 1756 1651 1756 1613 c 0,3,4
 1756 1486 1756 1486 1614 1420 c 0,5,6
 1489 1360 1489 1360 1272 1360 c 0,7,8
 1222 1360 1222 1360 1152 1365 c 1,9,-1
 854 238 l 2,10,11
 838 181 838 181 838 142 c 0,12,13
 838 106 838 106 854.5 85 c 128,-1,14
 871 64 871 64 907.5 54 c 128,-1,15
 944 44 944 44 1007 41 c 1,16,-1
 999 0 l 1,17,18
 870 6 870 6 620 6 c 0,19,20
 377 6 377 6 260 0 c 1,21,-1
 268 41 l 1,22,23
 355 44 355 44 403.5 62 c 128,-1,24
 452 80 452 80 479.5 120 c 128,-1,25
 507 160 507 160 528 238 c 2,26,-1
 836 1394 l 1,27,28
 673 1409 673 1409 590 1409 c 0,29,30
 424 1409 424 1409 359 1374 c 1,31,32
 413 1359 413 1359 448 1314 c 128,-1,33
 483 1269 483 1269 483 1208 c 0,34,35
 483 1161 483 1161 462.5 1122 c 128,-1,36
 442 1083 442 1083 405.5 1060 c 128,-1,37
 369 1037 369 1037 323 1037 c 0,38,39
 254 1037 254 1037 215 1083 c 128,-1,40
 176 1129 176 1129 176 1197 c 0,41,42
 176 1255 176 1255 206.5 1309 c 128,-1,43
 237 1363 237 1363 309 1398 c 0,44,45
 408 1446 408 1446 583 1446 c 0,46,47
 720 1446 720 1446 964 1422 c 0,48,49
 1182 1401 1182 1401 1290 1401 c 0,50,51
 1429 1401 1429 1401 1507 1428 c 1,52,53
 1437 1496 1437 1496 1437 1590 c 0,54,55
 1437 1664 1437 1664 1481.5 1711 c 128,-1,56
 1526 1758 1526 1758 1599 1758 c 0,57,0
 1647 1758 1647 1758 1682.5 1738 c 128,-1,1
EndSplineSet
Substitution2: "'c2sc' Capitals to Small Capitals lookup 23 subtable" t.smcp
Substitution2: "'aalt' Access All Alternates lookup 0 subtable" t.smcp
Position2: "'cpsp' Capital Spacing lookup 0 subtable" dx=20 dy=0 dh=20 dv=0
EndChar
StartChar: U
Encoding: 85 85 102
Width: 1421
GlyphClass: 2
Flags: W
AnchorPoint: "Anchor-5" 628 0 basechar 0
AnchorPoint: "Anchor-4" 996 1450 basechar 0
AnchorPoint: "Anchor-3" 783 0 basechar 0
LayerCount: 2
Back
Fore
SplineSet
1347 1288 m 0,1,2
 1347 1348 1347 1348 1312.5 1374 c 128,-1,3
 1278 1400 1278 1400 1192 1409 c 1,4,-1
 1204 1450 l 1,5,6
 1279 1444 1279 1444 1423 1444 c 0,7,8
 1536 1444 1536 1444 1603 1450 c 1,9,-1
 1592 1409 l 1,10,11
 1523 1400 1523 1400 1484 1374.5 c 128,-1,12
 1445 1349 1445 1349 1419.5 1296 c 128,-1,13
 1394 1243 1394 1243 1367 1139 c 2,14,-1
 1227 596 l 2,15,16
 1154 313 1154 313 1026 162 c 0,17,18
 951 74 951 74 841 22.5 c 128,-1,19
 731 -29 731 -29 606 -29 c 0,20,21
 458 -29 458 -29 357.5 13 c 128,-1,22
 257 55 257 55 207 132 c 0,23,24
 154 209 154 209 154 325 c 0,25,26
 154 429 154 429 197 590 c 2,27,-1
 367 1233 l 2,28,29
 384 1298 384 1298 384 1331 c 0,30,31
 384 1362 384 1362 370 1378 c 128,-1,32
 356 1394 356 1394 327.5 1400.5 c 128,-1,33
 299 1407 299 1407 246 1409 c 1,34,-1
 258 1450 l 1,35,36
 363 1444 363 1444 596 1444 c 0,37,38
 788 1444 788 1444 914 1450 c 1,39,-1
 901 1409 l 1,40,41
 826 1406 826 1406 789.5 1393 c 128,-1,42
 753 1380 753 1380 731.5 1345 c 128,-1,43
 710 1310 710 1310 690 1233 c 2,44,-1
 510 555 l 2,45,46
 461 373 461 373 461 258 c 0,47,48
 461 150 461 150 506 96.5 c 128,-1,49
 551 43 551 43 645 43 c 0,50,51
 860 43 860 43 984 182 c 128,-1,52
 1108 321 1108 321 1174 573 c 2,53,-1
 1316 1114 l 2,54,0
 1347 1232 1347 1232 1347 1288 c 0,1,2
EndSplineSet
Substitution2: "'c2sc' Capitals to Small Capitals lookup 23 subtable" u.smcp
Substitution2: "'aalt' Access All Alternates lookup 0 subtable" u.smcp
Position2: "'cpsp' Capital Spacing lookup 0 subtable" dx=20 dy=0 dh=20 dv=0
EndChar
StartChar: V
Encoding: 86 86 113
Width: 1353
GlyphClass: 2
Flags: W
LayerCount: 2
Back
Fore
SplineSet
1597 1450 m 1,1,-1
 1587 1409 l 1,2,3
 1520 1391 1520 1391 1465.5 1345.5 c 128,-1,4
 1411 1300 1411 1300 1342 1192 c 2,5,-1
 561 -10 l 1,6,7
 544 -9 544 -9 509 -9 c 256,8,9
 474 -9 474 -9 457 -10 c 1,10,-1
 295 1278 l 2,11,12
 286 1345 286 1345 255 1376 c 128,-1,13
 224 1407 224 1407 188 1409 c 1,14,-1
 198 1450 l 1,15,16
 300 1444 300 1444 493 1444 c 0,17,18
 698 1444 698 1444 806 1450 c 1,19,-1
 795 1409 l 1,20,21
 733 1406 733 1406 698 1396 c 128,-1,22
 663 1386 663 1386 645.5 1360 c 128,-1,23
 628 1334 628 1334 628 1284 c 0,24,25
 628 1263 628 1263 631 1237 c 2,26,-1
 734 328 l 1,27,-1
 1274 1156 l 2,28,29
 1335 1250 1335 1250 1335 1308 c 0,30,31
 1335 1357 1335 1357 1291.5 1380.5 c 128,-1,32
 1248 1404 1248 1404 1165 1409 c 1,33,-1
 1175 1450 l 1,34,35
 1256 1444 1256 1444 1443 1444 c 0,36,0
 1533 1444 1533 1444 1597 1450 c 1,1,-1
EndSplineSet
Substitution2: "'c2sc' Capitals to Small Capitals lookup 23 subtable" v.smcp
Substitution2: "'aalt' Access All Alternates lookup 0 subtable" v.smcp
Position2: "'cpsp' Capital Spacing lookup 0 subtable" dx=20 dy=0 dh=20 dv=0
EndChar
StartChar: W
Encoding: 87 87 114
Width: 2011
GlyphClass: 2
Flags: W
AnchorPoint: "Anchor-5" 0 0 basechar 0
AnchorPoint: "Anchor-4" 1277 1446 basechar 0
AnchorPoint: "Anchor-3" 0 0 basechar 0
LayerCount: 2
Back
Fore
SplineSet
2233 1450 m 1,1,-1
 2222 1409 l 1,2,3
 2175 1396 2175 1396 2138 1375.5 c 128,-1,4
 2101 1355 2101 1355 2062 1311.5 c 128,-1,5
 2023 1268 2023 1268 1982 1192 c 2,6,-1
 1336 -10 l 1,7,-1
 1230 -10 l 1,8,-1
 1104 904 l 1,9,-1
 551 -10 l 1,10,-1
 446 -10 l 1,11,-1
 284 1278 l 2,12,13
 275 1347 275 1347 244 1377 c 128,-1,14
 213 1407 213 1407 175 1409 c 1,15,-1
 185 1450 l 1,16,17
 287 1444 287 1444 472 1444 c 0,18,19
 647 1444 647 1444 738 1450 c 1,20,-1
 728 1409 l 1,21,22
 688 1406 688 1406 665 1396 c 128,-1,23
 642 1386 642 1386 630.5 1360.5 c 128,-1,24
 619 1335 619 1335 619 1287 c 0,25,26
 619 1255 619 1255 621 1237 c 2,27,-1
 720 348 l 1,28,-1
 1095 965 l 1,29,-1
 1052 1278 l 2,30,31
 1043 1347 1043 1347 1018.5 1377 c 128,-1,32
 994 1407 994 1407 964 1409 c 1,33,-1
 973 1450 l 1,34,35
 1069 1444 1069 1444 1240 1444 c 0,36,37
 1453 1444 1453 1444 1559 1450 c 1,38,-1
 1549 1409 l 1,39,40
 1487 1406 1487 1406 1452.5 1396 c 128,-1,41
 1418 1386 1418 1386 1401.5 1361.5 c 128,-1,42
 1385 1337 1385 1337 1385 1290 c 0,43,44
 1385 1264 1385 1264 1389 1237 c 2,45,-1
 1499 381 l 1,46,-1
 1920 1156 l 2,47,48
 1971 1252 1971 1252 1971 1308 c 0,49,50
 1971 1359 1971 1359 1928.5 1381.5 c 128,-1,51
 1886 1404 1886 1404 1800 1409 c 1,52,-1
 1810 1450 l 1,53,54
 1891 1444 1891 1444 2078 1444 c 0,55,0
 2169 1444 2169 1444 2233 1450 c 1,1,-1
EndSplineSet
Substitution2: "'c2sc' Capitals to Small Capitals lookup 23 subtable" w.smcp
Substitution2: "'aalt' Access All Alternates lookup 0 subtable" w.smcp
Position2: "'cpsp' Capital Spacing lookup 0 subtable" dx=20 dy=0 dh=20 dv=0
EndChar
StartChar: X
Encoding: 88 88 119
Width: 1518
GlyphClass: 2
Flags: W
LayerCount: 2
Back
Fore
SplineSet
1600 1427 m 128,-1,1
 1648 1375 1648 1375 1648 1295 c 0,2,3
 1648 1239 1648 1239 1625 1192.5 c 128,-1,4
 1602 1146 1602 1146 1560.5 1119.5 c 128,-1,5
 1519 1093 1519 1093 1466 1093 c 0,6,7
 1404 1093 1404 1093 1369 1129.5 c 128,-1,8
 1334 1166 1334 1166 1334 1226 c 0,9,10
 1334 1295 1334 1295 1376.5 1351 c 128,-1,11
 1419 1407 1419 1407 1488 1431 c 1,12,13
 1476 1441 1476 1441 1454 1441 c 0,14,15
 1387 1441 1387 1441 1320 1393 c 1,16,17
 1242 1331 1242 1331 1143.5 1187 c 128,-1,18
 1045 1043 1045 1043 951 838 c 1,19,-1
 1021 256 l 2,20,21
 1038 116 1038 116 1137 116 c 0,22,23
 1186 116 1186 116 1219 146 c 128,-1,24
 1252 176 1252 176 1275 244 c 2,25,-1
 1310 348 l 1,26,-1
 1351 348 l 1,27,-1
 1298 190 l 2,28,29
 1256 75 1256 75 1186 23 c 128,-1,30
 1116 -29 1116 -29 1013 -29 c 0,31,32
 904 -29 904 -29 838 11 c 128,-1,33
 772 51 772 51 740.5 121 c 128,-1,34
 709 191 709 191 696 291 c 2,35,-1
 667 528 l 1,36,37
 589 378 589 378 486 245.5 c 128,-1,38
 383 113 383 113 290 41 c 0,39,40
 196 -29 196 -29 99 -29 c 0,41,42
 14 -29 14 -29 -34 23 c 128,-1,43
 -82 75 -82 75 -82 155 c 0,44,45
 -82 211 -82 211 -59 257.5 c 128,-1,46
 -36 304 -36 304 5.5 330.5 c 128,-1,47
 47 357 47 357 100 357 c 0,48,49
 163 357 163 357 197.5 320 c 128,-1,50
 232 283 232 283 232 222 c 0,51,52
 232 154 232 154 189.5 98 c 128,-1,53
 147 42 147 42 78 19 c 1,54,55
 90 9 90 9 113 9 c 0,56,57
 177 10 177 10 248 57 c 0,58,59
 336 118 336 118 447 258 c 128,-1,60
 558 398 558 398 659 594 c 1,61,-1
 585 1200 l 2,62,63
 569 1343 569 1343 471 1343 c 0,64,65
 423 1343 423 1343 389.5 1310 c 128,-1,66
 356 1277 356 1277 331 1206 c 2,67,-1
 296 1102 l 1,68,-1
 255 1102 l 1,69,-1
 308 1260 l 2,70,71
 350 1375 350 1375 424.5 1427 c 128,-1,72
 499 1479 499 1479 609 1479 c 0,73,74
 756 1479 756 1479 824.5 1397 c 128,-1,75
 893 1315 893 1315 913 1159 c 2,76,-1
 943 904 l 1,77,78
 1017 1062 1017 1062 1108 1198.5 c 128,-1,79
 1199 1335 1199 1335 1280 1406 c 1,80,81
 1373 1479 1373 1479 1467 1479 c 0,82,0
 1552 1479 1552 1479 1600 1427 c 128,-1,1
EndSplineSet
Substitution2: "'c2sc' Capitals to Small Capitals lookup 23 subtable" x.smcp
Substitution2: "'aalt' Access All Alternates lookup 0 subtable" x.smcp
Position2: "'cpsp' Capital Spacing lookup 0 subtable" dx=20 dy=0 dh=20 dv=0
EndChar
StartChar: Y
Encoding: 89 89 120
Width: 1502
GlyphClass: 2
Flags: W
AnchorPoint: "Anchor-5" 0 0 basechar 0
AnchorPoint: "Anchor-4" 980 1450 basechar 0
AnchorPoint: "Anchor-3" 0 0 basechar 0
LayerCount: 2
Back
Fore
SplineSet
1580 1455 m 128,-1,1
 1623 1431 1623 1431 1645.5 1390.5 c 128,-1,2
 1668 1350 1668 1350 1668 1301 c 0,3,4
 1668 1250 1668 1250 1644 1208 c 128,-1,5
 1620 1166 1620 1166 1577.5 1141.5 c 128,-1,6
 1535 1117 1535 1117 1482 1117 c 0,7,8
 1415 1117 1415 1117 1378 1151 c 128,-1,9
 1341 1185 1341 1185 1341 1242 c 0,10,11
 1341 1308 1341 1308 1384.5 1359.5 c 128,-1,12
 1428 1411 1428 1411 1495 1431 c 1,13,14
 1483 1441 1483 1441 1462 1441 c 0,15,16
 1402 1440 1402 1440 1338 1393 c 0,17,18
 1280 1351 1280 1351 1207 1254.5 c 128,-1,19
 1134 1158 1134 1158 1056.5 1008 c 128,-1,20
 979 858 979 858 914 667 c 1,21,-1
 801 217 l 2,22,23
 788 162 788 162 788 134 c 0,24,25
 788 97 788 97 804.5 78 c 128,-1,26
 821 59 821 59 854 51.5 c 128,-1,27
 887 44 887 44 946 41 c 1,28,-1
 936 0 l 1,29,30
 822 6 822 6 584 6 c 0,31,32
 362 6 362 6 254 0 c 1,33,-1
 264 41 l 1,34,35
 339 44 339 44 376 57 c 128,-1,36
 413 70 413 70 435 105.5 c 128,-1,37
 457 141 457 141 475 217 c 2,38,-1
 587 658 l 1,39,40
 556 937 556 937 498 1132.5 c 128,-1,41
 440 1328 440 1328 352 1328 c 0,42,43
 317 1328 317 1328 294.5 1302.5 c 128,-1,44
 272 1277 272 1277 257 1232 c 2,45,-1
 213 1102 l 1,46,-1
 168 1102 l 1,47,-1
 221 1260 l 2,48,49
 259 1376 259 1376 331.5 1427.5 c 128,-1,50
 404 1479 404 1479 509 1479 c 0,51,52
 643 1479 643 1479 719.5 1396 c 128,-1,53
 796 1313 796 1313 833.5 1161 c 128,-1,54
 871 1009 871 1009 900 748 c 1,55,56
 968 939 968 939 1054 1093 c 128,-1,57
 1140 1247 1140 1247 1235 1352 c 0,58,59
 1353 1479 1353 1479 1478 1479 c 0,60,0
 1537 1479 1537 1479 1580 1455 c 128,-1,1
EndSplineSet
Substitution2: "'c2sc' Capitals to Small Capitals lookup 23 subtable" y.smcp
Substitution2: "'aalt' Access All Alternates lookup 0 subtable" y.smcp
Position2: "'cpsp' Capital Spacing lookup 0 subtable" dx=20 dy=0 dh=20 dv=0
EndChar
StartChar: Z
Encoding: 90 90 125
Width: 1348
GlyphClass: 2
Flags: W
AnchorPoint: "Anchor-5" 487 0 basechar 0
AnchorPoint: "Anchor-4" 890 1450 basechar 0
AnchorPoint: "Anchor-3" 0 0 basechar 0
LayerCount: 2
Back
Fore
SplineSet
1478 1433 m 0,1,2
 1478 1405 1478 1405 1440 1370.5 c 128,-1,3
 1402 1336 1402 1336 1325 1307 c 1,4,-1
 758 750 l 1,5,-1
 1069 750 l 1,6,-1
 1053 709 l 1,7,-1
 717 709 l 1,8,-1
 137 139 l 1,9,10
 352 324 352 324 554 324 c 0,11,12
 626 324 626 324 682 310.5 c 128,-1,13
 738 297 738 297 810 272 c 0,14,15
 863 253 863 253 901 243 c 128,-1,16
 939 233 939 233 979 233 c 0,17,18
 1070 233 1070 233 1070 316 c 0,19,20
 1070 403 1070 403 922 433 c 1,21,-1
 930 473 l 1,22,23
 1043 455 1043 455 1119.5 397.5 c 128,-1,24
 1196 340 1196 340 1196 236 c 0,25,26
 1196 160 1196 160 1159.5 99.5 c 128,-1,27
 1123 39 1123 39 1056 5 c 128,-1,28
 989 -29 989 -29 899 -29 c 0,29,30
 820 -29 820 -29 759 -6 c 128,-1,31
 698 17 698 17 618 63 c 0,32,33
 564 94 564 94 527 111.5 c 128,-1,34
 490 129 490 129 443.5 141.5 c 128,-1,35
 397 154 397 154 344 154 c 0,36,37
 289 154 289 154 242 140.5 c 128,-1,38
 195 127 195 127 127 98 c 1,39,40
 91 45 91 45 49 12 c 128,-1,41
 7 -21 7 -21 -24 -21 c 0,42,43
 -40 -21 -40 -21 -53 -10 c 0,44,45
 -65 0 -65 0 -65 17 c 0,46,47
 -65 45 -65 45 -27 79.5 c 128,-1,48
 11 114 11 114 88 143 c 1,49,-1
 664 709 l 1,50,-1
 332 709 l 1,51,-1
 346 750 l 1,52,-1
 705 750 l 1,53,-1
 1276 1311 l 1,54,55
 1061 1126 1061 1126 860 1126 c 0,56,57
 788 1126 788 1126 732 1139.5 c 128,-1,58
 676 1153 676 1153 604 1178 c 0,59,60
 551 1197 551 1197 513 1207 c 128,-1,61
 475 1217 475 1217 435 1217 c 0,62,63
 392 1217 392 1217 368 1196 c 128,-1,64
 344 1175 344 1175 344 1134 c 0,65,66
 344 1047 344 1047 493 1017 c 1,67,-1
 483 977 l 1,68,69
 370 995 370 995 293.5 1052.5 c 128,-1,70
 217 1110 217 1110 217 1214 c 0,71,72
 217 1290 217 1290 253.5 1350.5 c 128,-1,73
 290 1411 290 1411 357 1445 c 128,-1,74
 424 1479 424 1479 514 1479 c 0,75,76
 593 1479 593 1479 654 1456 c 128,-1,77
 715 1433 715 1433 795 1387 c 0,78,79
 849 1356 849 1356 886 1338.5 c 128,-1,80
 923 1321 923 1321 969.5 1308.5 c 128,-1,81
 1016 1296 1016 1296 1069 1296 c 0,82,83
 1124 1296 1124 1296 1171 1309.5 c 128,-1,84
 1218 1323 1218 1323 1286 1352 c 1,85,86
 1323 1405 1323 1405 1364 1438 c 128,-1,87
 1405 1471 1405 1471 1436 1471 c 0,88,89
 1452 1471 1452 1471 1466 1460 c 0,90,0
 1478 1450 1478 1450 1478 1433 c 0,1,2
EndSplineSet
Substitution2: "'c2sc' Capitals to Small Capitals lookup 23 subtable" z.smcp
Substitution2: "'aalt' Access All Alternates lookup 0 subtable" z.smcp
Position2: "'cpsp' Capital Spacing lookup 0 subtable" dx=20 dy=0 dh=20 dv=0
EndChar
StartChar: asciicircum
Encoding: 94 94 761
Width: 1081
Flags: W
LayerCount: 2
Back
Fore
SplineSet
362 712 m 128,-1,1
 255 666 255 666 146 635 c 1,2,-1
 137 664 l 1,3,4
 292 730 292 730 428.5 843 c 128,-1,5
 565 956 565 956 649 1081 c 1,6,-1
 686 1081 l 1,7,8
 705 954 705 954 782 842.5 c 128,-1,9
 859 731 859 731 982 665 c 1,10,-1
 965 635 l 1,11,12
 851 661 851 661 740.5 706.5 c 128,-1,13
 630 752 630 752 543 807 c 1,14,0
 469 758 469 758 362 712 c 128,-1,1
EndSplineSet
Substitution2: "'case' Case-Sensitive Forms lookup 25 subtable" asciicircum.case
Substitution2: "'smcp' Lowercase to Small Capitals lookup 24 subtable" asciicircum.smcp
Substitution2: "'c2sc' Capitals to Small Capitals lookup 23 subtable" asciicircum.smcp
AlternateSubs2: "'aalt' Access All Alternates lookup 1 subtable" asciicircum.smcp asciicircum.case
EndChar
StartChar: grave
Encoding: 96 96 799
Width: 457
Flags: W
LayerCount: 2
Back
Fore
SplineSet
229 1439 m 0,1,2
 181 1487 181 1487 157.5 1513 c 128,-1,3
 134 1539 134 1539 116 1569 c 0,4,5
 94 1604 94 1604 94 1641 c 0,6,7
 94 1701 94 1701 142 1729 c 0,8,9
 166 1743 166 1743 197 1743 c 0,10,11
 229 1743 229 1743 259 1725.5 c 128,-1,12
 289 1708 289 1708 308 1677 c 0,13,14
 328 1645 328 1645 340 1608 c 128,-1,15
 352 1571 352 1571 366 1510 c 0,16,17
 388 1424 388 1424 403.5 1370 c 128,-1,18
 419 1316 419 1316 448 1240 c 1,19,-1
 423 1227 l 1,20,0
 338 1332 338 1332 229 1439 c 0,1,2
EndSplineSet
Substitution2: "'case' Case-Sensitive Forms lookup 25 subtable" grave.case
Substitution2: "'smcp' Lowercase to Small Capitals lookup 24 subtable" grave.smcp
Substitution2: "'c2sc' Capitals to Small Capitals lookup 23 subtable" grave.smcp
AlternateSubs2: "'aalt' Access All Alternates lookup 1 subtable" grave.smcp grave.case
EndChar
StartChar: a
Encoding: 97 97 134
Width: 1144
GlyphClass: 2
Flags: W
AnchorPoint: "Anchor-5" 0 0 basechar 0
AnchorPoint: "Anchor-4" 726 1053 basechar 0
AnchorPoint: "Anchor-3" 848 0 basechar 0
LayerCount: 2
Back
Fore
SplineSet
1052 333 m 1,0,-1
 1001 183 l 2,1,2
 960 67 960 67 888 19 c 128,-1,3
 816 -29 816 -29 731 -29 c 0,4,5
 624 -29 624 -29 579 36 c 0,6,7
 552 76 552 76 552 139 c 0,8,9
 552 188 552 188 570 262 c 1,10,11
 502 108 502 108 416.5 39.5 c 128,-1,12
 331 -29 331 -29 228 -29 c 0,13,14
 114 -29 114 -29 56.5 37.5 c 128,-1,15
 -1 104 -1 104 -1 224 c 0,16,17
 -1 406 -1 406 96.5 609.5 c 128,-1,18
 194 813 194 813 343 950 c 128,-1,19
 492 1087 492 1087 635 1087 c 0,20,21
 690 1087 690 1087 724 1054 c 128,-1,22
 758 1021 758 1021 764 955 c 1,23,-1
 793 1058 l 1,24,25
 961 1061 961 1061 1090 1087 c 1,26,-1
 822 175 l 2,27,28
 812 138 812 138 812 116 c 0,29,30
 812 72 812 72 849 72 c 0,31,32
 920 72 920 72 977 233 c 2,33,-1
 1013 333 l 1,34,-1
 1052 333 l 1,0,-1
743 906 m 0,36,37
 743 956 743 956 725 984 c 128,-1,38
 707 1012 707 1012 674 1012 c 0,39,40
 604 1012 604 1012 515.5 886.5 c 128,-1,41
 427 761 427 761 364.5 572.5 c 128,-1,42
 302 384 302 384 302 209 c 0,43,44
 302 140 302 140 315.5 110.5 c 128,-1,45
 329 81 329 81 359 81 c 0,46,47
 403 81 403 81 457.5 143.5 c 128,-1,48
 512 206 512 206 566 324.5 c 128,-1,49
 620 443 620 443 662 604 c 1,50,-1
 652 553 l 1,51,-1
 741 873 l 2,52,35
 743 895 743 895 743 906 c 0,36,37
EndSplineSet
Substitution2: "Single Substitution lookup 29 subtable" ordfeminine
Substitution2: "'smcp' Lowercase to Small Capitals lookup 24 subtable" a.smcp
AlternateSubs2: "'aalt' Access All Alternates lookup 1 subtable" ordfeminine a.smcp
EndChar
StartChar: b
Encoding: 98 98 145
Width: 1119
GlyphClass: 2
Flags: W
LayerCount: 2
Back
Fore
SplineSet
995.5 1006.5 m 128,-1,1
 1060 926 1060 926 1060 772 c 0,2,3
 1060 605 1060 605 981.5 416.5 c 128,-1,4
 903 228 903 228 758 99.5 c 128,-1,5
 613 -29 613 -29 423 -29 c 0,6,7
 366 -29 366 -29 319.5 -5.5 c 128,-1,8
 273 18 273 18 250 58 c 1,9,10
 145 49 145 49 -18 -33 c 1,11,-1
 -48 -18 l 1,12,13
 -22 35 -22 35 -6 102 c 2,14,-1
 364 1366 l 2,15,16
 373 1397 373 1397 373 1422 c 0,17,18
 373 1463 373 1463 341.5 1482 c 128,-1,19
 310 1501 310 1501 235 1501 c 1,20,-1
 247 1544 l 1,21,22
 388 1545 388 1545 501 1566 c 128,-1,23
 614 1587 614 1587 721 1628 c 1,24,-1
 481 794 l 1,25,26
 555 947 555 947 633.5 1017 c 128,-1,27
 712 1087 712 1087 807 1087 c 0,28,0
 931 1087 931 1087 995.5 1006.5 c 128,-1,1
554.5 162.5 m 128,-1,30
 646 294 646 294 703.5 485 c 128,-1,31
 761 676 761 676 761 838 c 0,32,33
 761 913 761 913 744 946 c 128,-1,34
 727 979 727 979 693 979 c 0,35,36
 636 979 636 979 564 877.5 c 128,-1,37
 492 776 492 776 429 613 c 1,38,-1
 275 76 l 1,39,40
 310 31 310 31 367 31 c 0,41,29
 463 31 463 31 554.5 162.5 c 128,-1,30
EndSplineSet
Substitution2: "'smcp' Lowercase to Small Capitals lookup 24 subtable" b.smcp
Substitution2: "'aalt' Access All Alternates lookup 0 subtable" b.smcp
EndChar
StartChar: c
Encoding: 99 99 146
Width: 949
GlyphClass: 2
Flags: W
AnchorPoint: "Anchor-5" 340 0 basechar 0
AnchorPoint: "Anchor-4" 662 1051 basechar 0
AnchorPoint: "Anchor-3" 0 0 basechar 0
LayerCount: 2
Back
Fore
SplineSet
536.5 937 m 128,-1,1
 441 827 441 827 381.5 650.5 c 128,-1,2
 322 474 322 474 322 286 c 0,3,4
 322 182 322 182 363 132 c 128,-1,5
 404 82 404 82 478 82 c 0,6,7
 626 82 626 82 748 262 c 1,8,-1
 789 246 l 1,9,10
 716 128 716 128 602.5 49.5 c 128,-1,11
 489 -29 489 -29 343 -29 c 0,12,13
 194 -29 194 -29 105 51 c 128,-1,14
 16 131 16 131 16 286 c 0,15,16
 16 462 16 462 104 649.5 c 128,-1,17
 192 837 192 837 352 962 c 128,-1,18
 512 1087 512 1087 715 1087 c 0,19,20
 788 1087 788 1087 844.5 1061.5 c 128,-1,21
 901 1036 901 1036 932 991 c 128,-1,22
 963 946 963 946 963 890 c 0,23,24
 963 835 963 835 936 782.5 c 128,-1,25
 909 730 909 730 862.5 697 c 128,-1,26
 816 664 816 664 761 664 c 0,27,28
 710 664 710 664 677 696 c 128,-1,29
 644 728 644 728 644 782 c 256,30,31
 644 836 644 836 669.5 882.5 c 128,-1,32
 695 929 695 929 738 961 c 128,-1,33
 781 993 781 993 830 1006 c 1,34,35
 797 1047 797 1047 733 1047 c 0,36,0
 632 1047 632 1047 536.5 937 c 128,-1,1
EndSplineSet
Substitution2: "'smcp' Lowercase to Small Capitals lookup 24 subtable" c.smcp
Substitution2: "'aalt' Access All Alternates lookup 0 subtable" c.smcp
EndChar
StartChar: d
Encoding: 100 100 152
Width: 1185
GlyphClass: 2
Flags: W
LayerCount: 2
Back
Fore
SplineSet
1096 332 m 1,0,-1
 1047 182 l 2,1,2
 1009 66 1009 66 936 18.5 c 128,-1,3
 863 -29 863 -29 776 -29 c 0,4,5
 649 -29 649 -29 614 65 c 0,6,7
 598 98 598 98 598 148 c 0,8,9
 598 212 598 212 623 297 c 2,10,-1
 626 307 l 1,11,12
 547 132 547 132 460 51.5 c 128,-1,13
 373 -29 373 -29 252 -29 c 0,14,15
 143 -29 143 -29 76 43 c 128,-1,16
 9 115 9 115 9 259 c 0,17,18
 9 424 9 424 94.5 619.5 c 128,-1,19
 180 815 180 815 335.5 951 c 128,-1,20
 491 1087 491 1087 690 1087 c 0,21,22
 787 1087 787 1087 815 1018 c 1,23,-1
 907 1366 l 2,24,25
 917 1403 917 1403 917 1423 c 0,26,27
 917 1464 917 1464 885 1482.5 c 128,-1,28
 853 1501 853 1501 777 1501 c 1,29,-1
 791 1544 l 1,30,31
 933 1545 933 1545 1047 1566 c 128,-1,32
 1161 1587 1161 1587 1269 1628 c 1,33,-1
 868 174 l 2,34,35
 857 144 857 144 857 119 c 0,36,37
 857 72 857 72 897 72 c 0,38,39
 964 72 964 72 1022 233 c 2,40,-1
 1058 332 l 1,41,-1
 1096 332 l 1,0,-1
771 1022.5 m 128,-1,43
 752 1040 752 1040 719 1040 c 0,44,45
 631 1040 631 1040 535 914.5 c 128,-1,46
 439 789 439 789 375 596 c 128,-1,47
 311 403 311 403 311 215 c 0,48,49
 311 143 311 143 326.5 108.5 c 128,-1,50
 342 74 342 74 377 74 c 0,51,52
 417 74 417 74 473 133.5 c 128,-1,53
 529 193 529 193 588.5 308.5 c 128,-1,54
 648 424 648 424 698 581 c 1,55,-1
 801 968 l 1,56,42
 790 1005 790 1005 771 1022.5 c 128,-1,43
EndSplineSet
Substitution2: "'smcp' Lowercase to Small Capitals lookup 24 subtable" d.smcp
Substitution2: "'aalt' Access All Alternates lookup 0 subtable" d.smcp
EndChar
StartChar: e
Encoding: 101 101 156
Width: 961
GlyphClass: 2
Flags: W
AnchorPoint: "Anchor-5" 362 0 basechar 0
AnchorPoint: "Anchor-4" 680 1053 basechar 0
AnchorPoint: "Anchor-3" 494 0 basechar 0
LayerCount: 2
Back
Fore
SplineSet
863.5 710.5 m 128,-1,1
 768 613 768 613 624.5 544 c 128,-1,2
 481 475 481 475 325 433 c 1,3,4
 313 361 313 361 313 292 c 0,5,6
 313 184 313 184 353.5 139 c 128,-1,7
 394 94 394 94 471 94 c 0,8,9
 534 94 534 94 615 134.5 c 128,-1,10
 696 175 696 175 770 262 c 1,11,-1
 802 246 l 1,12,13
 756 173 756 173 685.5 110.5 c 128,-1,14
 615 48 615 48 523 9.5 c 128,-1,15
 431 -29 431 -29 327 -29 c 0,16,17
 235 -29 235 -29 162 4 c 128,-1,18
 89 37 89 37 47.5 102.5 c 128,-1,19
 6 168 6 168 6 260 c 0,20,21
 6 442 6 442 104.5 636 c 128,-1,22
 203 830 203 830 373 958.5 c 128,-1,23
 543 1087 543 1087 746 1087 c 0,24,25
 841 1087 841 1087 900 1045.5 c 128,-1,26
 959 1004 959 1004 959 925 c 0,27,0
 959 808 959 808 863.5 710.5 c 128,-1,1
565 965.5 m 128,-1,29
 490 882 490 882 425.5 747.5 c 128,-1,30
 361 613 361 613 332 471 c 1,31,32
 477 535 477 535 558 608 c 0,33,34
 640 683 640 683 687 778 c 128,-1,35
 734 873 734 873 734 981 c 0,36,37
 734 1049 734 1049 701 1049 c 0,38,28
 640 1049 640 1049 565 965.5 c 128,-1,29
EndSplineSet
Substitution2: "'smcp' Lowercase to Small Capitals lookup 24 subtable" e.smcp
Substitution2: "'aalt' Access All Alternates lookup 0 subtable" e.smcp
EndChar
StartChar: f
Encoding: 102 102 166
Width: 699
GlyphClass: 2
Flags: W
LayerCount: 2
Back
Fore
SplineSet
966 1577.5 m 128,-1,1
 1027 1553 1027 1553 1059.5 1508.5 c 128,-1,2
 1092 1464 1092 1464 1092 1406 c 0,3,4
 1092 1362 1092 1362 1067.5 1320.5 c 128,-1,5
 1043 1279 1043 1279 1000 1252.5 c 128,-1,6
 957 1226 957 1226 904 1226 c 0,7,8
 843 1226 843 1226 808 1254.5 c 128,-1,9
 773 1283 773 1283 773 1336 c 0,10,11
 773 1404 773 1404 815 1458.5 c 128,-1,12
 857 1513 857 1513 929 1538 c 1,13,14
 920 1549 920 1549 901 1557 c 128,-1,15
 882 1565 882 1565 859 1565 c 0,16,17
 798 1565 798 1565 752 1524 c 0,18,19
 716 1491 716 1491 688.5 1418.5 c 128,-1,20
 661 1346 661 1346 626 1217 c 2,21,-1
 582 1053 l 1,22,-1
 803 1053 l 1,23,-1
 791 1012 l 1,24,-1
 571 1012 l 1,25,-1
 204 -356 l 1,26,27
 38 -359 38 -359 -92 -385 c 1,28,-1
 283 1012 l 1,29,-1
 113 1012 l 1,30,-1
 125 1053 l 1,31,-1
 294 1053 l 1,32,33
 339 1222 339 1222 397 1332.5 c 128,-1,34
 455 1443 455 1443 533 1507 c 0,35,36
 649 1602 649 1602 821 1602 c 0,37,0
 905 1602 905 1602 966 1577.5 c 128,-1,1
EndSplineSet
Substitution2: "'smcp' Lowercase to Small Capitals lookup 24 subtable" f.smcp
Substitution2: "'aalt' Access All Alternates lookup 0 subtable" f.smcp
EndChar
StartChar: g
Encoding: 103 103 167
Width: 966
GlyphClass: 2
Flags: W
AnchorPoint: "Anchor-5" 0 0 basechar 0
AnchorPoint: "Anchor-4" 612 1053 basechar 0
AnchorPoint: "Anchor-3" 0 0 basechar 0
LayerCount: 2
Back
Fore
SplineSet
1098 1327 m 128,-1,1
 1132 1298 1132 1298 1132 1242 c 0,2,3
 1132 1199 1132 1199 1110 1158.5 c 128,-1,4
 1088 1118 1088 1118 1051 1092.5 c 128,-1,5
 1014 1067 1014 1067 970 1067 c 256,6,7
 926 1067 926 1067 900 1093.5 c 128,-1,8
 874 1120 874 1120 874 1161 c 0,9,10
 874 1193 874 1193 891.5 1227.5 c 128,-1,11
 909 1262 909 1262 943 1291 c 1,12,13
 938 1295 938 1295 929 1295 c 0,14,15
 908 1295 908 1295 888 1277 c 0,16,17
 858 1253 858 1253 818.5 1195.5 c 128,-1,18
 779 1138 779 1138 749 1072 c 1,19,20
 841 1051 841 1051 892.5 996.5 c 128,-1,21
 944 942 944 942 944 854 c 0,22,23
 944 761 944 761 888 672 c 128,-1,24
 832 583 832 583 728.5 521 c 128,-1,25
 625 459 625 459 491 445 c 1,26,27
 392 403 392 403 339.5 370.5 c 128,-1,28
 287 338 287 338 287 308 c 0,29,30
 287 291 287 291 309 278 c 128,-1,31
 331 265 331 265 379 250 c 2,32,-1
 551 193 l 2,33,34
 659 157 659 157 721.5 107 c 128,-1,35
 784 57 784 57 784 -22 c 0,36,37
 784 -126 784 -126 694 -210.5 c 128,-1,38
 604 -295 604 -295 459.5 -343 c 128,-1,39
 315 -391 315 -391 158 -391 c 0,40,41
 41 -391 41 -391 -42 -371.5 c 128,-1,42
 -125 -352 -125 -352 -167.5 -316.5 c 128,-1,43
 -210 -281 -210 -281 -210 -234 c 0,44,45
 -210 -185 -210 -185 -175 -151 c 128,-1,46
 -140 -117 -140 -117 -86 -93 c 128,-1,47
 -32 -69 -32 -69 69 -33 c 0,48,49
 124 -14 124 -14 197 14 c 1,50,-1
 161 25 l 2,51,52
 106 41 106 41 72 74.5 c 128,-1,53
 38 108 38 108 38 156 c 0,54,55
 38 207 38 207 78.5 252 c 128,-1,56
 119 297 119 297 197 340.5 c 128,-1,57
 275 384 275 384 406 441 c 1,58,59
 261 443 261 443 175.5 500.5 c 128,-1,60
 90 558 90 558 90 672 c 0,61,62
 90 765 90 765 151 861.5 c 128,-1,63
 212 958 212 958 331.5 1022 c 128,-1,64
 451 1086 451 1086 615 1086 c 0,65,66
 669 1086 669 1086 711 1079 c 1,67,68
 796 1248 796 1248 875 1309 c 0,69,70
 935 1356 935 1356 1006 1356 c 0,71,0
 1064 1356 1064 1356 1098 1327 c 128,-1,1
567 544.5 m 128,-1,73
 616 611 616 611 639 712.5 c 128,-1,74
 662 814 662 814 663 920 c 0,75,76
 663 983 663 983 646 1016 c 128,-1,77
 629 1049 629 1049 583 1049 c 0,78,79
 514 1049 514 1049 465 976.5 c 128,-1,80
 416 904 416 904 391 799.5 c 128,-1,81
 366 695 366 695 366 604 c 0,82,83
 366 535 366 535 385.5 506.5 c 128,-1,84
 405 478 405 478 446 478 c 0,85,72
 518 478 518 478 567 544.5 c 128,-1,73
111 -137.5 m 128,-1,87
 77 -206 77 -206 77 -261 c 0,88,89
 77 -309 77 -309 109 -332.5 c 128,-1,90
 141 -356 141 -356 196 -356 c 0,91,92
 277 -356 277 -356 361.5 -327.5 c 128,-1,93
 446 -299 446 -299 502 -248.5 c 128,-1,94
 558 -198 558 -198 558 -136 c 0,95,96
 558 -113 558 -113 543.5 -99 c 128,-1,97
 529 -85 529 -85 509 -78 c 128,-1,98
 489 -71 489 -71 438 -56 c 2,99,-1
 232 4 l 1,100,86
 145 -69 145 -69 111 -137.5 c 128,-1,87
EndSplineSet
Substitution2: "'smcp' Lowercase to Small Capitals lookup 24 subtable" g.smcp
Substitution2: "'aalt' Access All Alternates lookup 0 subtable" g.smcp
EndChar
StartChar: h
Encoding: 104 104 173
Width: 1167
GlyphClass: 2
Flags: W
AnchorPoint: "Anchor-5" 0 0 basechar 0
AnchorPoint: "Anchor-4" 506 1544 basechar 0
AnchorPoint: "Anchor-3" 0 0 basechar 0
LayerCount: 2
Back
Fore
SplineSet
1024 182 m 2,0,1
 952 -29 952 -29 749 -29 c 0,2,3
 563 -29 563 -29 563 139 c 0,4,5
 563 207 563 207 593 297 c 2,6,-1
 777 850 l 2,7,8
 796 905 796 905 796 938 c 0,9,10
 796 985 796 985 756 985 c 0,11,12
 699 985 699 985 622.5 883 c 128,-1,13
 546 781 546 781 466 607.5 c 128,-1,14
 386 434 386 434 318 226 c 1,15,-1
 252 0 l 1,16,-1
 -37 0 l 1,17,-1
 369 1366 l 2,18,19
 378 1397 378 1397 378 1422 c 0,20,21
 378 1463 378 1463 346 1482 c 128,-1,22
 314 1501 314 1501 239 1501 c 1,23,-1
 252 1544 l 1,24,25
 394 1545 394 1545 508 1566 c 128,-1,26
 622 1587 622 1587 729 1628 c 1,27,-1
 451 679 l 1,28,29
 522 835 522 835 590.5 924 c 128,-1,30
 659 1013 659 1013 729.5 1050 c 128,-1,31
 800 1087 800 1087 886 1087 c 0,32,33
 1072 1087 1072 1087 1072 922 c 0,34,35
 1072 859 1072 859 1045 778 c 2,36,-1
 844 174 l 2,37,38
 832 137 832 137 832 115 c 0,39,40
 832 72 832 72 872 72 c 0,41,42
 942 72 942 72 1000 233 c 2,43,-1
 1036 332 l 1,44,-1
 1075 332 l 1,45,-1
 1024 182 l 2,0,1
EndSplineSet
Substitution2: "'smcp' Lowercase to Small Capitals lookup 24 subtable" h.smcp
Substitution2: "'aalt' Access All Alternates lookup 0 subtable" h.smcp
EndChar
StartChar: i
Encoding: 105 105 176
Width: 660
GlyphClass: 2
Flags: W
AnchorPoint: "Anchor-5" 0 0 basechar 0
AnchorPoint: "Anchor-4" 457 1053 basechar 0
AnchorPoint: "Anchor-3" 362 0 basechar 0
LayerCount: 2
Back
Fore
SplineSet
388.5 1494.5 m 128,-1,1
 416 1538 416 1538 464 1561 c 128,-1,2
 512 1584 512 1584 571 1584 c 0,3,4
 643 1584 643 1584 682.5 1550 c 128,-1,5
 722 1516 722 1516 722 1456 c 0,6,7
 722 1402 722 1402 693.5 1358.5 c 128,-1,8
 665 1315 665 1315 616.5 1291 c 128,-1,9
 568 1267 568 1267 510 1267 c 0,10,11
 439 1267 439 1267 400 1300 c 128,-1,12
 361 1333 361 1333 361 1391 c 0,13,0
 361 1451 361 1451 388.5 1494.5 c 128,-1,1
297 946 m 0,15,16
 297 987 297 987 262 987 c 0,17,18
 224 987 224 987 193 949.5 c 128,-1,19
 162 912 162 912 130 826 c 2,20,-1
 90 721 l 1,21,-1
 51 721 l 1,22,-1
 107 877 l 2,23,24
 181 1087 181 1087 391 1087 c 0,25,26
 486 1087 486 1087 529 1041 c 128,-1,27
 572 995 572 995 572 921 c 0,28,29
 572 867 572 867 550 801 c 2,30,-1
 335 174 l 2,31,32
 322 138 322 138 322 114 c 0,33,34
 322 72 322 72 363 72 c 0,35,36
 395 72 395 72 426 107 c 128,-1,37
 457 142 457 142 492 233 c 2,38,-1
 529 332 l 1,39,-1
 568 332 l 1,40,-1
 516 182 l 2,41,42
 475 67 475 67 401.5 19 c 128,-1,43
 328 -29 328 -29 239 -29 c 0,44,45
 146 -29 146 -29 99.5 14.5 c 128,-1,46
 53 58 53 58 53 140 c 0,47,48
 53 204 53 204 84 297 c 2,49,-1
 284 885 l 2,50,14
 297 921 297 921 297 946 c 0,15,16
EndSplineSet
Substitution2: "'smcp' Lowercase to Small Capitals lookup 24 subtable" i.smcp
Substitution2: "'locl' Localized Forms in Latin lookup 10 subtable" i.loclTRK
Substitution2: "'locl' Localized Forms in Latin lookup 8 subtable" i.loclTRK
Substitution2: "'locl' Localized Forms in Latin lookup 6 subtable" i.loclTRK
Substitution2: "'locl' Localized Forms in Latin lookup 3 subtable" i.loclTRK
Substitution2: "'locl' Localized Forms in Latin lookup 2 subtable" i.loclTRK
AlternateSubs2: "'aalt' Access All Alternates lookup 1 subtable" i.loclTRK i.smcp
EndChar
StartChar: j
Encoding: 106 106 188
Width: 617
GlyphClass: 2
Flags: W
AnchorPoint: "Anchor-5" 0 0 basechar 0
AnchorPoint: "Anchor-4" 479 1053 basechar 0
AnchorPoint: "Anchor-3" 0 0 basechar 0
LayerCount: 2
Back
Fore
SplineSet
382.5 1494 m 128,-1,1
 410 1538 410 1538 457.5 1561 c 128,-1,2
 505 1584 505 1584 565 1584 c 0,3,4
 636 1584 636 1584 675.5 1550 c 128,-1,5
 715 1516 715 1516 715 1458 c 0,6,7
 715 1403 715 1403 687 1359.5 c 128,-1,8
 659 1316 659 1316 610.5 1291.5 c 128,-1,9
 562 1267 562 1267 503 1267 c 0,10,11
 433 1267 433 1267 394 1299.5 c 128,-1,12
 355 1332 355 1332 355 1389 c 0,13,0
 355 1450 355 1450 382.5 1494 c 128,-1,1
-85.5 -295.5 m 128,-1,15
 -39 -246 -39 -246 -7 -133 c 2,16,-1
 279 885 l 2,17,18
 290 927 290 927 290 948 c 0,19,20
 290 987 290 987 254 987 c 256,21,22
 218 987 218 987 187 949.5 c 128,-1,23
 156 912 156 912 125 826 c 2,24,-1
 86 721 l 1,25,-1
 48 721 l 1,26,-1
 102 877 l 2,27,28
 141 989 141 989 217 1038 c 128,-1,29
 293 1087 293 1087 388 1087 c 0,30,31
 562 1087 562 1087 562 927 c 0,32,33
 562 871 562 871 542 801 c 2,34,-1
 386 236 l 2,35,36
 325 17 325 17 253 -108 c 128,-1,37
 181 -233 181 -233 77 -295 c 1,38,39
 -42 -385 -42 -385 -214 -385 c 0,40,41
 -409 -385 -409 -385 -409 -265 c 0,42,43
 -409 -225 -409 -225 -388 -190.5 c 128,-1,44
 -367 -156 -367 -156 -331 -135.5 c 128,-1,45
 -295 -115 -295 -115 -252 -115 c 0,46,47
 -198 -115 -198 -115 -165 -146.5 c 128,-1,48
 -132 -178 -132 -178 -132 -223 c 0,49,50
 -132 -258 -132 -258 -153 -294 c 128,-1,51
 -174 -330 -174 -330 -210 -354 c 1,52,14
 -132 -345 -132 -345 -85.5 -295.5 c 128,-1,15
EndSplineSet
Substitution2: "'smcp' Lowercase to Small Capitals lookup 24 subtable" j.smcp
Substitution2: "'aalt' Access All Alternates lookup 0 subtable" j.smcp
EndChar
StartChar: k
Encoding: 107 107 191
Width: 1131
GlyphClass: 2
Flags: W
AnchorPoint: "Anchor-5" 406 0 basechar 0
AnchorPoint: "Anchor-4" 566 1544 basechar 0
AnchorPoint: "Anchor-3" 0 0 basechar 0
LayerCount: 2
Back
Fore
SplineSet
1053 1035 m 128,-1,1
 1101 983 1101 983 1101 904 c 0,2,3
 1101 854 1101 854 1079.5 812.5 c 128,-1,4
 1058 771 1058 771 1019 747 c 128,-1,5
 980 723 980 723 930 723 c 0,6,7
 867 723 867 723 832.5 757 c 128,-1,8
 798 791 798 791 798 841 c 0,9,10
 798 900 798 900 836.5 950 c 128,-1,11
 875 1000 875 1000 934 1031 c 1,12,13
 923 1047 923 1047 902 1047 c 0,14,15
 854 1047 854 1047 815 1016 c 0,16,17
 788 993 788 993 769 957 c 128,-1,18
 750 921 750 921 724 856 c 0,19,20
 696 784 696 784 671.5 738 c 128,-1,21
 647 692 647 692 605 653 c 128,-1,22
 563 614 563 614 501 598 c 1,23,24
 654 595 654 595 749 544 c 128,-1,25
 844 493 844 493 844 376 c 0,26,27
 844 344 844 344 837 310 c 2,28,-1
 806 157 l 2,29,30
 801 127 801 127 801 114 c 0,31,32
 801 72 801 72 837 72 c 0,33,34
 905 72 905 72 963 233 c 2,35,-1
 999 332 l 1,36,-1
 1038 332 l 1,37,-1
 987 182 l 2,38,39
 913 -29 913 -29 693 -29 c 0,40,41
 609 -29 609 -29 565 12 c 128,-1,42
 521 53 521 53 521 132 c 0,43,44
 521 166 521 166 530 208 c 2,45,-1
 566 365 l 2,46,47
 578 413 578 413 578 448 c 0,48,49
 578 507 578 507 541.5 538 c 128,-1,50
 505 569 505 569 422 581 c 1,51,-1
 252 0 l 1,52,-1
 -37 0 l 1,53,-1
 369 1366 l 2,54,55
 378 1397 378 1397 378 1422 c 0,56,57
 378 1463 378 1463 346 1482 c 128,-1,58
 314 1501 314 1501 239 1501 c 1,59,-1
 252 1544 l 1,60,61
 394 1545 394 1545 508 1566 c 128,-1,62
 622 1587 622 1587 729 1628 c 1,63,-1
 431 612 l 1,64,65
 508 624 508 624 556 662 c 128,-1,66
 604 700 604 700 630 747 c 128,-1,67
 656 794 656 794 686 870 c 0,68,69
 710 934 710 934 731 974 c 128,-1,70
 752 1014 752 1014 784 1040 c 0,71,72
 841 1087 841 1087 912 1087 c 0,73,0
 1005 1087 1005 1087 1053 1035 c 128,-1,1
EndSplineSet
Substitution2: "'smcp' Lowercase to Small Capitals lookup 24 subtable" k.smcp
Substitution2: "'aalt' Access All Alternates lookup 0 subtable" k.smcp
EndChar
StartChar: l
Encoding: 108 108 194
Width: 615
GlyphClass: 2
Flags: W
AnchorPoint: "Anchor-5" 205 0 basechar 0
AnchorPoint: "Anchor-4" 519 1544 basechar 0
AnchorPoint: "Anchor-3" 0 0 basechar 0
LayerCount: 2
Back
Fore
SplineSet
282 124 m 0,1,2
 282 72 282 72 324 72 c 0,3,4
 390 72 390 72 448 233 c 2,5,-1
 484 332 l 1,6,-1
 523 332 l 1,7,-1
 472 182 l 2,8,9
 432 66 432 66 359 18.5 c 128,-1,10
 286 -29 286 -29 199 -29 c 0,11,12
 106 -29 106 -29 60.5 18.5 c 128,-1,13
 15 66 15 66 15 153 c 0,14,15
 15 218 15 218 39 297 c 2,16,-1
 360 1366 l 2,17,18
 370 1403 370 1403 370 1423 c 0,19,20
 370 1464 370 1464 338 1482.5 c 128,-1,21
 306 1501 306 1501 231 1501 c 1,22,-1
 246 1544 l 1,23,24
 386 1545 386 1545 499 1566 c 128,-1,25
 612 1587 612 1587 721 1628 c 1,26,-1
 290 174 l 2,27,0
 282 147 282 147 282 124 c 0,1,2
EndSplineSet
Substitution2: "'smcp' Lowercase to Small Capitals lookup 24 subtable" l.smcp
Substitution2: "'aalt' Access All Alternates lookup 0 subtable" l.smcp
EndChar
StartChar: m
Encoding: 109 109 200
Width: 1753
GlyphClass: 2
Flags: W
LayerCount: 2
Back
Fore
SplineSet
1608 182 m 2,0,1
 1536 -29 1536 -29 1333 -29 c 0,2,3
 1214 -29 1214 -29 1168 45 c 0,4,5
 1145 83 1145 83 1145 138 c 0,6,7
 1145 204 1145 204 1177 297 c 2,8,-1
 1361 850 l 2,9,10
 1377 901 1377 901 1377 932 c 0,11,12
 1377 973 1377 973 1349 973 c 0,13,14
 1294 973 1294 973 1223 885.5 c 128,-1,15
 1152 798 1152 798 1071.5 620.5 c 128,-1,16
 991 443 991 443 910 184 c 1,17,-1
 910 190 l 1,18,-1
 857 0 l 1,19,-1
 564 0 l 1,20,-1
 814 850 l 2,21,22
 832 909 832 909 832 934 c 0,23,24
 832 973 832 973 797 973 c 0,25,26
 737 973 737 973 664 878 c 128,-1,27
 591 783 591 783 516.5 613 c 128,-1,28
 442 443 442 443 376 223 c 1,29,-1
 319 0 l 1,30,-1
 31 0 l 1,31,-1
 279 885 l 2,32,33
 289 920 289 920 289 944 c 0,34,35
 289 987 289 987 254 987 c 0,36,37
 218 987 218 987 187 949 c 128,-1,38
 156 911 156 911 125 826 c 2,39,-1
 86 721 l 1,40,-1
 47 721 l 1,41,-1
 102 877 l 2,42,43
 176 1087 176 1087 378 1087 c 0,44,45
 544 1087 544 1087 544 924 c 0,46,47
 544 870 544 870 525 801 c 2,48,-1
 479 621 l 1,49,50
 547 790 547 790 615 892 c 128,-1,51
 683 994 683 994 761.5 1040.5 c 128,-1,52
 840 1087 840 1087 939 1087 c 0,53,54
 1100 1087 1100 1087 1100 929 c 0,55,56
 1100 862 1100 862 1075 778 c 2,57,-1
 1036 639 l 1,58,59
 1106 808 1106 808 1177 906 c 128,-1,60
 1248 1004 1248 1004 1323.5 1045.5 c 128,-1,61
 1399 1087 1399 1087 1490 1087 c 0,62,63
 1657 1087 1657 1087 1657 927 c 0,64,65
 1657 862 1657 862 1629 778 c 2,66,-1
 1428 174 l 2,67,68
 1416 141 1416 141 1416 114 c 0,69,70
 1416 72 1416 72 1456 72 c 0,71,72
 1526 72 1526 72 1584 233 c 2,73,-1
 1620 332 l 1,74,-1
 1659 332 l 1,75,-1
 1608 182 l 2,0,1
EndSplineSet
Substitution2: "'smcp' Lowercase to Small Capitals lookup 24 subtable" m.smcp
Substitution2: "'aalt' Access All Alternates lookup 0 subtable" m.smcp
EndChar
StartChar: n
Encoding: 110 110 201
Width: 1236
GlyphClass: 2
Flags: W
AnchorPoint: "Anchor-5" 454 0 basechar 0
AnchorPoint: "Anchor-4" 718 1053 basechar 0
AnchorPoint: "Anchor-3" 0 0 basechar 0
LayerCount: 2
Back
Fore
SplineSet
1092 182 m 2,0,1
 1020 -29 1020 -29 817 -29 c 0,2,3
 701 -29 701 -29 655 39 c 0,4,5
 629 77 629 77 629 135 c 0,6,7
 629 202 629 202 661 297 c 2,8,-1
 845 850 l 2,9,10
 863 906 863 906 863 938 c 0,11,12
 863 985 863 985 824 985 c 0,13,14
 761 985 761 985 671.5 855.5 c 128,-1,15
 582 726 582 726 492.5 515 c 128,-1,16
 403 304 403 304 339 73 c 2,17,-1
 320 0 l 1,18,-1
 31 0 l 1,19,-1
 280 885 l 2,20,21
 293 931 293 931 293 950 c 0,22,23
 293 987 293 987 256 987 c 256,24,25
 219 987 219 987 189 951.5 c 128,-1,26
 159 916 159 916 126 826 c 2,27,-1
 87 721 l 1,28,-1
 48 721 l 1,29,-1
 103 877 l 2,30,31
 142 988 142 988 208 1037.5 c 128,-1,32
 274 1087 274 1087 368 1087 c 0,33,34
 545 1087 545 1087 545 920 c 0,35,36
 545 871 545 871 527 801 c 2,37,-1
 461 547 l 1,38,39
 546 757 546 757 623.5 875 c 128,-1,40
 701 993 701 993 779.5 1040 c 128,-1,41
 858 1087 858 1087 955 1087 c 0,42,43
 1140 1087 1140 1087 1140 923 c 0,44,45
 1140 859 1140 859 1113 778 c 2,46,-1
 912 174 l 2,47,48
 900 137 900 137 900 115 c 0,49,50
 900 72 900 72 940 72 c 0,51,52
 1010 72 1010 72 1068 233 c 2,53,-1
 1105 332 l 1,54,-1
 1143 332 l 1,55,-1
 1092 182 l 2,0,1
EndSplineSet
Substitution2: "'smcp' Lowercase to Small Capitals lookup 24 subtable" n.smcp
Substitution2: "'aalt' Access All Alternates lookup 0 subtable" n.smcp
EndChar
StartChar: o
Encoding: 111 111 208
Width: 1084
GlyphClass: 2
Flags: W
AnchorPoint: "Anchor-5" 348 0 basechar 0
AnchorPoint: "Anchor-4" 705 1053 basechar 0
AnchorPoint: "Anchor-3" 0 0 basechar 0
LayerCount: 2
Back
Fore
SplineSet
100.5 659.5 m 128,-1,1
 177 841 177 841 327.5 964 c 128,-1,2
 478 1087 478 1087 688 1087 c 0,3,4
 847 1087 847 1087 933 1000.5 c 128,-1,5
 1019 914 1019 914 1019 750 c 0,6,7
 1019 581 1019 581 942.5 399.5 c 128,-1,8
 866 218 866 218 715.5 94.5 c 128,-1,9
 565 -29 565 -29 355 -29 c 0,10,11
 196 -29 196 -29 110 57.5 c 128,-1,12
 24 144 24 144 24 309 c 0,13,0
 24 478 24 478 100.5 659.5 c 128,-1,1
510.5 902 m 128,-1,15
 421 757 421 757 359.5 545.5 c 128,-1,16
 298 334 298 334 298 152 c 0,17,18
 298 78 298 78 315 45 c 128,-1,19
 332 12 332 12 368 12 c 0,20,21
 443 12 443 12 532 153.5 c 128,-1,22
 621 295 621 295 682.5 504.5 c 128,-1,23
 744 714 744 714 744 904 c 0,24,25
 744 984 744 984 727.5 1015.5 c 128,-1,26
 711 1047 711 1047 677 1047 c 0,27,14
 600 1047 600 1047 510.5 902 c 128,-1,15
EndSplineSet
Substitution2: "Single Substitution lookup 29 subtable" ordmasculine
Substitution2: "'smcp' Lowercase to Small Capitals lookup 24 subtable" o.smcp
AlternateSubs2: "'aalt' Access All Alternates lookup 1 subtable" ordmasculine o.smcp
EndChar
StartChar: p
Encoding: 112 112 219
Width: 1195
GlyphClass: 2
Flags: W
LayerCount: 2
Back
Fore
SplineSet
1068 1006.5 m 128,-1,1
 1133 926 1133 926 1133 772 c 0,2,3
 1133 604 1133 604 1058 416 c 128,-1,4
 983 228 983 228 843.5 99.5 c 128,-1,5
 704 -29 704 -29 521 -29 c 0,6,7
 464 -29 464 -29 415 -10 c 128,-1,8
 366 9 366 9 336 42 c 1,9,-1
 281 -154 l 2,10,11
 269 -197 269 -197 269 -227 c 0,12,13
 269 -283 269 -283 310.5 -304.5 c 128,-1,14
 352 -326 352 -326 439 -328 c 1,15,-1
 427 -371 l 1,16,-1
 366 -369 l 2,17,18
 203 -362 203 -362 103 -362 c 0,19,20
 12 -362 12 -362 -135 -369 c 0,21,22
 -175 -371 -175 -371 -186 -371 c 1,23,-1
 -173 -328 l 1,24,25
 -123 -328 -123 -328 -93.5 -316 c 128,-1,26
 -64 -304 -64 -304 -45.5 -277 c 128,-1,27
 -27 -250 -27 -250 -14 -201 c 2,28,-1
 358 1134 l 1,29,30
 301 1005 301 1005 225.5 903 c 128,-1,31
 150 801 150 801 44 691 c 1,32,-1
 22 718 l 1,33,34
 112 813 112 813 172 887.5 c 128,-1,35
 232 962 232 962 292.5 1070 c 128,-1,36
 353 1178 353 1178 414 1333 c 1,37,-1
 418 1348 l 1,38,39
 583 1360 583 1360 723 1406 c 1,40,-1
 546 781 l 1,41,42
 621 940 621 940 702 1013.5 c 128,-1,43
 783 1087 783 1087 879 1087 c 0,44,0
 1003 1087 1003 1087 1068 1006.5 c 128,-1,1
628.5 155 m 128,-1,46
 720 279 720 279 777 462 c 128,-1,47
 834 645 834 645 834 808 c 0,48,49
 834 904 834 904 816.5 941.5 c 128,-1,50
 799 979 799 979 766 979 c 0,51,52
 726 979 726 979 677 926 c 128,-1,53
 628 873 628 873 578.5 780.5 c 128,-1,54
 529 688 529 688 487 572 c 1,55,-1
 347 78 l 1,56,57
 382 31 382 31 440 31 c 0,58,45
 537 31 537 31 628.5 155 c 128,-1,46
EndSplineSet
Substitution2: "'smcp' Lowercase to Small Capitals lookup 24 subtable" p.smcp
Substitution2: "'aalt' Access All Alternates lookup 0 subtable" p.smcp
EndChar
StartChar: q
Encoding: 113 113 221
Width: 1129
GlyphClass: 2
Flags: W
LayerCount: 2
Back
Fore
SplineSet
770 -233 m 0,1,2
 770 -281 770 -281 803 -303 c 128,-1,3
 836 -325 836 -325 903 -328 c 1,4,-1
 891 -371 l 1,5,-1
 832 -369 l 2,6,7
 671 -362 671 -362 574 -362 c 256,8,9
 477 -362 477 -362 323 -369 c 0,10,11
 283 -371 283 -371 273 -371 c 1,12,-1
 285 -328 l 1,13,14
 350 -327 350 -327 390 -311.5 c 128,-1,15
 430 -296 430 -296 453.5 -266 c 128,-1,16
 477 -236 477 -236 491 -185 c 2,17,-1
 624 312 l 1,18,19
 543 131 543 131 458.5 51 c 128,-1,20
 374 -29 374 -29 270 -29 c 0,21,22
 146 -29 146 -29 81 52 c 128,-1,23
 16 133 16 133 16 287 c 0,24,25
 16 451 16 451 99 640 c 128,-1,26
 182 829 182 829 328 958 c 128,-1,27
 474 1087 474 1087 653 1087 c 0,28,29
 711 1087 711 1087 758 1063 c 128,-1,30
 805 1039 805 1039 827 998 c 1,31,32
 935 1008 935 1008 1095 1089 c 1,33,-1
 1127 1075 l 1,34,35
 1103 1028 1103 1028 1082 955 c 2,36,-1
 778 -178 l 2,37,0
 770 -206 770 -206 770 -233 c 0,1,2
709 1028 m 0,39,40
 613 1028 613 1028 521.5 892.5 c 128,-1,41
 430 757 430 757 372.5 564.5 c 128,-1,42
 315 372 315 372 315 221 c 0,43,44
 315 152 315 152 332 122 c 128,-1,45
 349 92 349 92 383 92 c 0,46,47
 433 92 433 92 494.5 164 c 128,-1,48
 556 236 556 236 612 355.5 c 128,-1,49
 668 475 668 475 702 611 c 1,50,-1
 696 579 l 1,51,-1
 803 979 l 1,52,38
 768 1028 768 1028 709 1028 c 0,39,40
EndSplineSet
Substitution2: "'smcp' Lowercase to Small Capitals lookup 24 subtable" q.smcp
Substitution2: "'aalt' Access All Alternates lookup 0 subtable" q.smcp
EndChar
StartChar: r
Encoding: 114 114 222
Width: 962
GlyphClass: 2
Flags: W
AnchorPoint: "Anchor-5" 169 0 basechar 0
AnchorPoint: "Anchor-4" 613 1053 basechar 0
AnchorPoint: "Anchor-3" 0 0 basechar 0
LayerCount: 2
Back
Fore
SplineSet
975 1040.5 m 128,-1,1
 1020 994 1020 994 1020 922 c 0,2,3
 1020 865 1020 865 994 816 c 128,-1,4
 968 767 968 767 923 738 c 128,-1,5
 878 709 878 709 824 709 c 0,6,7
 764 709 764 709 731.5 740.5 c 128,-1,8
 699 772 699 772 699 831 c 0,9,10
 699 879 699 879 722 921.5 c 128,-1,11
 745 964 745 964 784 994 c 128,-1,12
 823 1024 823 1024 869 1035 c 1,13,14
 857 1042 857 1042 843 1042 c 0,15,16
 739 1042 739 1042 633 895 c 128,-1,17
 527 748 527 748 415 370 c 1,18,-1
 319 0 l 1,19,-1
 31 0 l 1,20,-1
 279 885 l 2,21,22
 290 926 290 926 290 947 c 0,23,24
 290 987 290 987 256 987 c 0,25,26
 219 987 219 987 187.5 950 c 128,-1,27
 156 913 156 913 125 826 c 2,28,-1
 86 721 l 1,29,-1
 47 721 l 1,30,-1
 102 877 l 2,31,32
 176 1087 176 1087 384 1087 c 0,33,34
 542 1087 542 1087 542 922 c 0,35,36
 542 870 542 870 526 801 c 2,37,-1
 510 738 l 1,38,39
 561 869 561 869 612 945 c 128,-1,40
 663 1021 663 1021 720.5 1054 c 128,-1,41
 778 1087 778 1087 852 1087 c 0,42,0
 930 1087 930 1087 975 1040.5 c 128,-1,1
EndSplineSet
Substitution2: "'smcp' Lowercase to Small Capitals lookup 24 subtable" r.smcp
Substitution2: "'aalt' Access All Alternates lookup 0 subtable" r.smcp
EndChar
StartChar: s
Encoding: 115 115 226
Width: 860
GlyphClass: 2
Flags: W
AnchorPoint: "Anchor-5" 268 0 basechar 0
AnchorPoint: "Anchor-4" 574 1053 basechar 0
AnchorPoint: "Anchor-3" 0 0 basechar 0
LayerCount: 2
Back
Fore
SplineSet
232 14 m 0,1,2
 308 14 308 14 355.5 61.5 c 128,-1,3
 403 109 403 109 403 191 c 0,4,5
 403 256 403 256 375 326.5 c 128,-1,6
 347 397 347 397 290 483 c 0,7,8
 242 555 242 555 219.5 593.5 c 128,-1,9
 197 632 197 632 180 681.5 c 128,-1,10
 163 731 163 731 163 786 c 0,11,12
 163 873 163 873 207.5 941.5 c 128,-1,13
 252 1010 252 1010 335.5 1048.5 c 128,-1,14
 419 1087 419 1087 534 1087 c 0,15,16
 667 1087 667 1087 756 1039 c 128,-1,17
 845 991 845 991 845 875 c 0,18,19
 845 840 845 840 831 804.5 c 128,-1,20
 817 769 817 769 788.5 746 c 128,-1,21
 760 723 760 723 720 723 c 0,22,23
 670 723 670 723 639.5 761.5 c 128,-1,24
 609 800 609 800 609 861 c 0,25,26
 609 911 609 911 627 955.5 c 128,-1,27
 645 1000 645 1000 671 1031 c 1,28,29
 646 1046 646 1046 600 1046 c 0,30,31
 525 1046 525 1046 483 1000 c 128,-1,32
 441 954 441 954 441 870 c 0,33,34
 441 817 441 817 463 770 c 128,-1,35
 485 723 485 723 534 648 c 2,36,-1
 563 603 l 2,37,38
 628 495 628 495 656.5 424.5 c 128,-1,39
 685 354 685 354 685 284 c 0,40,41
 685 195 685 195 637.5 124 c 128,-1,42
 590 53 590 53 502.5 12 c 128,-1,43
 415 -29 415 -29 298 -29 c 0,44,45
 152 -29 152 -29 56 27.5 c 128,-1,46
 -40 84 -40 84 -40 210 c 0,47,48
 -40 270 -40 270 -9 313 c 128,-1,49
 22 356 22 356 76 356 c 256,50,51
 130 356 130 356 161 311.5 c 128,-1,52
 192 267 192 267 192 196 c 0,53,54
 192 157 192 157 183 122.5 c 128,-1,55
 174 88 174 88 164.5 63 c 128,-1,56
 155 38 155 38 152 29 c 1,57,0
 185 14 185 14 232 14 c 0,1,2
EndSplineSet
Substitution2: "'smcp' Lowercase to Small Capitals lookup 24 subtable" s.smcp
Substitution2: "'aalt' Access All Alternates lookup 0 subtable" s.smcp
EndChar
StartChar: t
Encoding: 116 116 233
Width: 724
GlyphClass: 2
Flags: W
AnchorPoint: "Anchor-5" 221 0 basechar 0
AnchorPoint: "Anchor-4" 434 1053 basechar 0
AnchorPoint: "Anchor-3" 0 0 basechar 0
LayerCount: 2
Back
Fore
SplineSet
329 133 m 0,1,2
 329 72 329 72 390 72 c 0,3,4
 435 72 435 72 477 115.5 c 128,-1,5
 519 159 519 159 552 247 c 2,6,-1
 583 332 l 1,7,-1
 622 332 l 1,8,-1
 581 213 l 2,9,10
 499 -29 499 -29 273 -29 c 0,11,12
 169 -29 169 -29 116.5 25 c 128,-1,13
 64 79 64 79 64 171 c 0,14,15
 64 228 64 228 84 297 c 2,16,-1
 289 1012 l 1,17,-1
 103 1012 l 1,18,-1
 113 1053 l 1,19,-1
 301 1053 l 1,20,-1
 390 1364 l 1,21,22
 566 1367 566 1367 688 1393 c 1,23,-1
 590 1053 l 1,24,-1
 820 1053 l 1,25,-1
 814 1012 l 1,26,-1
 578 1012 l 1,27,-1
 335 174 l 2,28,0
 329 152 329 152 329 133 c 0,1,2
EndSplineSet
Substitution2: "'smcp' Lowercase to Small Capitals lookup 24 subtable" t.smcp
Substitution2: "'aalt' Access All Alternates lookup 0 subtable" t.smcp
EndChar
StartChar: u
Encoding: 117 117 238
Width: 1223
GlyphClass: 2
Flags: W
AnchorPoint: "Anchor-5" 527 0 basechar 0
AnchorPoint: "Anchor-4" 688 1053 basechar 0
AnchorPoint: "Anchor-3" 924 0 basechar 0
LayerCount: 2
Back
Fore
SplineSet
1136 338 m 1,0,-1
 1081 182 l 2,1,2
 1041 69 1041 69 968.5 20 c 128,-1,3
 896 -29 896 -29 806 -29 c 0,4,5
 695 -29 695 -29 655 41 c 0,6,7
 636 76 636 76 636 126 c 256,8,9
 636 176 636 176 657 258 c 2,10,-1
 712 469 l 1,11,12
 632 276 632 276 557.5 167.5 c 128,-1,13
 483 59 483 59 407 15 c 128,-1,14
 331 -29 331 -29 238 -29 c 0,15,16
 147 -29 147 -29 100.5 14 c 128,-1,17
 54 57 54 57 54 138 c 0,18,19
 54 200 54 200 81 281 c 2,20,-1
 280 885 l 2,21,22
 292 921 292 921 292 943 c 0,23,24
 292 987 292 987 252 987 c 0,25,26
 182 987 182 987 124 826 c 2,27,-1
 87 727 l 1,28,-1
 49 727 l 1,29,-1
 100 877 l 2,30,31
 172 1087 172 1087 375 1087 c 0,32,33
 560 1087 560 1087 560 918 c 0,34,35
 560 851 560 851 531 761 c 2,36,-1
 347 209 l 2,37,38
 329 154 329 154 329 122 c 0,39,40
 329 74 329 74 368 74 c 0,41,42
 429 74 429 74 515.5 199 c 128,-1,43
 602 324 602 324 689.5 531 c 128,-1,44
 777 738 777 738 841 971 c 2,45,-1
 864 1059 l 1,46,47
 1044 1062 1044 1062 1161 1087 c 1,48,-1
 904 174 l 2,49,50
 891 129 891 129 891 107 c 0,51,52
 891 72 891 72 927 72 c 0,53,54
 964 72 964 72 995.5 109 c 128,-1,55
 1027 146 1027 146 1058 233 c 2,56,-1
 1097 338 l 1,57,-1
 1136 338 l 1,0,-1
EndSplineSet
Substitution2: "'smcp' Lowercase to Small Capitals lookup 24 subtable" u.smcp
Substitution2: "'aalt' Access All Alternates lookup 0 subtable" u.smcp
EndChar
StartChar: v
Encoding: 118 118 249
Width: 1074
GlyphClass: 2
Flags: W
LayerCount: 2
Back
Fore
SplineSet
811.5 787.5 m 128,-1,1
 755 859 755 859 755 947 c 0,2,3
 755 1014 755 1014 791 1051 c 128,-1,4
 827 1088 827 1088 887 1088 c 0,5,6
 957 1088 957 1088 991.5 1034 c 128,-1,7
 1026 980 1026 980 1026 882 c 2,8,-1
 1025 852 l 2,9,10
 1015 644 1015 644 936.5 441 c 128,-1,11
 858 238 858 238 710.5 104.5 c 128,-1,12
 563 -29 563 -29 359 -29 c 0,13,14
 206 -29 206 -29 138 41.5 c 128,-1,15
 70 112 70 112 70 217 c 0,16,17
 70 554 70 554 619 1004 c 1,18,19
 571 998 571 998 533 974.5 c 128,-1,20
 495 951 495 951 444 909 c 0,21,22
 401 873 401 873 372 855.5 c 128,-1,23
 343 838 343 838 312 838 c 0,24,25
 285 838 285 838 249 859 c 0,26,27
 215 877 215 877 195 877 c 0,28,29
 167 877 167 877 149.5 855 c 128,-1,30
 132 833 132 833 115 779 c 2,31,-1
 97 723 l 1,32,-1
 58 723 l 1,33,-1
 103 872 l 1,34,35
 164 1089 164 1089 296 1089 c 0,36,37
 320 1089 320 1089 338 1082 c 128,-1,38
 356 1075 356 1075 384 1059 c 0,39,40
 418 1040 418 1040 443.5 1030.5 c 128,-1,41
 469 1021 469 1021 505 1021 c 0,42,43
 585 1021 585 1021 654 1065 c 1,44,-1
 674 1104 l 1,45,-1
 717 1083 l 1,46,47
 618 938 618 938 543 781.5 c 128,-1,48
 468 625 468 625 427 478 c 128,-1,49
 386 331 386 331 386 215 c 0,50,51
 386 137 386 137 408 100 c 128,-1,52
 430 63 430 63 477 63 c 0,53,54
 598 63 598 63 699 157 c 128,-1,55
 800 251 800 251 866 392.5 c 128,-1,56
 932 534 932 534 956 674 c 1,57,0
 868 716 868 716 811.5 787.5 c 128,-1,1
EndSplineSet
Substitution2: "'smcp' Lowercase to Small Capitals lookup 24 subtable" v.smcp
Substitution2: "'aalt' Access All Alternates lookup 0 subtable" v.smcp
EndChar
StartChar: w
Encoding: 119 119 250
Width: 1392
GlyphClass: 2
Flags: W
AnchorPoint: "Anchor-5" 0 0 basechar 0
AnchorPoint: "Anchor-4" 799 1053 basechar 0
AnchorPoint: "Anchor-3" 0 0 basechar 0
LayerCount: 2
Back
Fore
SplineSet
1288 655 m 0,1,2
 1288 489 1288 489 1234.5 331.5 c 128,-1,3
 1181 174 1181 174 1073.5 72.5 c 128,-1,4
 966 -29 966 -29 813 -29 c 0,5,6
 648 -29 648 -29 581 83 c 1,7,8
 451 -29 451 -29 279 -29 c 0,9,10
 189 -29 189 -29 127.5 4 c 128,-1,11
 66 37 66 37 35.5 94 c 128,-1,12
 5 151 5 151 5 222 c 0,13,14
 5 343 5 343 93 467.5 c 128,-1,15
 181 592 181 592 321.5 712.5 c 128,-1,16
 462 833 462 833 688 1002 c 1,17,18
 637 994 637 994 595 970.5 c 128,-1,19
 553 947 553 947 500 907 c 0,20,21
 451 871 451 871 421.5 854.5 c 128,-1,22
 392 838 392 838 359 838 c 0,23,24
 333 838 333 838 293 859 c 0,25,26
 259 877 259 877 240 877 c 0,27,28
 212 877 212 877 194.5 855.5 c 128,-1,29
 177 834 177 834 159 779 c 2,30,-1
 141 723 l 1,31,-1
 102 723 l 1,32,-1
 148 872 l 2,33,34
 184 989 184 989 232.5 1035 c 128,-1,35
 281 1081 281 1081 342 1081 c 0,36,37
 380 1081 380 1081 436 1055 c 0,38,39
 475 1038 475 1038 504.5 1029.5 c 128,-1,40
 534 1021 534 1021 576 1021 c 0,41,42
 656 1021 656 1021 732 1065 c 1,43,-1
 756 1104 l 1,44,-1
 799 1083 l 1,45,46
 587 866 587 866 452.5 633.5 c 128,-1,47
 318 401 318 401 318 212 c 0,48,49
 318 134 318 134 342.5 97.5 c 128,-1,50
 367 61 367 61 421 61 c 0,51,52
 493 61 493 61 565 116 c 1,53,54
 541 174 541 174 541 252 c 0,55,56
 541 371 541 371 595 483 c 128,-1,57
 649 595 649 595 727.5 665 c 128,-1,58
 806 735 806 735 870 735 c 0,59,60
 949 735 949 735 949 600 c 0,61,62
 949 491 949 491 904.5 385.5 c 128,-1,63
 860 280 860 280 773 191 c 1,64,65
 822 97 822 97 928 97 c 0,66,67
 1031 97 1031 97 1102.5 179 c 128,-1,68
 1174 261 1174 261 1209 385 c 128,-1,69
 1244 509 1244 509 1244 635 c 0,70,71
 1244 676 1244 676 1242 696 c 1,72,73
 1126 741 1126 741 1050 804 c 128,-1,74
 974 867 974 867 974 968 c 0,75,76
 974 1018 974 1018 1006 1052.5 c 128,-1,77
 1038 1087 1038 1087 1093 1087 c 0,78,79
 1187 1087 1187 1087 1231 979.5 c 128,-1,80
 1275 872 1275 872 1285 732 c 0,81,0
 1288 695 1288 695 1288 655 c 0,1,2
808.5 640.5 m 128,-1,83
 778 591 778 591 758 512.5 c 128,-1,84
 738 434 738 434 738 352 c 0,85,86
 738 282 738 282 757 228 c 1,87,88
 825 307 825 307 863.5 403.5 c 128,-1,89
 902 500 902 500 902 594 c 0,90,91
 902 690 902 690 867 690 c 0,92,82
 839 690 839 690 808.5 640.5 c 128,-1,83
EndSplineSet
Substitution2: "'smcp' Lowercase to Small Capitals lookup 24 subtable" w.smcp
Substitution2: "'aalt' Access All Alternates lookup 0 subtable" w.smcp
EndChar
StartChar: x
Encoding: 120 120 255
Width: 1157
GlyphClass: 2
Flags: W
AnchorPoint: "Anchor-5" 333 0 basechar 0
AnchorPoint: "Anchor-4" 679 1053 basechar 0
AnchorPoint: "Anchor-3" 0 0 basechar 0
LayerCount: 2
Back
Fore
SplineSet
1144 1051 m 128,-1,1
 1186 1015 1186 1015 1186 953 c 0,2,3
 1186 889 1186 889 1143 846.5 c 128,-1,4
 1100 804 1100 804 1032 804 c 0,5,6
 971 804 971 804 922.5 838.5 c 128,-1,7
 874 873 874 873 850 943 c 1,8,9
 761 841 761 841 694 670 c 1,10,-1
 750 172 l 2,11,12
 759 120 759 120 775.5 99 c 128,-1,13
 792 78 792 78 820 78 c 0,14,15
 851 78 851 78 880.5 115 c 128,-1,16
 910 152 910 152 945 254 c 2,17,-1
 972 330 l 1,18,-1
 1010 330 l 1,19,-1
 959 180 l 2,20,21
 890 -29 890 -29 684 -29 c 0,22,23
 479 -29 479 -29 458 172 c 2,24,-1
 439 338 l 1,25,26
 377 198 377 198 292 97 c 0,27,28
 186 -29 186 -29 66 -29 c 0,29,30
 -5 -29 -5 -29 -44.5 5.5 c 128,-1,31
 -84 40 -84 40 -84 100 c 0,32,33
 -84 145 -84 145 -63.5 180.5 c 128,-1,34
 -43 216 -43 216 -7.5 235.5 c 128,-1,35
 28 255 28 255 71 255 c 0,36,37
 193 255 193 255 251 116 c 1,38,39
 351 230 351 230 430 420 c 1,40,-1
 376 887 l 2,41,42
 368 936 368 936 350.5 954 c 128,-1,43
 333 972 333 972 304 972 c 0,44,45
 283 972 283 972 264.5 959.5 c 128,-1,46
 246 947 246 947 225.5 910.5 c 128,-1,47
 205 874 205 874 181 805 c 2,48,-1
 154 729 l 1,49,-1
 116 729 l 1,50,-1
 167 879 l 2,51,52
 237 1087 237 1087 448 1087 c 0,53,54
 516 1087 516 1087 561.5 1067.5 c 128,-1,55
 607 1048 607 1048 635 1000.5 c 128,-1,56
 663 953 663 953 672 870 c 2,57,-1
 685 751 l 1,58,59
 740 873 740 873 811 963 c 0,60,61
 908 1087 908 1087 1035 1087 c 0,62,0
 1102 1087 1102 1087 1144 1051 c 128,-1,1
EndSplineSet
Substitution2: "'smcp' Lowercase to Small Capitals lookup 24 subtable" x.smcp
Substitution2: "'aalt' Access All Alternates lookup 0 subtable" x.smcp
EndChar
StartChar: y
Encoding: 121 121 256
Width: 988
GlyphClass: 2
Flags: W
AnchorPoint: "Anchor-5" 0 0 basechar 0
AnchorPoint: "Anchor-4" 612 1053 basechar 0
AnchorPoint: "Anchor-3" 0 0 basechar 0
LayerCount: 2
Back
Fore
SplineSet
959 902 m 0,1,2
 959 778 959 778 903 618 c 128,-1,3
 847 458 847 458 754.5 297 c 128,-1,4
 662 136 662 136 555 7 c 0,5,6
 452 -118 452 -118 326 -213.5 c 128,-1,7
 200 -309 200 -309 65 -355 c 0,8,9
 -19 -385 -19 -385 -79 -385 c 0,10,11
 -146 -385 -146 -385 -184 -354.5 c 128,-1,12
 -222 -324 -222 -324 -222 -270 c 256,13,14
 -222 -216 -222 -216 -182 -180 c 128,-1,15
 -142 -144 -142 -144 -79 -144 c 0,16,17
 42 -144 42 -144 140 -284 c 1,18,19
 278 -218 278 -218 406 -97 c 1,20,-1
 245 882 l 2,21,22
 235 939 235 939 224.5 959.5 c 128,-1,23
 214 980 214 980 193 980 c 0,24,25
 171 980 171 980 150 949 c 128,-1,26
 129 918 129 918 95 827 c 2,27,-1
 59 728 l 1,28,-1
 20 728 l 1,29,-1
 71 877 l 2,30,31
 112 994 112 994 175 1040.5 c 128,-1,32
 238 1087 238 1087 324 1087 c 0,33,34
 412 1087 412 1087 461 1038.5 c 128,-1,35
 510 990 510 990 528 866 c 2,36,-1
 624 164 l 1,37,38
 711 290 711 290 776.5 425 c 128,-1,39
 842 560 842 560 875 684 c 1,40,41
 793 729 793 729 739 797 c 128,-1,42
 685 865 685 865 685 944 c 0,43,44
 685 1011 685 1011 722 1049 c 128,-1,45
 759 1087 759 1087 823 1087 c 0,46,0
 959 1087 959 1087 959 902 c 0,1,2
EndSplineSet
Substitution2: "'smcp' Lowercase to Small Capitals lookup 24 subtable" y.smcp
Substitution2: "'aalt' Access All Alternates lookup 0 subtable" y.smcp
EndChar
StartChar: z
Encoding: 122 122 261
Width: 949
GlyphClass: 2
Flags: W
AnchorPoint: "Anchor-5" 289 0 basechar 0
AnchorPoint: "Anchor-4" 605 1053 basechar 0
AnchorPoint: "Anchor-3" 0 0 basechar 0
LayerCount: 2
Back
Fore
SplineSet
208 196 m 0,1,2
 277 241 277 241 320 263 c 128,-1,3
 363 285 363 285 403 285 c 0,4,5
 438 285 438 285 463.5 276.5 c 128,-1,6
 489 268 489 268 524 250 c 0,7,8
 553 235 553 235 574.5 227 c 128,-1,9
 596 219 596 219 621 219 c 0,10,11
 657 219 657 219 677 239.5 c 128,-1,12
 697 260 697 260 697 291 c 0,13,14
 697 336 697 336 663.5 366 c 128,-1,15
 630 396 630 396 578 408 c 1,16,-1
 590 438 l 1,17,18
 700 413 700 413 753 359.5 c 128,-1,19
 806 306 806 306 806 220 c 0,20,21
 806 152 806 152 777.5 97.5 c 128,-1,22
 749 43 749 43 691 10.5 c 128,-1,23
 633 -22 633 -22 548 -22 c 0,24,25
 491 -22 491 -22 446.5 -8 c 128,-1,26
 402 6 402 6 345 33 c 0,27,28
 285 61 285 61 241 74.5 c 128,-1,29
 197 88 197 88 139 88 c 256,30,31
 81 88 81 88 38 69 c 128,-1,32
 -5 50 -5 50 -47 0 c 1,33,-1
 -107 0 l 1,34,-1
 888 956 l 1,35,36
 831 930 831 930 726 860 c 0,37,38
 650 810 650 810 603 785.5 c 128,-1,39
 556 761 556 761 512 761 c 0,40,41
 479 761 479 761 453.5 769.5 c 128,-1,42
 428 778 428 778 393 796 c 0,43,44
 362 811 362 811 342 818.5 c 128,-1,45
 322 826 322 826 297 826 c 0,46,47
 261 826 261 826 240.5 806.5 c 128,-1,48
 220 787 220 787 220 754 c 0,49,50
 220 676 220 676 339 638 c 1,51,-1
 327 607 l 1,52,53
 111 656 111 656 111 819 c 0,54,55
 111 885 111 885 143.5 943.5 c 128,-1,56
 176 1002 176 1002 242 1038.5 c 128,-1,57
 308 1075 308 1075 404 1075 c 0,58,59
 461 1075 461 1075 504 1061.5 c 128,-1,60
 547 1048 547 1048 604 1022 c 256,61,62
 661 996 661 996 703.5 983 c 128,-1,63
 746 970 746 970 802 970 c 0,64,65
 863 970 863 970 905 989.5 c 128,-1,66
 947 1009 947 1009 988 1058 c 1,67,-1
 1049 1058 l 1,68,-1
 68 114 l 1,69,0
 122 139 122 139 208 196 c 0,1,2
EndSplineSet
Substitution2: "'smcp' Lowercase to Small Capitals lookup 24 subtable" z.smcp
Substitution2: "'aalt' Access All Alternates lookup 0 subtable" z.smcp
EndChar
StartChar: bar
Encoding: 124 124 763
Width: 756
Flags: W
LayerCount: 2
Back
Fore
SplineSet
307 -399 m 1,0,-1
 307 1757 l 1,1,-1
 487 1757 l 1,2,-1
 487 -399 l 1,3,-1
 307 -399 l 1,0,-1
EndSplineSet
EndChar
StartChar: braceright
Encoding: 125 125 639
Width: 739
Flags: W
LayerCount: 2
Back
Fore
SplineSet
530.5 1577 m 128,-1,1
 614 1551 614 1551 649 1499.5 c 128,-1,2
 684 1448 684 1448 684 1367 c 256,3,4
 684 1286 684 1286 645 1128 c 0,5,6
 578 857 578 857 578 752 c 0,7,8
 579 690 579 690 602 662 c 128,-1,9
 625 634 625 634 674 631 c 2,10,-1
 684 631 l 1,11,-1
 678 594 l 1,12,-1
 668 594 l 1,13,14
 602 589 602 589 557.5 544.5 c 128,-1,15
 513 500 513 500 474 396.5 c 128,-1,16
 435 293 435 293 387 96 c 0,17,18
 339 -97 339 -97 267.5 -200.5 c 128,-1,19
 196 -304 196 -304 88.5 -344.5 c 128,-1,20
 -19 -385 -19 -385 -188 -385 c 1,21,-1
 -178 -346 l 1,22,23
 -106 -345 -106 -345 -67.5 -317.5 c 128,-1,24
 -29 -290 -29 -290 5.5 -200 c 128,-1,25
 40 -110 40 -110 92 96 c 0,26,27
 137 275 137 275 208.5 379.5 c 128,-1,28
 280 484 280 484 378.5 535.5 c 128,-1,29
 477 587 477 587 623 612 c 1,30,31
 510 638 510 638 443 678 c 128,-1,32
 376 718 376 718 346.5 775.5 c 128,-1,33
 317 833 317 833 317 913 c 256,34,35
 317 993 317 993 350 1128 c 0,36,37
 413 1381 413 1381 410 1460 c 0,38,39
 410 1520 410 1520 382.5 1540.5 c 128,-1,40
 355 1561 355 1561 293 1563 c 1,41,-1
 303 1602 l 1,42,0
 447 1603 447 1603 530.5 1577 c 128,-1,1
EndSplineSet
Substitution2: "'case' Case-Sensitive Forms lookup 25 subtable" braceright.case
Substitution2: "'smcp' Lowercase to Small Capitals lookup 24 subtable" braceright.smcp
Substitution2: "'c2sc' Capitals to Small Capitals lookup 23 subtable" braceright.smcp
AlternateSubs2: "'aalt' Access All Alternates lookup 1 subtable" braceright.smcp braceright.case
EndChar
StartChar: asciitilde
Encoding: 126 126 725
Width: 1322
Flags: W
LayerCount: 2
Back
Fore
SplineSet
694.5 457 m 128,-1,1
 640 478 640 478 566 519 c 0,2,3
 496 558 496 558 447 577 c 128,-1,4
 398 596 398 596 337 596 c 0,5,6
 202 596 202 596 128 477 c 1,7,-1
 99 487 l 1,8,9
 156 634 156 634 266 719.5 c 128,-1,10
 376 805 376 805 511 805 c 0,11,12
 582 805 582 805 637 784 c 128,-1,13
 692 763 692 763 765 722 c 0,14,15
 833 683 833 683 883 664 c 128,-1,16
 933 645 933 645 994 645 c 0,17,18
 1129 645 1129 645 1203 764 c 1,19,-1
 1231 754 l 1,20,21
 1174 607 1174 607 1064.5 521.5 c 128,-1,22
 955 436 955 436 820 436 c 0,23,0
 749 436 749 436 694.5 457 c 128,-1,1
EndSplineSet
Substitution2: "'case' Case-Sensitive Forms lookup 25 subtable" asciitilde.case
Substitution2: "'smcp' Lowercase to Small Capitals lookup 24 subtable" asciitilde.smcp
Substitution2: "'c2sc' Capitals to Small Capitals lookup 23 subtable" asciitilde.smcp
AlternateSubs2: "'aalt' Access All Alternates lookup 1 subtable" asciitilde.smcp asciitilde.case
EndChar
StartChar: exclamdown
Encoding: 161 161 678
Width: 607
Flags: W
LayerCount: 2
Back
Fore
SplineSet
256 991.5 m 128,-1,1
 282 1036 282 1036 327 1062 c 128,-1,2
 372 1088 372 1088 427 1088 c 0,3,4
 493 1088 493 1088 529 1055 c 128,-1,5
 565 1022 565 1022 565 963 c 0,6,7
 565 914 565 914 538 870 c 128,-1,8
 511 826 511 826 465 798.5 c 128,-1,9
 419 771 419 771 366 771 c 0,10,11
 302 771 302 771 266 803.5 c 128,-1,12
 230 836 230 836 230 892 c 0,13,0
 230 947 230 947 256 991.5 c 128,-1,1
282 377.5 m 128,-1,15
 271 243 271 243 267 57 c 0,16,17
 263 -110 263 -110 256 -187 c 0,18,19
 252 -282 252 -282 200.5 -333.5 c 128,-1,20
 149 -385 149 -385 55 -385 c 0,21,22
 -11 -385 -11 -385 -48.5 -353.5 c 128,-1,23
 -86 -322 -86 -322 -86 -264 c 0,24,25
 -86 -252 -86 -252 -85 -246 c 0,26,27
 -78 -178 -78 -178 -41.5 -93.5 c 128,-1,28
 -5 -9 -5 -9 70 136 c 0,29,30
 151 294 151 294 203.5 411.5 c 128,-1,31
 256 529 256 529 291 653 c 1,32,-1
 328 647 l 1,33,14
 293 512 293 512 282 377.5 c 128,-1,15
EndSplineSet
Substitution2: "'case' Case-Sensitive Forms lookup 25 subtable" exclamdown.case
Substitution2: "'smcp' Lowercase to Small Capitals lookup 24 subtable" exclamdown.smcp
Substitution2: "'c2sc' Capitals to Small Capitals lookup 23 subtable" exclamdown.smcp
AlternateSubs2: "'aalt' Access All Alternates lookup 1 subtable" exclamdown.smcp exclamdown.case
EndChar
StartChar: cent
Encoding: 162 162 717
Width: 978
Flags: W
LayerCount: 2
Back
Fore
SplineSet
671.5 882.5 m 128,-1,1
 697 929 697 929 740 961 c 128,-1,2
 783 993 783 993 832 1006 c 1,3,4
 799 1047 799 1047 735 1047 c 0,5,6
 700 1047 700 1047 660 1031 c 1,7,-1
 409 97 l 1,8,9
 441 82 441 82 480 82 c 0,10,11
 628 82 628 82 750 262 c 1,12,-1
 791 246 l 1,13,14
 722 135 722 135 616 57.5 c 128,-1,15
 510 -20 510 -20 375 -28 c 1,16,-1
 283 -371 l 1,17,-1
 238 -371 l 1,18,-1
 330 -29 l 1,19,20
 187 -25 187 -25 102.5 55 c 128,-1,21
 18 135 18 135 18 286 c 0,22,23
 18 449 18 449 94 623.5 c 128,-1,24
 170 798 170 798 309.5 925 c 128,-1,25
 449 1052 449 1052 629 1080 c 1,26,-1
 728 1450 l 1,27,-1
 773 1450 l 1,28,-1
 675 1086 l 1,29,-1
 717 1087 l 2,30,31
 790 1087 790 1087 846.5 1061.5 c 128,-1,32
 903 1036 903 1036 934 991 c 128,-1,33
 965 946 965 946 965 890 c 0,34,35
 965 835 965 835 938 782.5 c 128,-1,36
 911 730 911 730 864.5 697 c 128,-1,37
 818 664 818 664 763 664 c 0,38,39
 712 664 712 664 679 696 c 128,-1,40
 646 728 646 728 646 782 c 256,41,0
 646 836 646 836 671.5 882.5 c 128,-1,1
465 832.5 m 128,-1,43
 400 721 400 721 362 577.5 c 128,-1,44
 324 434 324 434 324 286 c 0,45,46
 324 175 324 175 371 125 c 1,47,-1
 607 1000 l 1,48,42
 530 944 530 944 465 832.5 c 128,-1,43
EndSplineSet
Substitution2: "'smcp' Lowercase to Small Capitals lookup 24 subtable" cent.smcp
Substitution2: "'c2sc' Capitals to Small Capitals lookup 23 subtable" cent.smcp
Substitution2: "'aalt' Access All Alternates lookup 0 subtable" cent.smcp
EndChar
StartChar: sterling
Encoding: 163 163 722
Width: 1376
Flags: W
LayerCount: 2
Back
Fore
SplineSet
1043.5 1372 m 128,-1,1
 1088 1427 1088 1427 1160 1443 c 1,2,3
 1154 1457 1154 1457 1130 1467 c 128,-1,4
 1106 1477 1106 1477 1075 1477 c 0,5,6
 992 1477 992 1477 935 1434.5 c 128,-1,7
 878 1392 878 1392 841 1315.5 c 128,-1,8
 804 1239 804 1239 773 1122 c 2,9,-1
 703 854 l 1,10,-1
 981 854 l 1,11,-1
 968 813 l 1,12,-1
 692 813 l 1,13,-1
 681 770 l 2,14,15
 663 701 663 701 638 649 c 1,16,-1
 925 649 l 1,17,-1
 913 608 l 1,18,-1
 617 608 l 1,19,20
 578 541 578 541 530.5 492 c 128,-1,21
 483 443 483 443 402 373 c 0,22,23
 328 310 328 310 278.5 260.5 c 128,-1,24
 229 211 229 211 185 146 c 1,25,26
 380 312 380 312 564 312 c 0,27,28
 631 312 631 312 685 300 c 128,-1,29
 739 288 739 288 808 266 c 0,30,31
 865 248 865 248 899.5 239.5 c 128,-1,32
 934 231 934 231 971 231 c 0,33,34
 1016 231 1016 231 1046.5 254.5 c 128,-1,35
 1077 278 1077 278 1077 320 c 0,36,37
 1077 406 1077 406 934 434 c 1,38,-1
 944 471 l 1,39,40
 1055 454 1055 454 1130.5 398 c 128,-1,41
 1206 342 1206 342 1206 245 c 0,42,43
 1206 171 1206 171 1165.5 108 c 128,-1,44
 1125 45 1125 45 1053 8 c 128,-1,45
 981 -29 981 -29 891 -29 c 0,46,47
 814 -29 814 -29 753.5 -7.5 c 128,-1,48
 693 14 693 14 614 57 c 0,49,50
 532 100 532 100 473.5 121.5 c 128,-1,51
 415 143 415 143 339 143 c 0,52,53
 247 143 247 143 169 113 c 1,54,55
 129 44 129 44 74.5 7.5 c 128,-1,56
 20 -29 20 -29 -31 -29 c 0,57,58
 -46 -29 -46 -29 -52 -24.5 c 128,-1,59
 -58 -20 -58 -20 -58 -8 c 0,60,61
 -58 16 -58 16 -35 45.5 c 128,-1,62
 -12 75 -12 75 34 101 c 128,-1,63
 80 127 80 127 145 141 c 1,64,65
 188 224 188 224 221.5 309.5 c 128,-1,66
 255 395 255 395 290 528 c 2,67,-1
 311 608 l 1,68,-1
 112 608 l 1,69,-1
 125 649 l 1,70,-1
 322 649 l 1,71,-1
 366 813 l 1,72,-1
 168 813 l 1,73,-1
 180 854 l 1,74,-1
 377 854 l 1,75,-1
 389 899 l 2,76,77
 462 1176 462 1176 632.5 1341.5 c 128,-1,78
 803 1507 803 1507 1081 1507 c 0,79,80
 1156 1507 1156 1507 1210.5 1482 c 128,-1,81
 1265 1457 1265 1457 1293.5 1414.5 c 128,-1,82
 1322 1372 1322 1372 1322 1320 c 0,83,84
 1322 1261 1322 1261 1298 1214 c 128,-1,85
 1274 1167 1274 1167 1231.5 1141 c 128,-1,86
 1189 1115 1189 1115 1137 1115 c 0,87,88
 1074 1115 1074 1115 1036.5 1148 c 128,-1,89
 999 1181 999 1181 999 1242 c 0,90,0
 999 1317 999 1317 1043.5 1372 c 128,-1,1
EndSplineSet
Substitution2: "'smcp' Lowercase to Small Capitals lookup 24 subtable" sterling.smcp
Substitution2: "'c2sc' Capitals to Small Capitals lookup 23 subtable" sterling.smcp
Substitution2: "'aalt' Access All Alternates lookup 0 subtable" sterling.smcp
EndChar
StartChar: currency
Encoding: 164 164 718
Width: 1347
Flags: W
LayerCount: 2
Back
Fore
SplineSet
231 614 m 0,1,2
 231 726 231 726 289 827 c 1,3,-1
 170 947 l 1,4,-1
 344 1121 l 1,5,-1
 462 1002 l 1,6,7
 558 1061 558 1061 676 1061 c 256,8,9
 794 1061 794 1061 889 1001 c 1,10,-1
 1010 1122 l 1,11,-1
 1184 948 l 1,12,-1
 1064 827 l 1,13,14
 1123 728 1123 728 1123 614 c 0,15,16
 1123 499 1123 499 1064 400 c 1,17,-1
 1183 281 l 1,18,-1
 1009 106 l 1,19,-1
 888 227 l 1,20,21
 790 170 790 170 676 170 c 0,22,23
 556 170 556 170 463 227 c 1,24,-1
 345 108 l 1,25,-1
 170 283 l 1,26,-1
 289 401 l 1,27,0
 231 496 231 496 231 614 c 0,1,2
474.5 483 m 128,-1,29
 506 426 506 426 560.5 394 c 128,-1,30
 615 362 615 362 679 362 c 256,31,32
 743 362 743 362 797 394 c 128,-1,33
 851 426 851 426 882.5 483 c 128,-1,34
 914 540 914 540 914 614 c 256,35,36
 914 688 914 688 882.5 746 c 128,-1,37
 851 804 851 804 797 836.5 c 128,-1,38
 743 869 743 869 679 869 c 0,39,40
 614 869 614 869 560 836.5 c 128,-1,41
 506 804 506 804 474.5 746 c 128,-1,42
 443 688 443 688 443 614 c 256,43,28
 443 540 443 540 474.5 483 c 128,-1,29
EndSplineSet
Substitution2: "'smcp' Lowercase to Small Capitals lookup 24 subtable" currency.smcp
Substitution2: "'c2sc' Capitals to Small Capitals lookup 23 subtable" currency.smcp
Substitution2: "'aalt' Access All Alternates lookup 0 subtable" currency.smcp
EndChar
StartChar: yen
Encoding: 165 165 723
Width: 1590
Flags: W
LayerCount: 2
Back
Fore
SplineSet
1616 1455 m 128,-1,1
 1659 1431 1659 1431 1681.5 1390.5 c 128,-1,2
 1704 1350 1704 1350 1704 1301 c 0,3,4
 1704 1250 1704 1250 1680 1208 c 128,-1,5
 1656 1166 1656 1166 1613.5 1141.5 c 128,-1,6
 1571 1117 1571 1117 1518 1117 c 0,7,8
 1451 1117 1451 1117 1414 1151 c 128,-1,9
 1377 1185 1377 1185 1377 1242 c 0,10,11
 1377 1308 1377 1308 1420.5 1359.5 c 128,-1,12
 1464 1411 1464 1411 1531 1431 c 1,13,14
 1519 1441 1519 1441 1498 1441 c 0,15,16
 1438 1440 1438 1440 1374 1393 c 0,17,18
 1316 1351 1316 1351 1243 1254.5 c 128,-1,19
 1170 1158 1170 1158 1092.5 1008 c 128,-1,20
 1015 858 1015 858 950 667 c 1,21,-1
 936 608 l 1,22,-1
 1209 608 l 1,23,-1
 1199 567 l 1,24,-1
 925 567 l 1,25,-1
 894 444 l 1,26,-1
 1164 444 l 1,27,-1
 1154 403 l 1,28,-1
 884 403 l 1,29,-1
 837 217 l 2,30,31
 824 162 824 162 824 134 c 0,32,33
 824 97 824 97 840.5 78 c 128,-1,34
 857 59 857 59 890 51.5 c 128,-1,35
 923 44 923 44 982 41 c 1,36,-1
 972 0 l 1,37,38
 858 6 858 6 620 6 c 0,39,40
 398 6 398 6 290 0 c 1,41,-1
 300 41 l 1,42,43
 375 44 375 44 412 57 c 128,-1,44
 449 70 449 70 471 105.5 c 128,-1,45
 493 141 493 141 511 217 c 2,46,-1
 558 403 l 1,47,-1
 271 403 l 1,48,-1
 281 444 l 1,49,-1
 568 444 l 1,50,-1
 600 567 l 1,51,-1
 316 567 l 1,52,-1
 326 608 l 1,53,-1
 610 608 l 1,54,-1
 623 658 l 1,55,56
 592 937 592 937 534 1132.5 c 128,-1,57
 476 1328 476 1328 388 1328 c 0,58,59
 353 1328 353 1328 330.5 1302.5 c 128,-1,60
 308 1277 308 1277 293 1232 c 2,61,-1
 249 1102 l 1,62,-1
 204 1102 l 1,63,-1
 257 1260 l 2,64,65
 295 1376 295 1376 367.5 1427.5 c 128,-1,66
 440 1479 440 1479 545 1479 c 0,67,68
 679 1479 679 1479 755.5 1396 c 128,-1,69
 832 1313 832 1313 869.5 1161 c 128,-1,70
 907 1009 907 1009 936 748 c 1,71,72
 1004 939 1004 939 1090 1093 c 128,-1,73
 1176 1247 1176 1247 1271 1352 c 0,74,75
 1389 1479 1389 1479 1514 1479 c 0,76,0
 1573 1479 1573 1479 1616 1455 c 128,-1,1
EndSplineSet
Substitution2: "'smcp' Lowercase to Small Capitals lookup 24 subtable" yen.smcp
Substitution2: "'c2sc' Capitals to Small Capitals lookup 23 subtable" yen.smcp
Substitution2: "'aalt' Access All Alternates lookup 0 subtable" yen.smcp
EndChar
StartChar: section
Encoding: 167 167 773
Width: 1179
Flags: W
LayerCount: 2
Back
Fore
SplineSet
932 1442 m 128,-1,1
 974 1491 974 1491 1035 1516 c 1,2,3
 1026 1538 1026 1538 982 1550.5 c 128,-1,4
 938 1563 938 1563 888 1563 c 0,5,6
 817 1563 817 1563 754.5 1534 c 128,-1,7
 692 1505 692 1505 653.5 1447 c 128,-1,8
 615 1389 615 1389 615 1306 c 0,9,10
 615 1255 615 1255 638.5 1212.5 c 128,-1,11
 662 1170 662 1170 700.5 1133.5 c 128,-1,12
 739 1097 739 1097 810 1038 c 0,13,14
 823 1028 823 1028 849 1006 c 0,15,16
 946 924 946 924 994.5 876 c 128,-1,17
 1043 828 1043 828 1073 774.5 c 128,-1,18
 1103 721 1103 721 1103 657 c 0,19,20
 1103 415 1103 415 766 250 c 1,21,22
 859 145 859 145 859 37 c 0,23,24
 859 -92 859 -92 775.5 -188 c 128,-1,25
 692 -284 692 -284 562.5 -334.5 c 128,-1,26
 433 -385 433 -385 298 -385 c 0,27,28
 226 -385 226 -385 153 -369 c 128,-1,29
 80 -353 80 -353 27.5 -311.5 c 128,-1,30
 -25 -270 -25 -270 -25 -198 c 0,31,32
 -25 -149 -25 -149 0.5 -104.5 c 128,-1,33
 26 -60 26 -60 70 -33 c 128,-1,34
 114 -6 114 -6 167 -6 c 0,35,36
 225 -6 225 -6 258 -34.5 c 128,-1,37
 291 -63 291 -63 291 -111 c 0,38,39
 291 -174 291 -174 250 -224 c 128,-1,40
 209 -274 209 -274 145 -299 c 1,41,42
 155 -320 155 -320 199 -333 c 128,-1,43
 243 -346 243 -346 292 -346 c 0,44,45
 364 -346 364 -346 426.5 -317 c 128,-1,46
 489 -288 489 -288 527.5 -230 c 128,-1,47
 566 -172 566 -172 566 -88 c 0,48,49
 566 -39 566 -39 543 2.5 c 128,-1,50
 520 44 520 44 483.5 79.5 c 128,-1,51
 447 115 447 115 378 173 c 2,52,-1
 332 211 l 2,53,54
 236 291 236 291 186.5 339.5 c 128,-1,55
 137 388 137 388 107 442 c 128,-1,56
 77 496 77 496 77 559 c 0,57,58
 77 803 77 803 415 967 c 1,59,60
 321 1072 321 1072 321 1180 c 0,61,62
 321 1309 321 1309 404.5 1405 c 128,-1,63
 488 1501 488 1501 618 1551.5 c 128,-1,64
 748 1602 748 1602 882 1602 c 0,65,66
 952 1602 952 1602 1026.5 1585.5 c 128,-1,67
 1101 1569 1101 1569 1154.5 1527.5 c 128,-1,68
 1208 1486 1208 1486 1208 1416 c 0,69,70
 1208 1366 1208 1366 1182 1321.5 c 128,-1,71
 1156 1277 1156 1277 1111.5 1250 c 128,-1,72
 1067 1223 1067 1223 1013 1223 c 0,73,74
 954 1223 954 1223 922 1253.5 c 128,-1,75
 890 1284 890 1284 890 1334 c 0,76,0
 890 1393 890 1393 932 1442 c 128,-1,1
855 491 m 0,78,79
 855 538 855 538 829.5 581.5 c 128,-1,80
 804 625 804 625 753 672.5 c 128,-1,81
 702 720 702 720 607 795 c 0,82,83
 499 881 499 881 444 936 c 1,84,85
 324 844 324 844 324 730 c 0,86,87
 324 684 324 684 350.5 639 c 128,-1,88
 377 594 377 594 430 544 c 128,-1,89
 483 494 483 494 574 422 c 0,90,91
 682 337 682 337 738 280 c 1,92,93
 787 317 787 317 816 359.5 c 128,-1,94
 845 402 845 402 852 460 c 0,95,77
 855 476 855 476 855 491 c 0,78,79
EndSplineSet
Substitution2: "'smcp' Lowercase to Small Capitals lookup 24 subtable" section.smcp
Substitution2: "'c2sc' Capitals to Small Capitals lookup 23 subtable" section.smcp
Substitution2: "'aalt' Access All Alternates lookup 0 subtable" section.smcp
EndChar
StartChar: dieresis
Encoding: 168 168 797
Width: 799
Flags: W
LayerCount: 2
Back
Fore
SplineSet
35.5 1476.5 m 128,-1,1
 60 1516 60 1516 100.5 1536.5 c 128,-1,2
 141 1557 141 1557 188 1557 c 0,3,4
 252 1557 252 1557 286.5 1519.5 c 128,-1,5
 321 1482 321 1482 321 1420 c 0,6,7
 321 1367 321 1367 296 1328 c 128,-1,8
 271 1289 271 1289 230 1268.5 c 128,-1,9
 189 1248 189 1248 143 1248 c 0,10,11
 78 1248 78 1248 44.5 1285 c 128,-1,12
 11 1322 11 1322 11 1384 c 0,13,0
 11 1437 11 1437 35.5 1476.5 c 128,-1,1
501.5 1476.5 m 128,-1,15
 526 1516 526 1516 566.5 1536.5 c 128,-1,16
 607 1557 607 1557 654 1557 c 0,17,18
 718 1557 718 1557 752.5 1519.5 c 128,-1,19
 787 1482 787 1482 787 1420 c 0,20,21
 787 1367 787 1367 762 1328 c 128,-1,22
 737 1289 737 1289 696 1268.5 c 128,-1,23
 655 1248 655 1248 609 1248 c 0,24,25
 544 1248 544 1248 510.5 1285 c 128,-1,26
 477 1322 477 1322 477 1384 c 0,27,14
 477 1437 477 1437 501.5 1476.5 c 128,-1,15
EndSplineSet
Substitution2: "'case' Case-Sensitive Forms lookup 25 subtable" dieresis.case
Substitution2: "'smcp' Lowercase to Small Capitals lookup 24 subtable" dieresis.smcp
Substitution2: "'c2sc' Capitals to Small Capitals lookup 23 subtable" dieresis.smcp
AlternateSubs2: "'aalt' Access All Alternates lookup 1 subtable" dieresis.smcp dieresis.case
EndChar
StartChar: copyright
Encoding: 169 169 766
Width: 1865
Flags: W
LayerCount: 2
Back
Fore
SplineSet
275.5 1195.5 m 128,-1,1
 385 1383 385 1383 572 1492.5 c 128,-1,2
 759 1602 759 1602 981 1602 c 0,3,4
 1202 1602 1202 1602 1389.5 1492.5 c 128,-1,5
 1577 1383 1577 1383 1686.5 1195.5 c 128,-1,6
 1796 1008 1796 1008 1796 786 c 0,7,8
 1796 565 1796 565 1686.5 377.5 c 128,-1,9
 1577 190 1577 190 1389.5 80.5 c 128,-1,10
 1202 -29 1202 -29 981 -29 c 0,11,12
 759 -29 759 -29 572 80.5 c 128,-1,13
 385 190 385 190 275.5 377.5 c 128,-1,14
 166 565 166 565 166 786 c 0,15,0
 166 1008 166 1008 275.5 1195.5 c 128,-1,1
346.5 411 m 128,-1,17
 445 239 445 239 613 138 c 128,-1,18
 781 37 781 37 981 37 c 0,19,20
 1180 37 1180 37 1348.5 138 c 128,-1,21
 1517 239 1517 239 1615.5 411 c 128,-1,22
 1714 583 1714 583 1714 786 c 0,23,24
 1714 990 1714 990 1615.5 1162 c 128,-1,25
 1517 1334 1517 1334 1348.5 1435 c 128,-1,26
 1180 1536 1180 1536 981 1536 c 0,27,28
 781 1536 781 1536 613 1435 c 128,-1,29
 445 1334 445 1334 346.5 1162 c 128,-1,30
 248 990 248 990 248 786 c 0,31,16
 248 583 248 583 346.5 411 c 128,-1,17
1367 565 m 1,33,-1
 1404 552 l 1,34,35
 1378 468 1378 468 1325.5 395 c 128,-1,36
 1273 322 1273 322 1190 275.5 c 128,-1,37
 1107 229 1107 229 997 229 c 0,38,39
 859 229 859 229 751.5 288.5 c 128,-1,40
 644 348 644 348 581.5 472.5 c 128,-1,41
 519 597 519 597 519 782 c 0,42,43
 519 962 519 962 584 1089 c 128,-1,44
 649 1216 649 1216 764 1281 c 128,-1,45
 879 1346 879 1346 1027 1346 c 0,46,47
 1119 1346 1119 1346 1203.5 1318 c 128,-1,48
 1288 1290 1288 1290 1341.5 1232.5 c 128,-1,49
 1395 1175 1395 1175 1395 1092 c 0,50,51
 1395 1044 1395 1044 1374 1006.5 c 128,-1,52
 1353 969 1353 969 1316.5 948 c 128,-1,53
 1280 927 1280 927 1234 927 c 0,54,55
 1162 927 1162 927 1119 969.5 c 128,-1,56
 1076 1012 1076 1012 1076 1082 c 0,57,58
 1076 1143 1076 1143 1114.5 1187.5 c 128,-1,59
 1153 1232 1153 1232 1211 1246 c 1,60,61
 1192 1269 1192 1269 1151.5 1284 c 128,-1,62
 1111 1299 1111 1299 1067 1299 c 0,63,64
 954 1299 954 1299 891 1189.5 c 128,-1,65
 828 1080 828 1080 828 809 c 0,66,67
 828 646 828 646 866 546 c 128,-1,68
 904 446 904 446 964.5 403.5 c 128,-1,69
 1025 361 1025 361 1099 361 c 0,70,32
 1269 361 1269 361 1367 565 c 1,33,-1
EndSplineSet
EndChar
StartChar: ordfeminine
Encoding: 170 170 421
Width: 1090
GlyphClass: 2
Flags: W
LayerCount: 2
Back
Fore
SplineSet
1095 979 m 1,0,-1
 1068 904 l 2,1,2
 1036 817 1036 817 976.5 777 c 128,-1,3
 917 737 917 737 828 737 c 0,4,5
 678 737 678 737 678 869 c 0,6,7
 678 898 678 898 688 948 c 1,8,9
 629 833 629 833 557 785 c 128,-1,10
 485 737 485 737 400 737 c 0,11,12
 305 737 305 737 254 786 c 128,-1,13
 203 835 203 835 203 927 c 0,14,15
 203 1051 203 1051 282.5 1180.5 c 128,-1,16
 362 1310 362 1310 485.5 1394.5 c 128,-1,17
 609 1479 609 1479 731 1479 c 0,18,19
 811 1479 811 1479 818 1408 c 1,20,-1
 833 1460 l 1,21,22
 986 1460 986 1460 1100 1479 c 1,23,-1
 922 921 l 2,24,25
 912 889 912 889 912 872 c 0,26,27
 912 837 912 837 948 837 c 0,28,29
 1005 837 1005 837 1038 928 c 2,30,-1
 1057 979 l 1,31,-1
 1095 979 l 1,0,-1
592 872 m 128,-1,33
 631 911 631 911 669.5 978 c 128,-1,34
 708 1045 708 1045 738 1126 c 1,35,-1
 803 1354 l 1,36,37
 801 1393 801 1393 787 1411.5 c 128,-1,38
 773 1430 773 1430 753 1430 c 0,39,40
 700 1430 700 1430 634 1356 c 128,-1,41
 568 1282 568 1282 521.5 1167 c 128,-1,42
 475 1052 475 1052 475 938 c 0,43,44
 475 833 475 833 522 833 c 0,45,32
 553 833 553 833 592 872 c 128,-1,33
EndSplineSet
EndChar
StartChar: guillemotleft
Encoding: 171 171 657
Width: 1200
Flags: W
LayerCount: 2
Back
Fore
SplineSet
640 886.5 m 128,-1,1
 568 773 568 773 487.5 672 c 128,-1,2
 407 571 407 571 344 518 c 1,3,4
 386 468 386 468 427 370.5 c 128,-1,5
 468 273 468 273 497 164 c 128,-1,6
 526 55 526 55 534 -29 c 1,7,-1
 497 -29 l 1,8,9
 391 137 391 137 280.5 268.5 c 128,-1,10
 170 400 170 400 37 505 c 1,11,-1
 43 531 l 1,12,13
 220 642 220 642 381.5 777.5 c 128,-1,14
 543 913 543 913 717 1087 c 1,15,-1
 753 1087 l 1,16,0
 712 1000 712 1000 640 886.5 c 128,-1,1
1045 856 m 128,-1,18
 981 752 981 752 909.5 659.5 c 128,-1,19
 838 567 838 567 782 518 c 1,20,21
 818 472 818 472 854 383.5 c 128,-1,22
 890 295 890 295 915.5 195.5 c 128,-1,23
 941 96 941 96 946 20 c 1,24,-1
 910 20 l 1,25,26
 808 174 808 174 707.5 293 c 128,-1,27
 607 412 607 412 486 505 c 1,28,-1
 492 531 l 1,29,30
 653 631 653 631 800.5 755.5 c 128,-1,31
 948 880 948 880 1105 1038 c 1,32,-1
 1142 1038 l 1,33,17
 1109 960 1109 960 1045 856 c 128,-1,18
EndSplineSet
Substitution2: "'case' Case-Sensitive Forms lookup 25 subtable" guillemotleft.case
Substitution2: "'smcp' Lowercase to Small Capitals lookup 24 subtable" guillemotleft.smcp
Substitution2: "'c2sc' Capitals to Small Capitals lookup 23 subtable" guillemotleft.smcp
AlternateSubs2: "'aalt' Access All Alternates lookup 1 subtable" guillemotleft.smcp guillemotleft.case
EndChar
StartChar: logicalnot
Encoding: 172 172 734
Width: 1323
Flags: W
LayerCount: 2
Back
Fore
SplineSet
1219 758 m 1,0,-1
 1098 338 l 1,1,-1
 1024 338 l 1,2,-1
 1127 696 l 1,3,-1
 174 696 l 1,4,-1
 193 758 l 1,5,-1
 1219 758 l 1,0,-1
EndSplineSet
EndChar
StartChar: registered
Encoding: 174 174 772
Width: 1403
Flags: W
LayerCount: 2
Back
Fore
SplineSet
1101 1525 m 128,-1,1
 1232 1448 1232 1448 1309 1316.5 c 128,-1,2
 1386 1185 1386 1185 1386 1030 c 256,3,4
 1386 875 1386 875 1309 744 c 128,-1,5
 1232 613 1232 613 1101 536 c 128,-1,6
 970 459 970 459 815 459 c 256,7,8
 660 459 660 459 529 536 c 128,-1,9
 398 613 398 613 321 744 c 128,-1,10
 244 875 244 875 244 1030 c 256,11,12
 244 1185 244 1185 321 1316.5 c 128,-1,13
 398 1448 398 1448 529 1525 c 128,-1,14
 660 1602 660 1602 815 1602 c 256,15,0
 970 1602 970 1602 1101 1525 c 128,-1,1
1058.5 592.5 m 128,-1,17
 1170 661 1170 661 1235 777.5 c 128,-1,18
 1300 894 1300 894 1300 1030 c 0,19,20
 1300 1167 1300 1167 1235 1283 c 128,-1,21
 1170 1399 1170 1399 1059 1467.5 c 128,-1,22
 948 1536 948 1536 815 1536 c 256,23,24
 682 1536 682 1536 571 1467.5 c 128,-1,25
 460 1399 460 1399 395 1283 c 128,-1,26
 330 1167 330 1167 330 1030 c 0,27,28
 330 894 330 894 395 777.5 c 128,-1,29
 460 661 460 661 571.5 592.5 c 128,-1,30
 683 524 683 524 815 524 c 256,31,16
 947 524 947 524 1058.5 592.5 c 128,-1,17
1053 708 m 0,33,34
 988 708 988 708 954.5 729.5 c 128,-1,35
 921 751 921 751 912 797 c 2,36,-1
 882 946 l 2,37,38
 875 982 875 982 864.5 1000 c 128,-1,39
 854 1018 854 1018 829 1027 c 128,-1,40
 804 1036 804 1036 753 1039 c 1,41,-1
 753 827 l 2,42,43
 753 795 753 795 757 780 c 128,-1,44
 761 765 761 765 770.5 759.5 c 128,-1,45
 780 754 780 754 801 752 c 1,46,-1
 801 721 l 1,47,48
 766 721 766 721 746 722 c 2,49,-1
 672 723 l 1,50,-1
 585 722 l 2,51,52
 565 721 565 721 536 721 c 1,53,-1
 536 752 l 1,54,55
 556 754 556 754 565.5 759.5 c 128,-1,56
 575 765 575 765 579 780 c 128,-1,57
 583 795 583 795 583 827 c 2,58,-1
 583 1276 l 2,59,60
 583 1309 583 1309 579 1324.5 c 128,-1,61
 575 1340 575 1340 565.5 1346 c 128,-1,62
 556 1352 556 1352 536 1354 c 1,63,-1
 536 1384 l 1,64,65
 565 1382 565 1382 663 1382 c 2,66,-1
 791 1383 l 2,67,68
 812 1384 812 1384 839 1384 c 0,69,70
 1089 1384 1089 1384 1089 1223 c 0,71,72
 1089 1167 1089 1167 1041.5 1120.5 c 128,-1,73
 994 1074 994 1074 878 1056 c 1,74,75
 942 1050 942 1050 979.5 1035.5 c 128,-1,76
 1017 1021 1017 1021 1035 997 c 128,-1,77
 1053 973 1053 973 1060 936 c 2,78,-1
 1091 802 l 2,79,80
 1095 777 1095 777 1101.5 765.5 c 128,-1,81
 1108 754 1108 754 1121 754 c 256,82,83
 1134 754 1134 754 1145 766 c 1,84,-1
 1160 746 l 1,85,32
 1128 708 1128 708 1053 708 c 0,33,34
763.5 1342 m 128,-1,87
 753 1330 753 1330 753 1296 c 2,88,-1
 753 1073 l 1,89,-1
 778 1073 l 2,90,91
 917 1073 917 1073 917 1211 c 0,92,93
 917 1354 917 1354 807 1354 c 0,94,86
 774 1354 774 1354 763.5 1342 c 128,-1,87
EndSplineSet
EndChar
StartChar: degree
Encoding: 176 176 769
Width: 682
Flags: W
LayerCount: 2
Back
Fore
SplineSet
658 1649 m 128,-1,1
 715 1619 715 1619 749 1563 c 128,-1,2
 783 1507 783 1507 783 1434 c 0,3,4
 783 1359 783 1359 749 1303 c 128,-1,5
 715 1247 715 1247 658 1216.5 c 128,-1,6
 601 1186 601 1186 534 1186 c 256,7,8
 467 1186 467 1186 410.5 1216.5 c 128,-1,9
 354 1247 354 1247 320 1303 c 128,-1,10
 286 1359 286 1359 286 1434 c 0,11,12
 286 1507 286 1507 320 1563 c 128,-1,13
 354 1619 354 1619 410.5 1649 c 128,-1,14
 467 1679 467 1679 534 1679 c 256,15,0
 601 1679 601 1679 658 1649 c 128,-1,1
628 1248 m 128,-1,17
 674 1272 674 1272 703.5 1319.5 c 128,-1,18
 733 1367 733 1367 733 1433 c 0,19,20
 733 1497 733 1497 703.5 1544.5 c 128,-1,21
 674 1592 674 1592 628 1616.5 c 128,-1,22
 582 1641 582 1641 534 1641 c 256,23,24
 486 1641 486 1641 440 1616.5 c 128,-1,25
 394 1592 394 1592 365 1544.5 c 128,-1,26
 336 1497 336 1497 336 1433 c 0,27,28
 336 1367 336 1367 365 1319.5 c 128,-1,29
 394 1272 394 1272 439.5 1248 c 128,-1,30
 485 1224 485 1224 534 1224 c 0,31,16
 582 1224 582 1224 628 1248 c 128,-1,17
EndSplineSet
EndChar
StartChar: acute
Encoding: 180 180 791
Width: 457
Flags: W
LayerCount: 2
Back
Fore
SplineSet
413 1488 m 0,1,2
 456 1562 456 1562 481.5 1600.5 c 128,-1,3
 507 1639 507 1639 539 1671 c 0,4,5
 562 1696 562 1696 592 1710 c 128,-1,6
 622 1724 622 1724 651 1724 c 0,7,8
 694 1724 694 1724 726 1695 c 0,9,10
 753 1668 753 1668 753 1632 c 0,11,12
 753 1577 753 1577 694 1520 c 0,13,14
 665 1491 665 1491 629.5 1465.5 c 128,-1,15
 594 1440 594 1440 523 1395 c 0,16,17
 379 1304 379 1304 280 1227 c 1,18,-1
 259 1246 l 1,19,0
 315 1325 315 1325 413 1488 c 0,1,2
EndSplineSet
Substitution2: "'case' Case-Sensitive Forms lookup 25 subtable" acute.case
Substitution2: "'smcp' Lowercase to Small Capitals lookup 24 subtable" acute.smcp
Substitution2: "'c2sc' Capitals to Small Capitals lookup 23 subtable" acute.smcp
Substitution2: "'locl' Localized Forms in Latin lookup 7 subtable" acute.loclPLK
AlternateSubs2: "'aalt' Access All Alternates lookup 1 subtable" acute.loclPLK acute.smcp acute.case
EndChar
StartChar: paragraph
Encoding: 182 182 771
Width: 1451
Flags: W
LayerCount: 2
Back
Fore
SplineSet
236 104 m 128,-1,1
 80 235 80 235 80 469 c 0,2,3
 80 737 80 737 208.5 962.5 c 128,-1,4
 337 1188 337 1188 558 1320 c 128,-1,5
 779 1452 779 1452 1045 1452 c 0,6,7
 1057 1452 1057 1452 1246 1449 c 0,8,9
 1333 1446 1333 1446 1413 1446 c 0,10,11
 1547 1446 1547 1446 1610 1450 c 1,12,-1
 1600 1411 l 1,13,14
 1535 1408 1535 1408 1497 1392.5 c 128,-1,15
 1459 1377 1459 1377 1438.5 1348.5 c 128,-1,16
 1418 1320 1418 1320 1405 1272 c 2,17,-1
 1113 156 l 2,18,19
 1046 -100 1046 -100 899.5 -242.5 c 128,-1,20
 753 -385 753 -385 498 -385 c 0,21,22
 369 -385 369 -385 291 -348 c 128,-1,23
 213 -311 213 -311 212 -231 c 0,24,25
 212 -188 212 -188 233.5 -152 c 128,-1,26
 255 -116 255 -116 295 -95 c 128,-1,27
 335 -74 335 -74 388 -74 c 0,28,29
 455 -74 455 -74 497 -104 c 128,-1,30
 539 -134 539 -134 539 -189 c 0,31,32
 539 -288 539 -288 431 -344 c 1,33,34
 458 -351 458 -351 488 -351 c 0,35,36
 549 -351 549 -351 591.5 -315 c 128,-1,37
 634 -279 634 -279 665.5 -210.5 c 128,-1,38
 697 -142 697 -142 731 -27 c 1,39,0
 392 -27 392 -27 236 104 c 128,-1,1
784 351 m 128,-1,41
 764 200 764 200 764 128 c 0,42,43
 764 98 764 98 768 98 c 0,44,45
 820 291 820 291 960 814.5 c 128,-1,46
 1100 1338 1100 1338 1102 1343 c 1,47,48
 1095 1343 1095 1343 1054.5 1258 c 128,-1,49
 1014 1173 1014 1173 962 1039.5 c 128,-1,50
 910 906 910 906 867 762 c 1,51,52
 726 762 726 762 596 753.5 c 128,-1,53
 466 745 466 745 382 734.5 c 128,-1,54
 298 724 298 724 297 719 c 0,55,56
 296 713 296 713 372.5 703 c 128,-1,57
 449 693 449 693 575 685.5 c 128,-1,58
 701 678 701 678 844 678 c 1,59,40
 804 502 804 502 784 351 c 128,-1,41
EndSplineSet
Substitution2: "'smcp' Lowercase to Small Capitals lookup 24 subtable" paragraph.smcp
Substitution2: "'c2sc' Capitals to Small Capitals lookup 23 subtable" paragraph.smcp
Substitution2: "'aalt' Access All Alternates lookup 0 subtable" paragraph.smcp
EndChar
StartChar: cedilla
Encoding: 184 184 794
Width: 467
Flags: W
LayerCount: 2
Back
Fore
SplineSet
302 -121 m 0,1,2
 357 -121 357 -121 391.5 -143 c 128,-1,3
 426 -165 426 -165 426 -206 c 0,4,5
 426 -267 426 -267 377 -307 c 128,-1,6
 328 -347 328 -347 251 -366 c 128,-1,7
 174 -385 174 -385 91 -385 c 0,8,9
 33 -385 33 -385 -16.5 -372.5 c 128,-1,10
 -66 -360 -66 -360 -93 -345 c 1,11,-1
 -80 -313 l 1,12,13
 -14 -336 -14 -336 44 -336 c 0,14,15
 98 -336 98 -336 151 -315 c 128,-1,16
 204 -294 204 -294 204 -242 c 0,17,18
 204 -220 204 -220 189 -207.5 c 128,-1,19
 174 -195 174 -195 147 -195 c 0,20,21
 112 -195 112 -195 83 -209 c 1,22,-1
 224 0 l 1,23,-1
 282 0 l 1,24,-1
 193 -141 l 1,25,0
 255 -121 255 -121 302 -121 c 0,1,2
EndSplineSet
Substitution2: "'case' Case-Sensitive Forms lookup 25 subtable" cedilla.case
Substitution2: "'smcp' Lowercase to Small Capitals lookup 24 subtable" cedilla.smcp
Substitution2: "'c2sc' Capitals to Small Capitals lookup 23 subtable" cedilla.smcp
AlternateSubs2: "'aalt' Access All Alternates lookup 1 subtable" cedilla.smcp cedilla.case
EndChar
StartChar: ordmasculine
Encoding: 186 186 422
Width: 1006
GlyphClass: 2
Flags: W
LayerCount: 2
Back
Fore
SplineSet
276 1204.5 m 128,-1,1
 338 1320 338 1320 456.5 1399.5 c 128,-1,2
 575 1479 575 1479 735 1479 c 0,3,4
 886 1479 886 1479 971 1415.5 c 128,-1,5
 1056 1352 1056 1352 1056 1227 c 0,6,7
 1056 1127 1056 1127 994.5 1012 c 128,-1,8
 933 897 933 897 814.5 818 c 128,-1,9
 696 739 696 739 536 739 c 0,10,11
 385 739 385 739 299.5 802 c 128,-1,12
 214 865 214 865 214 989 c 0,13,0
 214 1089 214 1089 276 1204.5 c 128,-1,1
605 1357 m 128,-1,15
 546 1272 546 1272 509 1143.5 c 128,-1,16
 472 1015 472 1015 472 895 c 0,17,18
 472 776 472 776 546 776 c 0,19,20
 607 776 607 776 665.5 860.5 c 128,-1,21
 724 945 724 945 761 1073.5 c 128,-1,22
 798 1202 798 1202 798 1323 c 0,23,24
 798 1442 798 1442 724 1442 c 0,25,14
 664 1442 664 1442 605 1357 c 128,-1,15
EndSplineSet
EndChar
StartChar: guillemotright
Encoding: 187 187 658
Width: 1198
Flags: W
LayerCount: 2
Back
Fore
SplineSet
879.5 788.5 m 128,-1,1
 990 657 990 657 1123 552 c 1,2,-1
 1117 526 l 1,3,4
 938 415 938 415 776 279.5 c 128,-1,5
 614 144 614 144 443 -29 c 1,6,-1
 406 -29 l 1,7,8
 446 58 446 58 518.5 171.5 c 128,-1,9
 591 285 591 285 671 385.5 c 128,-1,10
 751 486 751 486 814 539 c 1,11,12
 773 590 773 590 732 687.5 c 128,-1,13
 691 785 691 785 662 894.5 c 128,-1,14
 633 1004 633 1004 626 1087 c 1,15,-1
 663 1087 l 1,16,0
 769 920 769 920 879.5 788.5 c 128,-1,1
453 763.5 m 128,-1,18
 553 645 553 645 674 552 c 1,19,-1
 667 526 l 1,20,21
 373 344 373 344 56 20 c 1,22,-1
 19 20 l 1,23,24
 53 99 53 99 116.5 202.5 c 128,-1,25
 180 306 180 306 250.5 398 c 128,-1,26
 321 490 321 490 376 539 c 1,27,28
 341 585 341 585 305 674 c 128,-1,29
 269 763 269 763 244 863 c 128,-1,30
 219 963 219 963 213 1038 c 1,31,-1
 250 1038 l 1,32,17
 353 882 353 882 453 763.5 c 128,-1,18
EndSplineSet
Substitution2: "'case' Case-Sensitive Forms lookup 25 subtable" guillemotright.case
Substitution2: "'smcp' Lowercase to Small Capitals lookup 24 subtable" guillemotright.smcp
Substitution2: "'c2sc' Capitals to Small Capitals lookup 23 subtable" guillemotright.smcp
AlternateSubs2: "'aalt' Access All Alternates lookup 1 subtable" guillemotright.smcp guillemotright.case
EndChar
StartChar: questiondown
Encoding: 191 191 683
Width: 999
Flags: W
LayerCount: 2
Back
Fore
SplineSet
455 991.5 m 128,-1,1
 481 1036 481 1036 526 1062 c 128,-1,2
 571 1088 571 1088 626 1088 c 0,3,4
 692 1088 692 1088 728 1055 c 128,-1,5
 764 1022 764 1022 764 963 c 0,6,7
 764 914 764 914 737 870 c 128,-1,8
 710 826 710 826 664 798.5 c 128,-1,9
 618 771 618 771 565 771 c 0,10,11
 501 771 501 771 465 803.5 c 128,-1,12
 429 836 429 836 429 892 c 0,13,0
 429 947 429 947 455 991.5 c 128,-1,1
484 -327 m 128,-1,15
 537 -314 537 -314 560 -289 c 1,16,17
 510 -283 510 -283 474.5 -247 c 128,-1,18
 439 -211 439 -211 439 -161 c 0,19,20
 439 -122 439 -122 460 -91 c 128,-1,21
 481 -60 481 -60 516.5 -42.5 c 128,-1,22
 552 -25 552 -25 594 -25 c 0,23,24
 652 -25 652 -25 690.5 -58 c 128,-1,25
 729 -91 729 -91 729 -152 c 0,26,27
 729 -231 729 -231 664 -283.5 c 128,-1,28
 599 -336 599 -336 498.5 -360.5 c 128,-1,29
 398 -385 398 -385 290 -385 c 0,30,31
 175 -385 175 -385 89 -358 c 128,-1,32
 3 -331 3 -331 -44 -279.5 c 128,-1,33
 -91 -228 -91 -228 -91 -156 c 0,34,35
 -91 -96 -91 -96 -58.5 -46 c 128,-1,36
 -26 4 -26 4 38 54 c 128,-1,37
 102 104 102 104 229 189 c 0,38,39
 251 205 251 205 249 203 c 1,40,41
 349 272 349 272 396 309.5 c 128,-1,42
 443 347 443 347 469.5 388 c 128,-1,43
 496 429 496 429 496 480 c 0,44,45
 496 534 496 534 462.5 570 c 128,-1,46
 429 606 429 606 361 606 c 0,47,48
 316 606 316 606 271 592.5 c 128,-1,49
 226 579 226 579 205 558 c 1,50,51
 243 556 243 556 274.5 525 c 128,-1,52
 306 494 306 494 306 450 c 0,53,54
 306 417 306 417 288 389.5 c 128,-1,55
 270 362 270 362 238 346 c 128,-1,56
 206 330 206 330 166 330 c 0,57,58
 115 330 115 330 83.5 356.5 c 128,-1,59
 52 383 52 383 52 435 c 0,60,61
 52 507 52 507 114 555 c 128,-1,62
 176 603 176 603 268 625.5 c 128,-1,63
 360 648 360 648 450 648 c 0,64,65
 547 648 547 648 623.5 623.5 c 128,-1,66
 700 599 700 599 744 551 c 128,-1,67
 788 503 788 503 788 437 c 0,68,69
 788 374 788 374 749.5 318 c 128,-1,70
 711 262 711 262 654 216.5 c 128,-1,71
 597 171 597 171 497 102 c 2,72,-1
 477 88 l 2,73,74
 372 18 372 18 318.5 -23.5 c 128,-1,75
 265 -65 265 -65 237.5 -107 c 128,-1,76
 210 -149 210 -149 210 -200 c 0,77,78
 210 -266 210 -266 257 -303 c 128,-1,79
 304 -340 304 -340 382 -340 c 0,80,14
 431 -340 431 -340 484 -327 c 128,-1,15
EndSplineSet
Substitution2: "'case' Case-Sensitive Forms lookup 25 subtable" questiondown.case
Substitution2: "'smcp' Lowercase to Small Capitals lookup 24 subtable" questiondown.smcp
Substitution2: "'c2sc' Capitals to Small Capitals lookup 23 subtable" questiondown.smcp
AlternateSubs2: "'aalt' Access All Alternates lookup 1 subtable" questiondown.smcp questiondown.case
EndChar
StartChar: AE
Encoding: 198 198 12
Width: 1853
GlyphClass: 2
Flags: W
AnchorPoint: "Anchor-5" 0 0 basechar 0
AnchorPoint: "Anchor-4" 1151 1450 basechar 0
AnchorPoint: "Anchor-3" 0 0 basechar 0
LayerCount: 2
Back
Fore
SplineSet
1950 1450 m 1,1,2
 1918 1361 1918 1361 1872 1208 c 0,3,4
 1853 1140 1853 1140 1845 1081 c 1,5,-1
 1800 1081 l 1,6,7
 1815 1166 1815 1166 1815 1226 c 0,8,9
 1815 1322 1815 1322 1772.5 1362.5 c 128,-1,10
 1730 1403 1730 1403 1634 1403 c 2,11,-1
 1505 1403 l 2,12,13
 1434 1403 1434 1403 1398.5 1391 c 128,-1,14
 1363 1379 1363 1379 1341.5 1344.5 c 128,-1,15
 1320 1310 1320 1310 1300 1233 c 2,16,-1
 1172 750 l 1,17,-1
 1331 750 l 2,18,19
 1389 750 1389 750 1427.5 780.5 c 128,-1,20
 1466 811 1466 811 1489.5 856.5 c 128,-1,21
 1513 902 1513 902 1542 979 c 1,22,-1
 1587 979 l 1,23,24
 1559 894 1559 894 1531 780 c 2,25,-1
 1518 729 l 2,26,27
 1496 654 1496 654 1464 479 c 1,28,-1
 1419 479 l 1,29,30
 1419 489 1419 489 1424 542 c 0,31,32
 1430 586 1430 586 1430 606 c 0,33,34
 1430 651 1430 651 1407 678 c 128,-1,35
 1384 705 1384 705 1323 709 c 1,36,-1
 1161 709 l 1,37,-1
 1030 217 l 2,38,39
 1013 151 1013 151 1013 118 c 0,40,41
 1013 88 1013 88 1026.5 73 c 128,-1,42
 1040 58 1040 58 1068 52.5 c 128,-1,43
 1096 47 1096 47 1147 47 c 2,44,-1
 1296 47 l 2,45,46
 1395 47 1395 47 1458.5 81 c 128,-1,47
 1522 115 1522 115 1568.5 192 c 128,-1,48
 1615 269 1615 269 1663 410 c 1,49,-1
 1708 410 l 1,50,51
 1689 360 1689 360 1665 262 c 0,52,53
 1630 135 1630 135 1612 0 c 1,54,55
 1473 6 1473 6 1149 6 c 0,56,57
 708 6 708 6 485 0 c 1,58,-1
 494 41 l 1,59,60
 568 44 568 44 604.5 57 c 128,-1,61
 641 70 641 70 663 105 c 128,-1,62
 685 140 685 140 705 217 c 2,63,-1
 836 709 l 1,64,-1
 508 709 l 1,65,-1
 70 193 l 2,66,67
 11 126 11 126 11 96 c 0,68,69
 11 51 11 51 137 41 c 1,70,-1
 137 0 l 1,71,72
 81 6 81 6 -39 6 c 0,73,74
 -127 6 -127 6 -176 0 c 1,75,-1
 -176 41 l 1,76,77
 -113 44 -113 44 0 172 c 2,78,-1
 992 1340 l 1,79,80
 989 1379 989 1379 958.5 1392.5 c 128,-1,81
 928 1406 928 1406 854 1409 c 1,82,-1
 864 1450 l 1,83,84
 932 1448 932 1448 1082 1446 c 1,85,-1
 1198 1583 l 1,86,-1
 1251 1583 l 1,87,-1
 1134 1445 l 1,88,89
 1250 1444 1250 1444 1351.5 1444 c 128,-1,90
 1453 1444 1453 1444 1529 1444 c 0,91,0
 1822 1444 1822 1444 1950 1450 c 1,1,2
975 1233 m 1,92,-1
 984 1268 l 1,93,-1
 543 750 l 1,94,-1
 847 750 l 1,95,-1
 975 1233 l 1,92,-1
EndSplineSet
Substitution2: "'c2sc' Capitals to Small Capitals lookup 23 subtable" ae.smcp
Substitution2: "'aalt' Access All Alternates lookup 0 subtable" ae.smcp
Position2: "'cpsp' Capital Spacing lookup 0 subtable" dx=20 dy=0 dh=20 dv=0
EndChar
StartChar: Ccedilla
Encoding: 199 199 17
Width: 1419
GlyphClass: 2
Flags: W
AnchorPoint: "Anchor-5" 649 0 basechar 0
AnchorPoint: "Anchor-4" 1025 1450 basechar 0
AnchorPoint: "Anchor-3" 0 0 basechar 0
LayerCount: 2
Back
Fore
SplineSet
1395 979 m 1,1,-1
 1350 979 l 1,2,3
 1366 1077 1366 1077 1366 1142 c 0,4,5
 1366 1236 1366 1236 1333 1296 c 0,6,7
 1260 1430 1260 1430 1091 1430 c 0,8,9
 926 1430 926 1430 778 1285.5 c 128,-1,10
 630 1141 630 1141 540.5 910.5 c 128,-1,11
 451 680 451 680 451 438 c 0,12,13
 451 235 451 235 524.5 134 c 128,-1,14
 598 33 598 33 729 33 c 0,15,16
 807 33 807 33 890 69 c 128,-1,17
 973 105 973 105 1034 168 c 0,18,19
 1087 223 1087 223 1127 294.5 c 128,-1,20
 1167 366 1167 366 1219 492 c 1,21,-1
 1264 492 l 1,22,23
 1167 137 1167 137 1143 0 c 1,24,-1
 1098 0 l 1,25,26
 1104 44 1104 44 1104 70 c 0,27,28
 1104 122 1104 122 1079 122 c 0,29,30
 1063 122 1063 122 1037 104 c 0,31,32
 947 43 947 43 858.5 9 c 128,-1,33
 770 -25 770 -25 661 -29 c 1,34,-1
 615 -129 l 1,35,36
 672 -109 672 -109 733 -109 c 0,37,38
 797 -109 797 -109 834 -133.5 c 128,-1,39
 871 -158 871 -158 871 -206 c 0,40,41
 871 -267 871 -267 819.5 -307 c 128,-1,42
 768 -347 768 -347 688.5 -366 c 128,-1,43
 609 -385 609 -385 523 -385 c 0,44,45
 454 -385 454 -385 393.5 -372.5 c 128,-1,46
 333 -360 333 -360 299 -345 c 1,47,-1
 312 -313 l 1,48,49
 388 -336 388 -336 477 -336 c 0,50,51
 544 -336 544 -336 602.5 -315 c 128,-1,52
 661 -294 661 -294 661 -242 c 0,53,54
 661 -195 661 -195 596 -195 c 0,55,56
 560 -195 560 -195 524 -209 c 1,57,-1
 606 -29 l 1,58,59
 346 -22 346 -22 216 108.5 c 128,-1,60
 86 239 86 239 86 478 c 0,61,62
 86 720 86 720 214.5 952.5 c 128,-1,63
 343 1185 343 1185 568 1332 c 128,-1,64
 793 1479 793 1479 1066 1479 c 0,65,66
 1145 1479 1145 1479 1201.5 1461 c 128,-1,67
 1258 1443 1258 1443 1295.5 1415 c 128,-1,68
 1333 1387 1333 1387 1370 1346 c 0,69,70
 1385 1328 1385 1328 1400 1328 c 0,71,72
 1437 1328 1437 1328 1483 1450 c 1,73,-1
 1526 1450 l 1,74,0
 1458 1273 1458 1273 1395 979 c 1,1,-1
EndSplineSet
Substitution2: "'c2sc' Capitals to Small Capitals lookup 23 subtable" ccedilla.smcp
Substitution2: "'aalt' Access All Alternates lookup 0 subtable" ccedilla.smcp
Position2: "'cpsp' Capital Spacing lookup 0 subtable" dx=20 dy=0 dh=20 dv=0
EndChar
StartChar: Eth
Encoding: 208 208 21
Width: 1579
GlyphClass: 2
Flags: W
AnchorPoint: "Anchor-5" 0 0 basechar 0
AnchorPoint: "Anchor-4" 910 1450 basechar 0
AnchorPoint: "Anchor-3" 0 0 basechar 0
LayerCount: 2
Back
Fore
SplineSet
1389.5 1326 m 128,-1,1
 1549 1202 1549 1202 1549 961 c 0,2,3
 1549 726 1549 726 1434 504.5 c 128,-1,4
 1319 283 1319 283 1090.5 141.5 c 128,-1,5
 862 0 862 0 539 0 c 0,6,7
 519 0 519 0 437 2 c 0,8,9
 323 6 323 6 230 6 c 0,10,11
 28 6 28 6 -77 0 c 1,12,-1
 -71 41 l 1,13,14
 -1 44 -1 44 34.5 57 c 128,-1,15
 70 70 70 70 92 105.5 c 128,-1,16
 114 141 114 141 134 217 c 2,17,-1
 263 707 l 1,18,-1
 156 707 l 1,19,-1
 168 759 l 1,20,-1
 277 759 l 1,21,-1
 402 1233 l 2,22,23
 417 1291 417 1291 417 1321 c 0,24,25
 417 1364 417 1364 387.5 1384.5 c 128,-1,26
 358 1405 358 1405 283 1409 c 1,27,-1
 289 1450 l 1,28,29
 431 1443 431 1443 560 1443 c 2,30,-1
 625 1444 l 2,31,32
 841 1450 841 1450 931 1450 c 0,33,0
 1230 1450 1230 1450 1389.5 1326 c 128,-1,1
902 182 m 128,-1,35
 1056 327 1056 327 1136.5 555 c 128,-1,36
 1217 783 1217 783 1217 1025 c 0,37,38
 1217 1219 1217 1219 1137.5 1316 c 128,-1,39
 1058 1413 1058 1413 886 1413 c 0,40,41
 833 1413 833 1413 806.5 1400 c 128,-1,42
 780 1387 780 1387 764.5 1352.5 c 128,-1,43
 749 1318 749 1318 727 1237 c 2,44,-1
 602 759 l 1,45,-1
 988 759 l 1,46,-1
 975 707 l 1,47,-1
 588 707 l 1,48,-1
 459 213 l 2,49,50
 437 130 437 130 437 100 c 0,51,52
 437 65 437 65 459.5 51 c 128,-1,53
 482 37 482 37 539 37 c 0,54,34
 748 37 748 37 902 182 c 128,-1,35
EndSplineSet
Substitution2: "'c2sc' Capitals to Small Capitals lookup 23 subtable" eth.smcp
Substitution2: "'aalt' Access All Alternates lookup 0 subtable" eth.smcp
Position2: "'cpsp' Capital Spacing lookup 0 subtable" dx=20 dy=0 dh=20 dv=0
EndChar
StartChar: multiply
Encoding: 215 215 736
Width: 1016
Flags: W
LayerCount: 2
Back
Fore
SplineSet
238 1085 m 1,0,-1
 291 1122 l 1,1,-1
 543 764 l 1,2,-1
 1008 1126 l 1,3,-1
 1041 1081 l 1,4,-1
 576 721 l 1,5,-1
 832 367 l 1,6,-1
 781 330 l 1,7,-1
 527 684 l 1,8,-1
 68 328 l 1,9,-1
 37 373 l 1,10,-1
 494 727 l 1,11,-1
 238 1085 l 1,0,-1
EndSplineSet
EndChar
StartChar: Oslash
Encoding: 216 216 80
Width: 1591
GlyphClass: 2
Flags: W
AnchorPoint: "Anchor-5" 653 0 basechar 0
AnchorPoint: "Anchor-4" 797 1450 basechar 0
AnchorPoint: "Anchor-3" 0 0 basechar 0
LayerCount: 2
Back
Fore
SplineSet
1571 985 m 0,1,2
 1571 754 1571 754 1451.5 517.5 c 128,-1,3
 1332 281 1332 281 1119 126 c 128,-1,4
 906 -29 906 -29 641 -29 c 0,5,6
 398 -29 398 -29 254 83 c 1,7,-1
 29 -150 l 1,8,-1
 -5 -121 l 1,9,-1
 219 112 l 1,10,11
 86 242 86 242 86 463 c 0,12,13
 86 695 86 695 204.5 932 c 128,-1,14
 323 1169 323 1169 535 1324 c 128,-1,15
 747 1479 747 1479 1014 1479 c 0,16,17
 1262 1479 1262 1479 1407 1363 c 1,18,-1
 1617 1583 l 1,19,-1
 1647 1556 l 1,20,-1
 1439 1335 l 1,21,0
 1571 1206 1571 1206 1571 985 c 0,1,2
726.5 1294.5 m 128,-1,23
 597 1147 597 1147 517.5 913 c 128,-1,24
 438 679 438 679 438 436 c 0,25,26
 438 365 438 365 447 303 c 1,27,-1
 1205 1169 l 1,28,29
 1183 1299 1183 1299 1127.5 1370.5 c 128,-1,30
 1072 1442 1072 1442 995 1442 c 0,31,22
 856 1442 856 1442 726.5 1294.5 c 128,-1,23
928 155.5 m 128,-1,33
 1057 303 1057 303 1137 537 c 128,-1,34
 1217 771 1217 771 1217 1014 c 0,35,36
 1217 1061 1217 1061 1212 1114 c 1,37,-1
 456 247 l 1,38,39
 481 133 481 133 534 70.5 c 128,-1,40
 587 8 587 8 659 8 c 0,41,32
 799 8 799 8 928 155.5 c 128,-1,33
EndSplineSet
Substitution2: "'c2sc' Capitals to Small Capitals lookup 23 subtable" oslash.smcp
Substitution2: "'aalt' Access All Alternates lookup 0 subtable" oslash.smcp
Position2: "'cpsp' Capital Spacing lookup 0 subtable" dx=20 dy=0 dh=20 dv=0
EndChar
StartChar: Thorn
Encoding: 222 222 84
Width: 1353
GlyphClass: 2
Flags: W
AnchorPoint: "Anchor-5" 237 0 basechar 0
AnchorPoint: "Anchor-4" 667 1450 basechar 0
AnchorPoint: "Anchor-3" 547 0 basechar 0
LayerCount: 2
Back
Fore
SplineSet
441 118 m 0,1,2
 441 88 441 88 454.5 72 c 128,-1,3
 468 56 468 56 497 49.5 c 128,-1,4
 526 43 526 43 579 41 c 1,5,-1
 571 0 l 1,6,7
 452 6 452 6 237 6 c 0,8,9
 23 6 23 6 -85 0 c 1,10,-1
 -75 41 l 1,11,12
 -4 44 -4 44 32 57 c 128,-1,13
 68 70 68 70 90 105.5 c 128,-1,14
 112 141 112 141 132 217 c 2,15,-1
 403 1233 l 2,16,17
 420 1298 420 1298 420 1331 c 0,18,19
 420 1362 420 1362 406 1378 c 128,-1,20
 392 1394 392 1394 363.5 1400.5 c 128,-1,21
 335 1407 335 1407 282 1409 c 1,22,-1
 292 1450 l 1,23,24
 394 1444 394 1444 614 1444 c 0,25,26
 818 1444 818 1444 949 1450 c 1,27,-1
 939 1409 l 1,28,29
 864 1406 864 1406 827.5 1393 c 128,-1,30
 791 1380 791 1380 769.5 1345 c 128,-1,31
 748 1310 748 1310 728 1233 c 2,32,-1
 706 1151 l 1,33,34
 814 1153 814 1153 869 1153 c 0,35,36
 1029 1153 1029 1153 1136.5 1115 c 128,-1,37
 1244 1077 1244 1077 1297 1007.5 c 128,-1,38
 1350 938 1350 938 1350 844 c 0,39,40
 1350 684 1350 684 1243 557.5 c 128,-1,41
 1136 431 1136 431 944 359 c 128,-1,42
 752 287 752 287 504 287 c 2,43,-1
 477 287 l 1,44,-1
 458 217 l 2,45,0
 441 151 441 151 441 118 c 0,1,2
696 1112 m 1,47,-1
 487 328 l 1,48,-1
 525 328 l 2,49,50
 688 328 688 328 796.5 403.5 c 128,-1,51
 905 479 905 479 956.5 603.5 c 128,-1,52
 1008 728 1008 728 1008 877 c 0,53,54
 1008 988 1008 988 951.5 1051 c 128,-1,55
 895 1114 895 1114 785 1114 c 0,56,46
 742 1114 742 1114 696 1112 c 1,47,-1
EndSplineSet
Substitution2: "'c2sc' Capitals to Small Capitals lookup 23 subtable" thorn.smcp
Substitution2: "'aalt' Access All Alternates lookup 0 subtable" thorn.smcp
Position2: "'cpsp' Capital Spacing lookup 0 subtable" dx=20 dy=0 dh=20 dv=0
EndChar
StartChar: germandbls
Encoding: 223 223 232
Width: 1244
GlyphClass: 2
Flags: W
LayerCount: 2
Back
Fore
SplineSet
692 1497.5 m 128,-1,1
 642 1424 642 1424 600 1264 c 2,2,-1
 174 -356 l 1,3,4
 3 -359 3 -359 -121 -385 c 1,5,-1
 256 1048 l 2,6,7
 307 1242 307 1242 379.5 1362 c 128,-1,8
 452 1482 452 1482 566.5 1542 c 128,-1,9
 681 1602 681 1602 854 1602 c 0,10,11
 986 1602 986 1602 1071.5 1573.5 c 128,-1,12
 1157 1545 1157 1545 1196 1499 c 128,-1,13
 1235 1453 1235 1453 1235 1398 c 0,14,15
 1235 1344 1235 1344 1206.5 1299 c 128,-1,16
 1178 1254 1178 1254 1134 1216.5 c 128,-1,17
 1090 1179 1090 1179 1006 1118 c 0,18,19
 932 1066 932 1066 867 1013 c 0,20,21
 805 962 805 962 785.5 930 c 128,-1,22
 766 898 766 898 766 863 c 0,23,24
 766 822 766 822 786 784 c 128,-1,25
 806 746 806 746 835.5 713.5 c 128,-1,26
 865 681 865 681 915 634 c 2,27,-1
 955 595 l 2,28,29
 1016 534 1016 534 1050 494 c 128,-1,30
 1084 454 1084 454 1105 407 c 128,-1,31
 1126 360 1126 360 1126 303 c 0,32,33
 1126 198 1126 198 1067 123 c 128,-1,34
 1008 48 1008 48 910 9.5 c 128,-1,35
 812 -29 812 -29 696 -29 c 0,36,37
 611 -29 611 -29 546.5 -2 c 128,-1,38
 482 25 482 25 446.5 75 c 128,-1,39
 411 125 411 125 411 190 c 0,40,41
 411 254 411 254 444 298 c 128,-1,42
 477 342 477 342 530 342 c 0,43,44
 587 342 587 342 618.5 290 c 128,-1,45
 650 238 650 238 650 168 c 0,46,47
 650 128 650 128 637.5 88 c 128,-1,48
 625 48 625 48 603 21 c 1,49,50
 630 12 630 12 654 12 c 0,51,52
 697 12 697 12 732 37 c 128,-1,53
 767 62 767 62 787 107.5 c 128,-1,54
 807 153 807 153 807 212 c 0,55,56
 807 275 807 275 789 336 c 128,-1,57
 771 397 771 397 734 469 c 2,58,-1
 719 500 l 2,59,60
 682 577 682 577 661.5 634.5 c 128,-1,61
 641 692 641 692 641 748 c 0,62,63
 641 795 641 795 656.5 831 c 128,-1,64
 672 867 672 867 696.5 895 c 128,-1,65
 721 923 721 923 767 966 c 0,66,67
 856 1055 856 1055 833 1031 c 1,68,69
 898 1099 898 1099 928.5 1189 c 128,-1,70
 959 1279 959 1279 959 1375 c 0,71,72
 959 1475 959 1475 919 1523 c 128,-1,73
 879 1571 879 1571 816 1571 c 0,74,0
 742 1571 742 1571 692 1497.5 c 128,-1,1
EndSplineSet
Substitution2: "'smcp' Lowercase to Small Capitals lookup 24 subtable" germandbls.smcp
Substitution2: "'aalt' Access All Alternates lookup 0 subtable" germandbls.smcp
EndChar
StartChar: ae
Encoding: 230 230 144
Width: 1504
GlyphClass: 2
Flags: W
AnchorPoint: "Anchor-5" 0 0 basechar 0
AnchorPoint: "Anchor-4" 876 1053 basechar 0
AnchorPoint: "Anchor-3" 0 0 basechar 0
LayerCount: 2
Back
Fore
SplineSet
1406.5 705.5 m 128,-1,1
 1311 609 1311 609 1167.5 541 c 128,-1,2
 1024 473 1024 473 868 432 c 1,3,4
 856 362 856 362 856 292 c 0,5,6
 856 184 856 184 896.5 139 c 128,-1,7
 937 94 937 94 1014 94 c 0,8,9
 1077 94 1077 94 1155.5 134.5 c 128,-1,10
 1234 175 1234 175 1309 262 c 1,11,-1
 1345 246 l 1,12,13
 1299 173 1299 173 1228.5 110.5 c 128,-1,14
 1158 48 1158 48 1066 9.5 c 128,-1,15
 974 -29 974 -29 870 -29 c 0,16,17
 758 -29 758 -29 676.5 19 c 128,-1,18
 595 67 595 67 565 157 c 1,19,20
 499 66 499 66 410.5 18.5 c 128,-1,21
 322 -29 322 -29 222 -29 c 0,22,23
 105 -29 105 -29 46.5 35 c 128,-1,24
 -12 99 -12 99 -12 216 c 0,25,26
 -12 397 -12 397 110.5 594.5 c 128,-1,27
 233 792 233 792 422 923.5 c 128,-1,28
 611 1055 611 1055 796 1055 c 0,29,30
 901 1055 901 1055 944 984 c 1,31,32
 1100 1087 1100 1087 1272 1087 c 0,33,34
 1375 1087 1375 1087 1438.5 1044 c 128,-1,35
 1502 1001 1502 1001 1502 917 c 0,36,0
 1502 802 1502 802 1406.5 705.5 c 128,-1,1
1096 965 m 128,-1,38
 1024 881 1024 881 963 746.5 c 128,-1,39
 902 612 902 612 874 469 c 1,40,41
 1030 533 1030 533 1098 592 c 0,42,43
 1183 665 1183 665 1229.5 765 c 128,-1,44
 1276 865 1276 865 1276 981 c 0,45,46
 1276 1049 1276 1049 1227 1049 c 0,47,37
 1168 1049 1168 1049 1096 965 c 128,-1,38
594.5 514.5 m 128,-1,49
 640 647 640 647 723 765 c 128,-1,50
 806 883 806 883 914 963 c 1,51,52
 885 1002 885 1002 832 1002 c 0,53,54
 722 1002 722 1002 594 887 c 128,-1,55
 466 772 466 772 378.5 589 c 128,-1,56
 291 406 291 406 291 213 c 0,57,58
 291 149 291 149 317.5 115 c 128,-1,59
 344 81 344 81 387 81 c 0,60,61
 478 81 478 81 556 191 c 1,62,63
 549 220 549 220 549 260 c 0,64,48
 549 382 549 382 594.5 514.5 c 128,-1,49
EndSplineSet
Substitution2: "'smcp' Lowercase to Small Capitals lookup 24 subtable" ae.smcp
Substitution2: "'aalt' Access All Alternates lookup 0 subtable" ae.smcp
EndChar
StartChar: ccedilla
Encoding: 231 231 149
Width: 949
GlyphClass: 2
Flags: W
AnchorPoint: "Anchor-5" 340 0 basechar 0
AnchorPoint: "Anchor-4" 662 1051 basechar 0
AnchorPoint: "Anchor-3" 0 0 basechar 0
LayerCount: 2
Back
Fore
SplineSet
670.5 882.5 m 128,-1,1
 696 929 696 929 739 961 c 128,-1,2
 782 993 782 993 831 1006 c 1,3,4
 798 1047 798 1047 734 1047 c 0,5,6
 633 1047 633 1047 537.5 937 c 128,-1,7
 442 827 442 827 382.5 650.5 c 128,-1,8
 323 474 323 474 323 286 c 0,9,10
 323 182 323 182 364 132 c 128,-1,11
 405 82 405 82 479 82 c 0,12,13
 627 82 627 82 749 262 c 1,14,-1
 790 246 l 1,15,16
 718 130 718 130 607 52 c 128,-1,17
 496 -26 496 -26 353 -29 c 1,18,-1
 282 -141 l 1,19,20
 344 -121 344 -121 391 -121 c 0,21,22
 446 -121 446 -121 480.5 -143 c 128,-1,23
 515 -165 515 -165 515 -206 c 0,24,25
 515 -267 515 -267 466 -307 c 128,-1,26
 417 -347 417 -347 340 -366 c 128,-1,27
 263 -385 263 -385 180 -385 c 0,28,29
 122 -385 122 -385 72.5 -372.5 c 128,-1,30
 23 -360 23 -360 -4 -345 c 1,31,-1
 9 -313 l 1,32,33
 75 -336 75 -336 133 -336 c 0,34,35
 187 -336 187 -336 240 -315 c 128,-1,36
 293 -294 293 -294 293 -242 c 0,37,38
 293 -220 293 -220 278 -207.5 c 128,-1,39
 263 -195 263 -195 236 -195 c 0,40,41
 201 -195 201 -195 172 -209 c 1,42,-1
 295 -27 l 1,43,44
 166 -14 166 -14 91.5 65 c 128,-1,45
 17 144 17 144 17 286 c 0,46,47
 17 462 17 462 105 649.5 c 128,-1,48
 193 837 193 837 353 962 c 128,-1,49
 513 1087 513 1087 716 1087 c 0,50,51
 789 1087 789 1087 845.5 1061.5 c 128,-1,52
 902 1036 902 1036 933 991 c 128,-1,53
 964 946 964 946 964 890 c 0,54,55
 964 835 964 835 937 782.5 c 128,-1,56
 910 730 910 730 863.5 697 c 128,-1,57
 817 664 817 664 762 664 c 0,58,59
 711 664 711 664 678 696 c 128,-1,60
 645 728 645 728 645 782 c 256,61,0
 645 836 645 836 670.5 882.5 c 128,-1,1
EndSplineSet
Substitution2: "'smcp' Lowercase to Small Capitals lookup 24 subtable" ccedilla.smcp
Substitution2: "'aalt' Access All Alternates lookup 0 subtable" ccedilla.smcp
EndChar
StartChar: eth
Encoding: 240 240 153
Width: 1082
GlyphClass: 2
Flags: W
LayerCount: 2
Back
Fore
SplineSet
950.5 1128 m 128,-1,1
 1019 978 1019 978 1019 800 c 0,2,3
 1019 603 1019 603 940.5 411 c 128,-1,4
 862 219 862 219 711.5 95 c 128,-1,5
 561 -29 561 -29 355 -29 c 0,6,7
 203 -29 203 -29 113.5 53.5 c 128,-1,8
 24 136 24 136 24 310 c 0,9,10
 24 473 24 473 98.5 654 c 128,-1,11
 173 835 173 835 311 958 c 128,-1,12
 449 1081 449 1081 628 1081 c 0,13,14
 672 1081 672 1081 703 1070 c 1,15,16
 678 1214 678 1214 613 1326 c 1,17,-1
 263 1171 l 1,18,-1
 251 1208 l 1,19,-1
 592 1359 l 1,20,21
 509 1482 509 1482 368 1567 c 1,22,-1
 392 1602 l 1,23,24
 581 1539 581 1539 726 1420 c 1,25,-1
 1035 1556 l 1,26,-1
 1048 1520 l 1,27,-1
 757 1392 l 1,28,0
 882 1278 882 1278 950.5 1128 c 128,-1,1
553 146 m 128,-1,30
 629 280 629 280 674.5 480 c 128,-1,31
 720 680 720 680 720 862 c 0,32,33
 720 948 720 948 709 1030 c 1,34,35
 682 1040 682 1040 646 1040 c 0,36,37
 553 1040 553 1040 479 900 c 128,-1,38
 405 760 405 760 364 553 c 128,-1,39
 323 346 323 346 323 159 c 0,40,41
 323 102 323 102 330 70 c 128,-1,42
 337 38 337 38 352 25 c 128,-1,43
 367 12 367 12 393 12 c 0,44,29
 477 12 477 12 553 146 c 128,-1,30
EndSplineSet
Substitution2: "'smcp' Lowercase to Small Capitals lookup 24 subtable" eth.smcp
Substitution2: "'aalt' Access All Alternates lookup 0 subtable" eth.smcp
EndChar
StartChar: divide
Encoding: 247 247 726
Width: 1303
Flags: W
LayerCount: 2
Back
Fore
SplineSet
743.5 1101.5 m 128,-1,1
 786 1135 786 1135 832 1135 c 0,2,3
 871 1135 871 1135 895 1112 c 128,-1,4
 919 1089 919 1089 919 1053 c 0,5,6
 919 1040 919 1040 914 1022 c 0,7,8
 901 974 901 974 858 941.5 c 128,-1,9
 815 909 815 909 767 909 c 0,10,11
 729 909 729 909 705.5 931.5 c 128,-1,12
 682 954 682 954 682 989 c 0,13,14
 682 1004 682 1004 687 1022 c 0,15,0
 701 1068 701 1068 743.5 1101.5 c 128,-1,1
1203 758 m 1,16,-1
 1185 696 l 1,17,-1
 159 696 l 1,18,-1
 177 758 l 1,19,-1
 1203 758 l 1,16,-1
573 511.5 m 128,-1,21
 616 545 616 545 662 545 c 0,22,23
 701 545 701 545 725 522 c 128,-1,24
 749 499 749 499 749 463 c 0,25,26
 749 450 749 450 744 432 c 0,27,28
 730 385 730 385 687 351 c 128,-1,29
 644 317 644 317 597 317 c 0,30,31
 559 317 559 317 535.5 340.5 c 128,-1,32
 512 364 512 364 512 400 c 0,33,34
 512 414 512 414 517 432 c 0,35,20
 530 478 530 478 573 511.5 c 128,-1,21
EndSplineSet
EndChar
StartChar: oslash
Encoding: 248 248 216
Width: 1083
GlyphClass: 2
Flags: W
AnchorPoint: "Anchor-5" 348 0 basechar 0
AnchorPoint: "Anchor-4" 541 1053 basechar 0
AnchorPoint: "Anchor-3" 0 0 basechar 0
LayerCount: 2
Back
Fore
SplineSet
1019 750 m 0,1,2
 1019 581 1019 581 942.5 399.5 c 128,-1,3
 866 218 866 218 715.5 94.5 c 128,-1,4
 565 -29 565 -29 355 -29 c 0,5,6
 261 -29 261 -29 190 2 c 1,7,-1
 65 -170 l 1,8,-1
 33 -149 l 1,9,-1
 155 21 l 1,10,11
 24 104 24 104 24 309 c 0,12,13
 24 478 24 478 100.5 659.5 c 128,-1,14
 177 841 177 841 327.5 964 c 128,-1,15
 478 1087 478 1087 688 1087 c 0,16,17
 782 1087 782 1087 851 1057 c 1,18,-1
 971 1227 l 1,19,-1
 1003 1208 l 1,20,-1
 884 1039 l 1,21,0
 1019 957 1019 957 1019 750 c 0,1,2
518 913.5 m 128,-1,23
 432 780 432 780 370 581 c 128,-1,24
 308 382 308 382 299 202 c 1,25,-1
 744 928 l 1,26,27
 741 994 741 994 724.5 1020.5 c 128,-1,28
 708 1047 708 1047 677 1047 c 0,29,22
 604 1047 604 1047 518 913.5 c 128,-1,23
525.5 143.5 m 128,-1,31
 611 275 611 275 673 473.5 c 128,-1,32
 735 672 735 672 743 859 c 1,33,-1
 298 128 l 1,34,35
 301 67 301 67 318 39.5 c 128,-1,36
 335 12 335 12 368 12 c 0,37,30
 440 12 440 12 525.5 143.5 c 128,-1,31
EndSplineSet
Substitution2: "'smcp' Lowercase to Small Capitals lookup 24 subtable" oslash.smcp
Substitution2: "'aalt' Access All Alternates lookup 0 subtable" oslash.smcp
EndChar
StartChar: thorn
Encoding: 254 254 220
Width: 1196
GlyphClass: 2
Flags: W
LayerCount: 2
Back
Fore
SplineSet
1069.5 1006.5 m 128,-1,1
 1134 926 1134 926 1134 772 c 0,2,3
 1134 604 1134 604 1059 416 c 128,-1,4
 984 228 984 228 844.5 99.5 c 128,-1,5
 705 -29 705 -29 522 -29 c 0,6,7
 465 -29 465 -29 416 -10 c 128,-1,8
 367 9 367 9 338 42 c 1,9,-1
 282 -154 l 2,10,11
 270 -196 270 -196 270 -227 c 0,12,13
 270 -283 270 -283 311 -304.5 c 128,-1,14
 352 -326 352 -326 440 -328 c 1,15,-1
 428 -371 l 1,16,-1
 367 -369 l 2,17,18
 204 -362 204 -362 104 -362 c 0,19,20
 12 -362 12 -362 -135 -369 c 0,21,22
 -175 -371 -175 -371 -184 -371 c 1,23,-1
 -172 -328 l 1,24,25
 -122 -328 -122 -328 -92.5 -316.5 c 128,-1,26
 -63 -305 -63 -305 -44.5 -277.5 c 128,-1,27
 -26 -250 -26 -250 -12 -201 c 2,28,-1
 361 1134 l 1,29,30
 304 1005 304 1005 228.5 903.5 c 128,-1,31
 153 802 153 802 45 691 c 1,32,-1
 23 718 l 1,33,34
 115 816 115 816 174.5 889.5 c 128,-1,35
 234 963 234 963 295.5 1070.5 c 128,-1,36
 357 1178 357 1178 417 1332 c 1,37,-1
 483 1570 l 1,38,39
 647 1582 647 1582 788 1628 c 1,40,-1
 555 809 l 1,41,42
 627 955 627 955 706 1021 c 128,-1,43
 785 1087 785 1087 881 1087 c 0,44,0
 1005 1087 1005 1087 1069.5 1006.5 c 128,-1,1
629.5 155 m 128,-1,46
 721 279 721 279 778 462 c 128,-1,47
 835 645 835 645 835 808 c 0,48,49
 835 904 835 904 817.5 941.5 c 128,-1,50
 800 979 800 979 767 979 c 0,51,52
 728 979 728 979 680.5 932.5 c 128,-1,53
 633 886 633 886 586.5 805 c 128,-1,54
 540 724 540 724 503 623 c 1,55,-1
 348 78 l 1,56,57
 383 31 383 31 441 31 c 0,58,45
 538 31 538 31 629.5 155 c 128,-1,46
EndSplineSet
Substitution2: "'smcp' Lowercase to Small Capitals lookup 24 subtable" thorn.smcp
Substitution2: "'aalt' Access All Alternates lookup 0 subtable" thorn.smcp
EndChar
StartChar: Aogonek
Encoding: 260 260 9
Width: 1337
GlyphClass: 2
Flags: W
AnchorPoint: "Anchor-5" 0 0 basechar 0
AnchorPoint: "Anchor-4" 953 1450 basechar 0
AnchorPoint: "Anchor-3" 1107 0 basechar 0
LayerCount: 2
Back
Fore
SplineSet
966.5 -93.5 m 128,-1,1
 908 -155 908 -155 908 -221 c 0,2,3
 908 -283 908 -283 976 -283 c 0,4,5
 1009 -283 1009 -283 1049.5 -270.5 c 128,-1,6
 1090 -258 1090 -258 1126 -238 c 1,7,-1
 1149 -273 l 1,8,9
 1005 -385 1005 -385 850 -385 c 0,10,11
 769 -385 769 -385 723 -352.5 c 128,-1,12
 677 -320 677 -320 677 -263 c 0,13,14
 677 -173 677 -173 789 -105 c 128,-1,15
 901 -37 901 -37 1064 4 c 1,16,17
 948 6 948 6 888 6 c 0,18,19
 679 6 679 6 580 0 c 1,20,-1
 589 41 l 1,21,22
 655 44 655 44 692.5 56.5 c 128,-1,23
 730 69 730 69 748 100 c 128,-1,24
 766 131 766 131 766 190 c 2,25,-1
 765 213 l 1,26,-1
 747 549 l 1,27,-1
 304 549 l 1,28,-1
 123 294 l 2,29,30
 58 202 58 202 58 143 c 0,31,32
 58 51 58 51 229 41 c 1,33,-1
 220 0 l 1,34,35
 48 6 48 6 -48 6 c 0,36,37
 -124 6 -124 6 -189 0 c 1,38,-1
 -180 41 l 1,39,40
 -127 55 -127 55 -76.5 102 c 128,-1,41
 -26 149 -26 149 52 258 c 2,42,-1
 906 1460 l 1,43,44
 923 1458 923 1458 959 1458 c 256,45,46
 995 1458 995 1458 1010 1460 c 1,47,-1
 1092 172 l 2,48,49
 1098 105 1098 105 1127.5 74 c 128,-1,50
 1157 43 1157 43 1193 41 c 1,51,-1
 1185 0 l 1,52,-1
 1116 3 l 1,53,0
 1025 -32 1025 -32 966.5 -93.5 c 128,-1,1
715 1131 m 1,54,-1
 333 590 l 1,55,-1
 745 590 l 1,56,-1
 715 1131 l 1,54,-1
EndSplineSet
Substitution2: "'c2sc' Capitals to Small Capitals lookup 23 subtable" aogonek.smcp
Substitution2: "'aalt' Access All Alternates lookup 0 subtable" aogonek.smcp
Position2: "'cpsp' Capital Spacing lookup 0 subtable" dx=20 dy=0 dh=20 dv=0
EndChar
StartChar: aogonek
Encoding: 261 261 141
Width: 1144
GlyphClass: 2
Flags: W
AnchorPoint: "Anchor-5" 0 0 basechar 0
AnchorPoint: "Anchor-4" 726 1053 basechar 0
AnchorPoint: "Anchor-3" 848 0 basechar 0
LayerCount: 2
Back
Fore
SplineSet
1052 333 m 1,0,-1
 1001 183 l 2,1,2
 943 19 943 19 809 -19 c 1,3,4
 738 -56 738 -56 694 -110.5 c 128,-1,5
 650 -165 650 -165 650 -222 c 0,6,7
 650 -283 650 -283 709 -283 c 0,8,9
 741 -283 741 -283 776 -265.5 c 128,-1,10
 811 -248 811 -248 837 -221 c 1,11,-1
 865 -246 l 1,12,13
 751 -385 751 -385 590 -385 c 0,14,15
 511 -385 511 -385 465 -352 c 128,-1,16
 419 -319 419 -319 419 -262 c 0,17,18
 419 -189 419 -189 496.5 -130 c 128,-1,19
 574 -71 574 -71 699 -27 c 1,20,21
 616 -18 616 -18 579 36 c 0,22,23
 552 76 552 76 552 139 c 0,24,25
 552 188 552 188 570 262 c 1,26,27
 502 108 502 108 416.5 39.5 c 128,-1,28
 331 -29 331 -29 228 -29 c 0,29,30
 114 -29 114 -29 56.5 37.5 c 128,-1,31
 -1 104 -1 104 -1 224 c 0,32,33
 -1 406 -1 406 96.5 609.5 c 128,-1,34
 194 813 194 813 343 950 c 128,-1,35
 492 1087 492 1087 635 1087 c 0,36,37
 690 1087 690 1087 724 1054 c 128,-1,38
 758 1021 758 1021 764 955 c 1,39,-1
 793 1058 l 1,40,41
 961 1061 961 1061 1090 1087 c 1,42,-1
 822 175 l 2,43,44
 812 138 812 138 812 116 c 0,45,46
 812 72 812 72 849 72 c 0,47,48
 920 72 920 72 977 233 c 2,49,-1
 1013 333 l 1,50,-1
 1052 333 l 1,0,-1
457.5 143.5 m 128,-1,52
 512 206 512 206 566 324.5 c 128,-1,53
 620 443 620 443 662 604 c 1,54,-1
 652 553 l 1,55,-1
 741 873 l 2,56,57
 743 895 743 895 743 906 c 0,58,59
 743 956 743 956 725 984 c 128,-1,60
 707 1012 707 1012 674 1012 c 0,61,62
 604 1012 604 1012 515.5 886.5 c 128,-1,63
 427 761 427 761 364.5 572.5 c 128,-1,64
 302 384 302 384 302 209 c 0,65,66
 302 140 302 140 315.5 110.5 c 128,-1,67
 329 81 329 81 359 81 c 0,68,51
 403 81 403 81 457.5 143.5 c 128,-1,52
EndSplineSet
Substitution2: "'smcp' Lowercase to Small Capitals lookup 24 subtable" aogonek.smcp
Substitution2: "'aalt' Access All Alternates lookup 0 subtable" aogonek.smcp
EndChar
StartChar: dcroat
Encoding: 273 273 155
Width: 1185
GlyphClass: 2
Flags: W
LayerCount: 2
Back
Fore
SplineSet
857 119 m 0,1,2
 857 72 857 72 897 72 c 0,3,4
 964 72 964 72 1022 233 c 2,5,-1
 1058 332 l 1,6,-1
 1096 332 l 1,7,-1
 1047 182 l 2,8,9
 1009 66 1009 66 936 18.5 c 128,-1,10
 863 -29 863 -29 776 -29 c 0,11,12
 649 -29 649 -29 614 65 c 0,13,14
 598 98 598 98 598 148 c 0,15,16
 598 212 598 212 623 297 c 2,17,-1
 626 307 l 1,18,19
 547 132 547 132 460 51.5 c 128,-1,20
 373 -29 373 -29 252 -29 c 0,21,22
 143 -29 143 -29 76 43 c 128,-1,23
 9 115 9 115 9 259 c 0,24,25
 9 424 9 424 94.5 619.5 c 128,-1,26
 180 815 180 815 335.5 951 c 128,-1,27
 491 1087 491 1087 690 1087 c 0,28,29
 787 1087 787 1087 815 1018 c 1,30,-1
 875 1245 l 1,31,-1
 547 1245 l 1,32,-1
 560 1286 l 1,33,-1
 886 1286 l 1,34,-1
 907 1366 l 2,35,36
 917 1403 917 1403 917 1423 c 0,37,38
 917 1464 917 1464 885 1482.5 c 128,-1,39
 853 1501 853 1501 777 1501 c 1,40,-1
 791 1544 l 1,41,42
 933 1545 933 1545 1047 1566 c 128,-1,43
 1161 1587 1161 1587 1269 1628 c 1,44,-1
 1175 1286 l 1,45,-1
 1350 1286 l 1,46,-1
 1338 1245 l 1,47,-1
 1163 1245 l 1,48,-1
 868 174 l 2,49,0
 857 144 857 144 857 119 c 0,1,2
771 1022.5 m 128,-1,51
 752 1040 752 1040 719 1040 c 0,52,53
 631 1040 631 1040 535 914.5 c 128,-1,54
 439 789 439 789 375 596 c 128,-1,55
 311 403 311 403 311 215 c 0,56,57
 311 143 311 143 326.5 108.5 c 128,-1,58
 342 74 342 74 377 74 c 0,59,60
 417 74 417 74 473 133.5 c 128,-1,61
 529 193 529 193 588.5 308.5 c 128,-1,62
 648 424 648 424 698 581 c 1,63,-1
 801 968 l 1,64,50
 790 1005 790 1005 771 1022.5 c 128,-1,51
EndSplineSet
Substitution2: "'smcp' Lowercase to Small Capitals lookup 24 subtable" dcroat.smcp
Substitution2: "'aalt' Access All Alternates lookup 0 subtable" dcroat.smcp
EndChar
